M48
; DRILL file {KiCad 7.0.6-7.0.6~ubuntu22.04.1} date Fri 14 Jul 2023 06:39:33 PM CDT
; FORMAT={-:-/ absolute / inch / decimal}
; #@! TF.CreationDate,2023-07-14T18:39:33-05:00
; #@! TF.GenerationSoftware,Kicad,Pcbnew,7.0.6-7.0.6~ubuntu22.04.1
; #@! TF.FileFunction,Plated,1,2,PTH
FMAT,2
INCH
; #@! TA.AperFunction,Plated,PTH,ViaDrill
T1C0.0157
; #@! TA.AperFunction,Plated,PTH,ComponentDrill
T2C0.0394
%
G90
G05
T1
X5.7Y-3.7
X5.725Y-2.65
X5.725Y-3.625
X5.725Y-4.2
X5.8Y-4.45
X5.85Y-2.25
X5.85Y-4.125
X5.975Y-4.6
X6.0Y-3.375
X6.0Y-4.025
X6.05Y-2.425
X6.075Y-2.65
X6.125Y-4.2
X6.175Y-3.1
T2
X5.325Y-2.1
X5.325Y-2.775
X5.325Y-2.875
X5.325Y-3.675
X5.325Y-3.775
X5.325Y-3.875
X5.325Y-3.975
X5.325Y-4.075
X5.325Y-4.175
X5.325Y-4.75
X5.425Y-2.1
X5.425Y-4.75
X5.575Y-2.475
X5.575Y-2.575
X5.575Y-2.675
X5.575Y-2.775
X5.575Y-2.875
X5.575Y-2.975
X5.575Y-3.075
X5.575Y-3.175
X5.575Y-3.275
X5.575Y-3.375
X5.575Y-3.475
X5.575Y-3.575
X5.575Y-3.675
X5.575Y-3.775
X5.575Y-3.875
X5.575Y-3.975
X5.575Y-4.075
X5.575Y-4.175
X5.575Y-4.275
X5.575Y-4.375
X6.275Y-2.475
X6.275Y-2.575
X6.275Y-2.675
X6.275Y-2.775
X6.275Y-2.875
X6.275Y-2.975
X6.275Y-3.075
X6.275Y-3.175
X6.275Y-3.275
X6.275Y-3.375
X6.275Y-3.475
X6.275Y-3.575
X6.275Y-3.675
X6.275Y-3.775
X6.275Y-3.875
X6.275Y-3.975
X6.275Y-4.075
X6.275Y-4.175
X6.275Y-4.275
X6.275Y-4.375
X6.425Y-2.1
X6.425Y-4.75
X6.525Y-2.1
X6.525Y-3.575
X6.525Y-3.675
X6.525Y-3.775
X6.525Y-3.875
X6.525Y-3.975
X6.525Y-4.075
X6.525Y-4.175
X6.525Y-4.275
X6.525Y-4.75
T0
M30
