%TF.GenerationSoftware,KiCad,Pcbnew,7.0.6-7.0.6~ubuntu22.04.1*%
%TF.CreationDate,2023-07-14T18:36:51-05:00*%
%TF.ProjectId,picodrone_controller,7069636f-6472-46f6-9e65-5f636f6e7472,rev?*%
%TF.SameCoordinates,Original*%
%TF.FileFunction,Legend,Top*%
%TF.FilePolarity,Positive*%
%FSLAX46Y46*%
G04 Gerber Fmt 4.6, Leading zero omitted, Abs format (unit mm)*
G04 Created by KiCad (PCBNEW 7.0.6-7.0.6~ubuntu22.04.1) date 2023-07-14 18:36:51*
%MOMM*%
%LPD*%
G01*
G04 APERTURE LIST*
%ADD10C,0.187500*%
%ADD11C,0.150000*%
%ADD12C,0.120000*%
%ADD13C,0.152400*%
%ADD14C,0.127000*%
%ADD15C,0.200000*%
G04 APERTURE END LIST*
D10*
G36*
X143835380Y-120224069D02*
G01*
X143845541Y-120224272D01*
X143855557Y-120224609D01*
X143865426Y-120225082D01*
X143884727Y-120226432D01*
X143903444Y-120228322D01*
X143921577Y-120230752D01*
X143939127Y-120233722D01*
X143956092Y-120237232D01*
X143972473Y-120241282D01*
X143988271Y-120245872D01*
X144003485Y-120251002D01*
X144018114Y-120256672D01*
X144032160Y-120262882D01*
X144045622Y-120269632D01*
X144058500Y-120276922D01*
X144070794Y-120284752D01*
X144082505Y-120293122D01*
X144093596Y-120302104D01*
X144103971Y-120311769D01*
X144113631Y-120322117D01*
X144122576Y-120333148D01*
X144130805Y-120344862D01*
X144138318Y-120357259D01*
X144145116Y-120370339D01*
X144151198Y-120384103D01*
X144156565Y-120398549D01*
X144161216Y-120413679D01*
X144165151Y-120429492D01*
X144168371Y-120445988D01*
X144170876Y-120463167D01*
X144172665Y-120481029D01*
X144173738Y-120499574D01*
X144174096Y-120518803D01*
X144174006Y-120528609D01*
X144173287Y-120547708D01*
X144171848Y-120566121D01*
X144169690Y-120583850D01*
X144166812Y-120600893D01*
X144163215Y-120617252D01*
X144158899Y-120632925D01*
X144153863Y-120647914D01*
X144148109Y-120662217D01*
X144141634Y-120675836D01*
X144134440Y-120688769D01*
X144126527Y-120701018D01*
X144117895Y-120712581D01*
X144108543Y-120723459D01*
X144098472Y-120733653D01*
X144087681Y-120743161D01*
X144082016Y-120747658D01*
X144070206Y-120756176D01*
X144057794Y-120764145D01*
X144044782Y-120771564D01*
X144031168Y-120778433D01*
X144016953Y-120784753D01*
X144002137Y-120790523D01*
X143986721Y-120795744D01*
X143970703Y-120800415D01*
X143954084Y-120804536D01*
X143936863Y-120808108D01*
X143919042Y-120811131D01*
X143900620Y-120813604D01*
X143881597Y-120815527D01*
X143861973Y-120816901D01*
X143851935Y-120817382D01*
X143841747Y-120817725D01*
X143831409Y-120817932D01*
X143820921Y-120818000D01*
X143759127Y-120818000D01*
X143759127Y-121115000D01*
X143585959Y-121115000D01*
X143585959Y-120661685D01*
X143759127Y-120661685D01*
X143829469Y-120677316D01*
X143839689Y-120677175D01*
X143849589Y-120676752D01*
X143863837Y-120675587D01*
X143877364Y-120673786D01*
X143890169Y-120671350D01*
X143902254Y-120668279D01*
X143913617Y-120664573D01*
X143924258Y-120660231D01*
X143934179Y-120655253D01*
X143943378Y-120649641D01*
X143951856Y-120643392D01*
X143954521Y-120641168D01*
X143962073Y-120633936D01*
X143968881Y-120625793D01*
X143974947Y-120616739D01*
X143980270Y-120606776D01*
X143984850Y-120595902D01*
X143988688Y-120584119D01*
X143991783Y-120571425D01*
X143994135Y-120557821D01*
X143995744Y-120543306D01*
X143996404Y-120533124D01*
X143996734Y-120522538D01*
X143996775Y-120517093D01*
X143996613Y-120506902D01*
X143996127Y-120497088D01*
X143994789Y-120483076D01*
X143992721Y-120469914D01*
X143989923Y-120457602D01*
X143986395Y-120446140D01*
X143982138Y-120435529D01*
X143977150Y-120425767D01*
X143971433Y-120416856D01*
X143964986Y-120408794D01*
X143957809Y-120401583D01*
X143955254Y-120399368D01*
X143947229Y-120393170D01*
X143938722Y-120387581D01*
X143929735Y-120382602D01*
X143920266Y-120378233D01*
X143910317Y-120374474D01*
X143899887Y-120371324D01*
X143888977Y-120368784D01*
X143877585Y-120366853D01*
X143865712Y-120365532D01*
X143853359Y-120364821D01*
X143844856Y-120364685D01*
X143834047Y-120364757D01*
X143823682Y-120364917D01*
X143813360Y-120365133D01*
X143803583Y-120365373D01*
X143801870Y-120365418D01*
X143792032Y-120365770D01*
X143781619Y-120366376D01*
X143771120Y-120367327D01*
X143761097Y-120368724D01*
X143759127Y-120369082D01*
X143759127Y-120661685D01*
X143585959Y-120661685D01*
X143585959Y-120239633D01*
X143595699Y-120238110D01*
X143605869Y-120236656D01*
X143616467Y-120235271D01*
X143627496Y-120233954D01*
X143638953Y-120232707D01*
X143642868Y-120232306D01*
X143652802Y-120231355D01*
X143662760Y-120230488D01*
X143672742Y-120229705D01*
X143682748Y-120229005D01*
X143692778Y-120228388D01*
X143702831Y-120227855D01*
X143706859Y-120227665D01*
X143716969Y-120227219D01*
X143726995Y-120226797D01*
X143736938Y-120226399D01*
X143746797Y-120226024D01*
X143756572Y-120225674D01*
X143768193Y-120225284D01*
X143770118Y-120225223D01*
X143781501Y-120224808D01*
X143792386Y-120224479D01*
X143802773Y-120224235D01*
X143812662Y-120224078D01*
X143823570Y-120224003D01*
X143825073Y-120224002D01*
X143835380Y-120224069D01*
G37*
G36*
X144609092Y-120255997D02*
G01*
X144608585Y-120268190D01*
X144607062Y-120279735D01*
X144604524Y-120290630D01*
X144600971Y-120300877D01*
X144596403Y-120310475D01*
X144590820Y-120319424D01*
X144584222Y-120327725D01*
X144576608Y-120335376D01*
X144568350Y-120342246D01*
X144559694Y-120348199D01*
X144550642Y-120353237D01*
X144541193Y-120357358D01*
X144531347Y-120360564D01*
X144521104Y-120362854D01*
X144510464Y-120364228D01*
X144499427Y-120364685D01*
X144488341Y-120364228D01*
X144477674Y-120362854D01*
X144467428Y-120360564D01*
X144457601Y-120357358D01*
X144448194Y-120353237D01*
X144439206Y-120348199D01*
X144430639Y-120342246D01*
X144422491Y-120335376D01*
X144415106Y-120327725D01*
X144408706Y-120319424D01*
X144403291Y-120310475D01*
X144398860Y-120300877D01*
X144395414Y-120290630D01*
X144392953Y-120279735D01*
X144391476Y-120268190D01*
X144390983Y-120255997D01*
X144391476Y-120243461D01*
X144392953Y-120231619D01*
X144395414Y-120220472D01*
X144398860Y-120210019D01*
X144403291Y-120200260D01*
X144408706Y-120191197D01*
X144415106Y-120182828D01*
X144422491Y-120175153D01*
X144430639Y-120168284D01*
X144439206Y-120162330D01*
X144448194Y-120157293D01*
X144457601Y-120153171D01*
X144467428Y-120149965D01*
X144477674Y-120147676D01*
X144488341Y-120146302D01*
X144499427Y-120145844D01*
X144510464Y-120146302D01*
X144521104Y-120147676D01*
X144531347Y-120149965D01*
X144541193Y-120153171D01*
X144550642Y-120157293D01*
X144559694Y-120162330D01*
X144568350Y-120168284D01*
X144576608Y-120175153D01*
X144584222Y-120182828D01*
X144590820Y-120191197D01*
X144596403Y-120200260D01*
X144600971Y-120210019D01*
X144604524Y-120220472D01*
X144607062Y-120231619D01*
X144608585Y-120243461D01*
X144609092Y-120255997D01*
G37*
G36*
X144866524Y-121089598D02*
G01*
X144856551Y-121093951D01*
X144846689Y-121098033D01*
X144836939Y-121101845D01*
X144827300Y-121105386D01*
X144817773Y-121108657D01*
X144808358Y-121111657D01*
X144795978Y-121115237D01*
X144783797Y-121118336D01*
X144771813Y-121120954D01*
X144765896Y-121122083D01*
X144754234Y-121124086D01*
X144742815Y-121125823D01*
X144731641Y-121127292D01*
X144720711Y-121128494D01*
X144710026Y-121129429D01*
X144699584Y-121130097D01*
X144689387Y-121130497D01*
X144679434Y-121130631D01*
X144666984Y-121130455D01*
X144654911Y-121129927D01*
X144643216Y-121129047D01*
X144631898Y-121127815D01*
X144620959Y-121126230D01*
X144610397Y-121124294D01*
X144600214Y-121122006D01*
X144590408Y-121119365D01*
X144580980Y-121116373D01*
X144568996Y-121111835D01*
X144566106Y-121110603D01*
X144554970Y-121105253D01*
X144544398Y-121099337D01*
X144534392Y-121092857D01*
X144524951Y-121085812D01*
X144516074Y-121078203D01*
X144507762Y-121070028D01*
X144500015Y-121061289D01*
X144492833Y-121051985D01*
X144486246Y-121042143D01*
X144480163Y-121031789D01*
X144474583Y-121020924D01*
X144469508Y-121009548D01*
X144464936Y-120997660D01*
X144460867Y-120985261D01*
X144458147Y-120975626D01*
X144455710Y-120965703D01*
X144454242Y-120958928D01*
X144452234Y-120948485D01*
X144450424Y-120937762D01*
X144448811Y-120926761D01*
X144447396Y-120915480D01*
X144446178Y-120903920D01*
X144445158Y-120892081D01*
X144444335Y-120879963D01*
X144443709Y-120867566D01*
X144443281Y-120854890D01*
X144443051Y-120841935D01*
X144443007Y-120833143D01*
X144443007Y-120583527D01*
X144260069Y-120583527D01*
X144260069Y-120442843D01*
X144616175Y-120442843D01*
X144616175Y-120868558D01*
X144616366Y-120879778D01*
X144616940Y-120890449D01*
X144617895Y-120900570D01*
X144619763Y-120913209D01*
X144622310Y-120924872D01*
X144625537Y-120935557D01*
X144629443Y-120945266D01*
X144634028Y-120953998D01*
X144637913Y-120959905D01*
X144645416Y-120968560D01*
X144654337Y-120975748D01*
X144664678Y-120981469D01*
X144673973Y-120984989D01*
X144684176Y-120987571D01*
X144695287Y-120989214D01*
X144707306Y-120989918D01*
X144710453Y-120989947D01*
X144721297Y-120989655D01*
X144731355Y-120988939D01*
X144742117Y-120987795D01*
X144753583Y-120986220D01*
X144763676Y-120984580D01*
X144767850Y-120983841D01*
X144778662Y-120981617D01*
X144789880Y-120978761D01*
X144801503Y-120975272D01*
X144811093Y-120972027D01*
X144820943Y-120968376D01*
X144831052Y-120964321D01*
X144841421Y-120959862D01*
X144844054Y-120958684D01*
X144866524Y-121089598D01*
G37*
G36*
X144970816Y-120787470D02*
G01*
X144971013Y-120774216D01*
X144971606Y-120761109D01*
X144972593Y-120748147D01*
X144973976Y-120735332D01*
X144975753Y-120722662D01*
X144977926Y-120710138D01*
X144980493Y-120697761D01*
X144983456Y-120685529D01*
X144986813Y-120673443D01*
X144990565Y-120661504D01*
X144993286Y-120653625D01*
X144997710Y-120641953D01*
X145002554Y-120630570D01*
X145007819Y-120619473D01*
X145013505Y-120608665D01*
X145019612Y-120598144D01*
X145026139Y-120587911D01*
X145033087Y-120577966D01*
X145040456Y-120568308D01*
X145048245Y-120558937D01*
X145056456Y-120549855D01*
X145062163Y-120543960D01*
X145071122Y-120535385D01*
X145080507Y-120527153D01*
X145090316Y-120519264D01*
X145100551Y-120511720D01*
X145111211Y-120504518D01*
X145122295Y-120497660D01*
X145133805Y-120491146D01*
X145145740Y-120484975D01*
X145158099Y-120479148D01*
X145170884Y-120473664D01*
X145179644Y-120470198D01*
X145193213Y-120465310D01*
X145202528Y-120462318D01*
X145212059Y-120459539D01*
X145221806Y-120456975D01*
X145231769Y-120454624D01*
X145241947Y-120452487D01*
X145252340Y-120450564D01*
X145262950Y-120448854D01*
X145273775Y-120447358D01*
X145284815Y-120446076D01*
X145296071Y-120445007D01*
X145307543Y-120444152D01*
X145319231Y-120443511D01*
X145331134Y-120443084D01*
X145343252Y-120442870D01*
X145349392Y-120442843D01*
X145360374Y-120442914D01*
X145371154Y-120443127D01*
X145381732Y-120443481D01*
X145392108Y-120443977D01*
X145402283Y-120444614D01*
X145412255Y-120445393D01*
X145422026Y-120446314D01*
X145434740Y-120447763D01*
X145447095Y-120449463D01*
X145456127Y-120450903D01*
X145468117Y-120453021D01*
X145480154Y-120455467D01*
X145492236Y-120458242D01*
X145504364Y-120461345D01*
X145516538Y-120464775D01*
X145528758Y-120468534D01*
X145541024Y-120472622D01*
X145550253Y-120475903D01*
X145553335Y-120477037D01*
X145515233Y-120608928D01*
X145504477Y-120605259D01*
X145493274Y-120601761D01*
X145483598Y-120598978D01*
X145473611Y-120596314D01*
X145463314Y-120593769D01*
X145452707Y-120591343D01*
X145441480Y-120589091D01*
X145431829Y-120587565D01*
X145421582Y-120586282D01*
X145410740Y-120585244D01*
X145399302Y-120584451D01*
X145387270Y-120583901D01*
X145374641Y-120583596D01*
X145364780Y-120583527D01*
X145353328Y-120583662D01*
X145342237Y-120584068D01*
X145331506Y-120584744D01*
X145321137Y-120585691D01*
X145311127Y-120586908D01*
X145298343Y-120588952D01*
X145286199Y-120591476D01*
X145274697Y-120594481D01*
X145263836Y-120597968D01*
X145261221Y-120598914D01*
X145251150Y-120602887D01*
X145241574Y-120607234D01*
X145232495Y-120611955D01*
X145223913Y-120617049D01*
X145213882Y-120623944D01*
X145204626Y-120631423D01*
X145196145Y-120639486D01*
X145194542Y-120641168D01*
X145186950Y-120649833D01*
X145180050Y-120659033D01*
X145173841Y-120668771D01*
X145168324Y-120679045D01*
X145163499Y-120689856D01*
X145159366Y-120701203D01*
X145157906Y-120705893D01*
X145155273Y-120715449D01*
X145152991Y-120725188D01*
X145151060Y-120735110D01*
X145149480Y-120745216D01*
X145148251Y-120755505D01*
X145147373Y-120765976D01*
X145146846Y-120776632D01*
X145146671Y-120787470D01*
X145146871Y-120799156D01*
X145147472Y-120810524D01*
X145148474Y-120821573D01*
X145149877Y-120832304D01*
X145151680Y-120842715D01*
X145153884Y-120852809D01*
X145156488Y-120862583D01*
X145159494Y-120872039D01*
X145164753Y-120885625D01*
X145170914Y-120898494D01*
X145177976Y-120910647D01*
X145185940Y-120922082D01*
X145194806Y-120932800D01*
X145197962Y-120936214D01*
X145208260Y-120945816D01*
X145219829Y-120954475D01*
X145228248Y-120959722D01*
X145237231Y-120964550D01*
X145246780Y-120968958D01*
X145256893Y-120972946D01*
X145267571Y-120976514D01*
X145278814Y-120979662D01*
X145290621Y-120982391D01*
X145302994Y-120984700D01*
X145315931Y-120986589D01*
X145329433Y-120988058D01*
X145343500Y-120989108D01*
X145358132Y-120989737D01*
X145373328Y-120989947D01*
X145383579Y-120989859D01*
X145393936Y-120989596D01*
X145404400Y-120989157D01*
X145414972Y-120988543D01*
X145425650Y-120987753D01*
X145436434Y-120986787D01*
X145447326Y-120985646D01*
X145458325Y-120984330D01*
X145469312Y-120982815D01*
X145480047Y-120981078D01*
X145490530Y-120979120D01*
X145500762Y-120976941D01*
X145510741Y-120974541D01*
X145520469Y-120971919D01*
X145529945Y-120969076D01*
X145539169Y-120966011D01*
X145564570Y-121100345D01*
X145555171Y-121103570D01*
X145545290Y-121106649D01*
X145534929Y-121109584D01*
X145524087Y-121112374D01*
X145512764Y-121115019D01*
X145500960Y-121117518D01*
X145488676Y-121119873D01*
X145475910Y-121122083D01*
X145465995Y-121123610D01*
X145455757Y-121124988D01*
X145445198Y-121126215D01*
X145434316Y-121127292D01*
X145423113Y-121128218D01*
X145411587Y-121128995D01*
X145399740Y-121129621D01*
X145387571Y-121130097D01*
X145375079Y-121130422D01*
X145362266Y-121130598D01*
X145353545Y-121130631D01*
X145340987Y-121130528D01*
X145328655Y-121130219D01*
X145316547Y-121129704D01*
X145304665Y-121128982D01*
X145293009Y-121128055D01*
X145281577Y-121126922D01*
X145270370Y-121125582D01*
X145259389Y-121124036D01*
X145248633Y-121122285D01*
X145238102Y-121120327D01*
X145227796Y-121118163D01*
X145217715Y-121115793D01*
X145207859Y-121113217D01*
X145198229Y-121110435D01*
X145188824Y-121107447D01*
X145179644Y-121104253D01*
X145166316Y-121099092D01*
X145153443Y-121093591D01*
X145141025Y-121087751D01*
X145129062Y-121081573D01*
X145117555Y-121075055D01*
X145106502Y-121068197D01*
X145095905Y-121061001D01*
X145085763Y-121053466D01*
X145076076Y-121045591D01*
X145066843Y-121037377D01*
X145060942Y-121031713D01*
X145052455Y-121022911D01*
X145044398Y-121013818D01*
X145036770Y-121004433D01*
X145029572Y-120994756D01*
X145022802Y-120984787D01*
X145016463Y-120974526D01*
X145010552Y-120963973D01*
X145005071Y-120953128D01*
X145000019Y-120941991D01*
X144995397Y-120930562D01*
X144992554Y-120922780D01*
X144988669Y-120910925D01*
X144985166Y-120898898D01*
X144982046Y-120886699D01*
X144979307Y-120874329D01*
X144976951Y-120861786D01*
X144974977Y-120849072D01*
X144973385Y-120836187D01*
X144972175Y-120823129D01*
X144971347Y-120809900D01*
X144970901Y-120796499D01*
X144970816Y-120787470D01*
G37*
G36*
X145974518Y-120443058D02*
G01*
X145987117Y-120443702D01*
X145999506Y-120444775D01*
X146011684Y-120446278D01*
X146023651Y-120448210D01*
X146035409Y-120450571D01*
X146046955Y-120453362D01*
X146058292Y-120456582D01*
X146069418Y-120460231D01*
X146080334Y-120464310D01*
X146087494Y-120467267D01*
X146098073Y-120471986D01*
X146108377Y-120477073D01*
X146118406Y-120482530D01*
X146128161Y-120488356D01*
X146137640Y-120494552D01*
X146146845Y-120501116D01*
X146155775Y-120508050D01*
X146164431Y-120515353D01*
X146172811Y-120523025D01*
X146180917Y-120531066D01*
X146186168Y-120536632D01*
X146193786Y-120545263D01*
X146201069Y-120554212D01*
X146208017Y-120563479D01*
X146214630Y-120573063D01*
X146220909Y-120582965D01*
X146226852Y-120593184D01*
X146232461Y-120603721D01*
X146237734Y-120614576D01*
X146242673Y-120625749D01*
X146247277Y-120637240D01*
X146250160Y-120645076D01*
X146254176Y-120657051D01*
X146257796Y-120669253D01*
X146261022Y-120681683D01*
X146263853Y-120694341D01*
X146266289Y-120707226D01*
X146268329Y-120720338D01*
X146269975Y-120733678D01*
X146271226Y-120747246D01*
X146272082Y-120761041D01*
X146272543Y-120775064D01*
X146272630Y-120784539D01*
X146272433Y-120799019D01*
X146271840Y-120813241D01*
X146270853Y-120827206D01*
X146269470Y-120840913D01*
X146267693Y-120854363D01*
X146265521Y-120867555D01*
X146262953Y-120880489D01*
X146259991Y-120893166D01*
X146256633Y-120905585D01*
X146252881Y-120917747D01*
X146250160Y-120925711D01*
X146245786Y-120937420D01*
X146241090Y-120948824D01*
X146236071Y-120959923D01*
X146230731Y-120970717D01*
X146225069Y-120981206D01*
X146219085Y-120991391D01*
X146212779Y-121001270D01*
X146206150Y-121010845D01*
X146199200Y-121020115D01*
X146191928Y-121029080D01*
X146186901Y-121034888D01*
X146179109Y-121043271D01*
X146171030Y-121051294D01*
X146162663Y-121058956D01*
X146154008Y-121066258D01*
X146145066Y-121073199D01*
X146135836Y-121079779D01*
X146126319Y-121085999D01*
X146116513Y-121091857D01*
X146106420Y-121097356D01*
X146096040Y-121102494D01*
X146088960Y-121105718D01*
X146078171Y-121110170D01*
X146067147Y-121114185D01*
X146055886Y-121117761D01*
X146044389Y-121120899D01*
X146032656Y-121123600D01*
X146020687Y-121125863D01*
X146008482Y-121127687D01*
X145996041Y-121129074D01*
X145983363Y-121130023D01*
X145970449Y-121130534D01*
X145961709Y-121130631D01*
X145948636Y-121130412D01*
X145935795Y-121129755D01*
X145923185Y-121128660D01*
X145910807Y-121127128D01*
X145898662Y-121125157D01*
X145886748Y-121122748D01*
X145875065Y-121119902D01*
X145863615Y-121116618D01*
X145852397Y-121112895D01*
X145841410Y-121108735D01*
X145834214Y-121105718D01*
X145823679Y-121100821D01*
X145813415Y-121095563D01*
X145803421Y-121089945D01*
X145793697Y-121083965D01*
X145784244Y-121077626D01*
X145775061Y-121070925D01*
X145766149Y-121063864D01*
X145757507Y-121056442D01*
X145749136Y-121048660D01*
X145741035Y-121040517D01*
X145735785Y-121034888D01*
X145728167Y-121026126D01*
X145720884Y-121017059D01*
X145713936Y-121007687D01*
X145707323Y-120998011D01*
X145701044Y-120988030D01*
X145695101Y-120977744D01*
X145689492Y-120967153D01*
X145684219Y-120956257D01*
X145679280Y-120945056D01*
X145674676Y-120933551D01*
X145671793Y-120925711D01*
X145667777Y-120913721D01*
X145664157Y-120901474D01*
X145660931Y-120888969D01*
X145658100Y-120876206D01*
X145655664Y-120863186D01*
X145653624Y-120849908D01*
X145651978Y-120836373D01*
X145650727Y-120822580D01*
X145649871Y-120808529D01*
X145649410Y-120794221D01*
X145649336Y-120786004D01*
X145825177Y-120786004D01*
X145825301Y-120797257D01*
X145825670Y-120808238D01*
X145826285Y-120818949D01*
X145827147Y-120829388D01*
X145828254Y-120839557D01*
X145829608Y-120849454D01*
X145832100Y-120863792D01*
X145835147Y-120877521D01*
X145838747Y-120890640D01*
X145842900Y-120903149D01*
X145847608Y-120915049D01*
X145852869Y-120926339D01*
X145856685Y-120933527D01*
X145862977Y-120943610D01*
X145869948Y-120952701D01*
X145877598Y-120960800D01*
X145885925Y-120967908D01*
X145894931Y-120974024D01*
X145904616Y-120979148D01*
X145914978Y-120983280D01*
X145926019Y-120986421D01*
X145937739Y-120988570D01*
X145950136Y-120989727D01*
X145958778Y-120989947D01*
X145971172Y-120989451D01*
X145982981Y-120987964D01*
X145994207Y-120985484D01*
X146004849Y-120982013D01*
X146014906Y-120977550D01*
X146024380Y-120972095D01*
X146033270Y-120965649D01*
X146041577Y-120958211D01*
X146049299Y-120949781D01*
X146056437Y-120940359D01*
X146060872Y-120933527D01*
X146067026Y-120922643D01*
X146072575Y-120911150D01*
X146077519Y-120899047D01*
X146081858Y-120886335D01*
X146085591Y-120873013D01*
X146088718Y-120859081D01*
X146090467Y-120849454D01*
X146091947Y-120839557D01*
X146093158Y-120829388D01*
X146094099Y-120818949D01*
X146094772Y-120808238D01*
X146095176Y-120797257D01*
X146095310Y-120786004D01*
X146095186Y-120774755D01*
X146094814Y-120763782D01*
X146094194Y-120753086D01*
X146093326Y-120742667D01*
X146092209Y-120732524D01*
X146090845Y-120722658D01*
X146088333Y-120708377D01*
X146085264Y-120694720D01*
X146081636Y-120681684D01*
X146077450Y-120669272D01*
X146072706Y-120657481D01*
X146067403Y-120646314D01*
X146063558Y-120639214D01*
X146057310Y-120629262D01*
X146050378Y-120620289D01*
X146042764Y-120612295D01*
X146034467Y-120605280D01*
X146025487Y-120599244D01*
X146015825Y-120594186D01*
X146005480Y-120590107D01*
X145994453Y-120587008D01*
X145982743Y-120584887D01*
X145970350Y-120583745D01*
X145961709Y-120583527D01*
X145949316Y-120584017D01*
X145937506Y-120585485D01*
X145926281Y-120587932D01*
X145915639Y-120591358D01*
X145905581Y-120595763D01*
X145896107Y-120601147D01*
X145887217Y-120607510D01*
X145878911Y-120614851D01*
X145871189Y-120623172D01*
X145864050Y-120632471D01*
X145859616Y-120639214D01*
X145853461Y-120649967D01*
X145847912Y-120661342D01*
X145842968Y-120673340D01*
X145838630Y-120685960D01*
X145834897Y-120699203D01*
X145831769Y-120713068D01*
X145829247Y-120727556D01*
X145827902Y-120737561D01*
X145826825Y-120747842D01*
X145826018Y-120758399D01*
X145825480Y-120769234D01*
X145825211Y-120780345D01*
X145825177Y-120786004D01*
X145649336Y-120786004D01*
X145649323Y-120784539D01*
X145649527Y-120770364D01*
X145650138Y-120756418D01*
X145651158Y-120742698D01*
X145652586Y-120729206D01*
X145654421Y-120715942D01*
X145656664Y-120702906D01*
X145659315Y-120690096D01*
X145662374Y-120677515D01*
X145665841Y-120665161D01*
X145669716Y-120653034D01*
X145672526Y-120645076D01*
X145677037Y-120633374D01*
X145681871Y-120621990D01*
X145687026Y-120610923D01*
X145692504Y-120600174D01*
X145698304Y-120589742D01*
X145704425Y-120579629D01*
X145710869Y-120569833D01*
X145717634Y-120560355D01*
X145724722Y-120551194D01*
X145732131Y-120542351D01*
X145737250Y-120536632D01*
X145745177Y-120528345D01*
X145753387Y-120520427D01*
X145761881Y-120512877D01*
X145770658Y-120505698D01*
X145779718Y-120498887D01*
X145789062Y-120492445D01*
X145798689Y-120486373D01*
X145808599Y-120480670D01*
X145818793Y-120475337D01*
X145829270Y-120470372D01*
X145836413Y-120467267D01*
X145847308Y-120462903D01*
X145858380Y-120458967D01*
X145869628Y-120455461D01*
X145881052Y-120452384D01*
X145892652Y-120449736D01*
X145904428Y-120447518D01*
X145916379Y-120445729D01*
X145928507Y-120444370D01*
X145940811Y-120443439D01*
X145953291Y-120442939D01*
X145961709Y-120442843D01*
X145974518Y-120443058D01*
G37*
G36*
X146602788Y-120239732D02*
G01*
X146613357Y-120240030D01*
X146623808Y-120240526D01*
X146634140Y-120241221D01*
X146644355Y-120242114D01*
X146654451Y-120243205D01*
X146664428Y-120244495D01*
X146674288Y-120245983D01*
X146684029Y-120247670D01*
X146693652Y-120249556D01*
X146707864Y-120252755D01*
X146721810Y-120256402D01*
X146735490Y-120260495D01*
X146748904Y-120265034D01*
X146762037Y-120270007D01*
X146774784Y-120275490D01*
X146787145Y-120281484D01*
X146799119Y-120287989D01*
X146810706Y-120295005D01*
X146821908Y-120302532D01*
X146832723Y-120310570D01*
X146843151Y-120319119D01*
X146853193Y-120328179D01*
X146862849Y-120337749D01*
X146869071Y-120344413D01*
X146878129Y-120354796D01*
X146886800Y-120365703D01*
X146895085Y-120377133D01*
X146902983Y-120389087D01*
X146910495Y-120401565D01*
X146915288Y-120410174D01*
X146919910Y-120419017D01*
X146924359Y-120428092D01*
X146928638Y-120437400D01*
X146932744Y-120446940D01*
X146936678Y-120456714D01*
X146940441Y-120466720D01*
X146944032Y-120476959D01*
X146945764Y-120482166D01*
X146949106Y-120492742D01*
X146952232Y-120503587D01*
X146955143Y-120514701D01*
X146957838Y-120526084D01*
X146960318Y-120537736D01*
X146962582Y-120549657D01*
X146964630Y-120561848D01*
X146966463Y-120574307D01*
X146968080Y-120587035D01*
X146969482Y-120600033D01*
X146970668Y-120613299D01*
X146971638Y-120626834D01*
X146972393Y-120640639D01*
X146972932Y-120654712D01*
X146973255Y-120669055D01*
X146973363Y-120683667D01*
X146973245Y-120698639D01*
X146972890Y-120713331D01*
X146972298Y-120727742D01*
X146971470Y-120741873D01*
X146970405Y-120755723D01*
X146969104Y-120769293D01*
X146967566Y-120782582D01*
X146965792Y-120795591D01*
X146963780Y-120808319D01*
X146961533Y-120820767D01*
X146959048Y-120832934D01*
X146956327Y-120844821D01*
X146953370Y-120856427D01*
X146950175Y-120867753D01*
X146946744Y-120878799D01*
X146943077Y-120889563D01*
X146939201Y-120900065D01*
X146935143Y-120910320D01*
X146930904Y-120920329D01*
X146926484Y-120930092D01*
X146921882Y-120939609D01*
X146917099Y-120948880D01*
X146912135Y-120957905D01*
X146906990Y-120966683D01*
X146901663Y-120975215D01*
X146896156Y-120983501D01*
X146890466Y-120991541D01*
X146881593Y-121003140D01*
X146872311Y-121014184D01*
X146862622Y-121024675D01*
X146859302Y-121028049D01*
X146849136Y-121037825D01*
X146838605Y-121047094D01*
X146827709Y-121055857D01*
X146816448Y-121064113D01*
X146804823Y-121071862D01*
X146792832Y-121079105D01*
X146780477Y-121085842D01*
X146767756Y-121092071D01*
X146754671Y-121097794D01*
X146741221Y-121103011D01*
X146732051Y-121106207D01*
X146718090Y-121110572D01*
X146708637Y-121113243D01*
X146699068Y-121115724D01*
X146689382Y-121118013D01*
X146679580Y-121120112D01*
X146669661Y-121122021D01*
X146659626Y-121123738D01*
X146649475Y-121125264D01*
X146639207Y-121126600D01*
X146628823Y-121127745D01*
X146618322Y-121128699D01*
X146607706Y-121129462D01*
X146596972Y-121130035D01*
X146586122Y-121130416D01*
X146575156Y-121130607D01*
X146569630Y-121130631D01*
X146558059Y-121130555D01*
X146546549Y-121130326D01*
X146535100Y-121129944D01*
X146523712Y-121129410D01*
X146512385Y-121128723D01*
X146501120Y-121127883D01*
X146489915Y-121126891D01*
X146478771Y-121125746D01*
X146467620Y-121124426D01*
X146456270Y-121122907D01*
X146444722Y-121121190D01*
X146432976Y-121119274D01*
X146421031Y-121117160D01*
X146408887Y-121114847D01*
X146396545Y-121112336D01*
X146384005Y-121109626D01*
X146384005Y-120988482D01*
X146557173Y-120988482D01*
X146566996Y-120989774D01*
X146572561Y-120989947D01*
X146582674Y-120989947D01*
X146588192Y-120989947D01*
X146599064Y-120989743D01*
X146609604Y-120989131D01*
X146619815Y-120988112D01*
X146629694Y-120986684D01*
X146642353Y-120984146D01*
X146654424Y-120980883D01*
X146665907Y-120976895D01*
X146676803Y-120972182D01*
X146687110Y-120966744D01*
X146696884Y-120960672D01*
X146706177Y-120954059D01*
X146714988Y-120946903D01*
X146723319Y-120939206D01*
X146731170Y-120930966D01*
X146738539Y-120922185D01*
X146745427Y-120912862D01*
X146751835Y-120902997D01*
X146757781Y-120892563D01*
X146763284Y-120881656D01*
X146768344Y-120870276D01*
X146772962Y-120858422D01*
X146777137Y-120846096D01*
X146779978Y-120836540D01*
X146782569Y-120826719D01*
X146784912Y-120816631D01*
X146787006Y-120806277D01*
X146788883Y-120795695D01*
X146790575Y-120784924D01*
X146792083Y-120773965D01*
X146793406Y-120762817D01*
X146794544Y-120751479D01*
X146795498Y-120739953D01*
X146796267Y-120728238D01*
X146796852Y-120716334D01*
X146797252Y-120704241D01*
X146797467Y-120691959D01*
X146797508Y-120683667D01*
X146797433Y-120672795D01*
X146797208Y-120661980D01*
X146796832Y-120651220D01*
X146796306Y-120640516D01*
X146795630Y-120629868D01*
X146794803Y-120619275D01*
X146793827Y-120608739D01*
X146792700Y-120598258D01*
X146791422Y-120587833D01*
X146789995Y-120577464D01*
X146788960Y-120570582D01*
X146787289Y-120560348D01*
X146785391Y-120550346D01*
X146783265Y-120540576D01*
X146780911Y-120531038D01*
X146777419Y-120518681D01*
X146773523Y-120506736D01*
X146769222Y-120495203D01*
X146764516Y-120484082D01*
X146759406Y-120473374D01*
X146753911Y-120463073D01*
X146747927Y-120453300D01*
X146741454Y-120444053D01*
X146734494Y-120435333D01*
X146727044Y-120427139D01*
X146719106Y-120419472D01*
X146710680Y-120412332D01*
X146701765Y-120405718D01*
X146692335Y-120399765D01*
X146682241Y-120394605D01*
X146671483Y-120390239D01*
X146660061Y-120386667D01*
X146647974Y-120383889D01*
X146635224Y-120381905D01*
X146625226Y-120380937D01*
X146614854Y-120380416D01*
X146607732Y-120380317D01*
X146597340Y-120380457D01*
X146587540Y-120380801D01*
X146582330Y-120381050D01*
X146572267Y-120381908D01*
X146562217Y-120383536D01*
X146557173Y-120384713D01*
X146557173Y-120988482D01*
X146384005Y-120988482D01*
X146384005Y-120260638D01*
X146395025Y-120258375D01*
X146405921Y-120256259D01*
X146416692Y-120254288D01*
X146427339Y-120252464D01*
X146437861Y-120250785D01*
X146448259Y-120249252D01*
X146458532Y-120247865D01*
X146468681Y-120246625D01*
X146478705Y-120245530D01*
X146488605Y-120244581D01*
X146495136Y-120244030D01*
X146508031Y-120242999D01*
X146520705Y-120242106D01*
X146533157Y-120241350D01*
X146545389Y-120240732D01*
X146557398Y-120240251D01*
X146569187Y-120239908D01*
X146580754Y-120239702D01*
X146592100Y-120239633D01*
X146602788Y-120239732D01*
G37*
G36*
X147622316Y-120605997D02*
G01*
X147612334Y-120603662D01*
X147602618Y-120601586D01*
X147592108Y-120599510D01*
X147582260Y-120597693D01*
X147572074Y-120595816D01*
X147561818Y-120594033D01*
X147551491Y-120592344D01*
X147541094Y-120590747D01*
X147535122Y-120589877D01*
X147524720Y-120588391D01*
X147514458Y-120587139D01*
X147504337Y-120586121D01*
X147494356Y-120585336D01*
X147488715Y-120584993D01*
X147477923Y-120584351D01*
X147468016Y-120583893D01*
X147457929Y-120583597D01*
X147450858Y-120583527D01*
X147439445Y-120583617D01*
X147428103Y-120583885D01*
X147416833Y-120584332D01*
X147405635Y-120584958D01*
X147394508Y-120585763D01*
X147383453Y-120586747D01*
X147379050Y-120587191D01*
X147368024Y-120588497D01*
X147356925Y-120590124D01*
X147345756Y-120592074D01*
X147334514Y-120594346D01*
X147323201Y-120596940D01*
X147311817Y-120599856D01*
X147307243Y-120601113D01*
X147307243Y-121115000D01*
X147132854Y-121115000D01*
X147132854Y-120499019D01*
X147145798Y-120494344D01*
X147158803Y-120489846D01*
X147171867Y-120485523D01*
X147184992Y-120481376D01*
X147198177Y-120477406D01*
X147211422Y-120473611D01*
X147224727Y-120469993D01*
X147238092Y-120466550D01*
X147251517Y-120463283D01*
X147265002Y-120460193D01*
X147274026Y-120458230D01*
X147287844Y-120455481D01*
X147302096Y-120453001D01*
X147311838Y-120451499D01*
X147321773Y-120450116D01*
X147331900Y-120448854D01*
X147342220Y-120447712D01*
X147352733Y-120446690D01*
X147363439Y-120445788D01*
X147374337Y-120445007D01*
X147385428Y-120444346D01*
X147396712Y-120443805D01*
X147408189Y-120443384D01*
X147419858Y-120443084D01*
X147431720Y-120442903D01*
X147443775Y-120442843D01*
X147453669Y-120442962D01*
X147464612Y-120443274D01*
X147474460Y-120443649D01*
X147483831Y-120444064D01*
X147493742Y-120444582D01*
X147503878Y-120445221D01*
X147514236Y-120445979D01*
X147524818Y-120446858D01*
X147535623Y-120447857D01*
X147539274Y-120448217D01*
X147550382Y-120449359D01*
X147561542Y-120450586D01*
X147572753Y-120451900D01*
X147584016Y-120453300D01*
X147595330Y-120454785D01*
X147599113Y-120455300D01*
X147610247Y-120456968D01*
X147620935Y-120458860D01*
X147631176Y-120460975D01*
X147640970Y-120463314D01*
X147651833Y-120466324D01*
X147653335Y-120466779D01*
X147622316Y-120605997D01*
G37*
G36*
X148073053Y-120443058D02*
G01*
X148085652Y-120443702D01*
X148098040Y-120444775D01*
X148110218Y-120446278D01*
X148122186Y-120448210D01*
X148133943Y-120450571D01*
X148145490Y-120453362D01*
X148156827Y-120456582D01*
X148167953Y-120460231D01*
X148178868Y-120464310D01*
X148186029Y-120467267D01*
X148196608Y-120471986D01*
X148206912Y-120477073D01*
X148216941Y-120482530D01*
X148226695Y-120488356D01*
X148236175Y-120494552D01*
X148245380Y-120501116D01*
X148254310Y-120508050D01*
X148262965Y-120515353D01*
X148271346Y-120523025D01*
X148279452Y-120531066D01*
X148284703Y-120536632D01*
X148292321Y-120545263D01*
X148299604Y-120554212D01*
X148306552Y-120563479D01*
X148313165Y-120573063D01*
X148319443Y-120582965D01*
X148325387Y-120593184D01*
X148330995Y-120603721D01*
X148336269Y-120614576D01*
X148341207Y-120625749D01*
X148345811Y-120637240D01*
X148348695Y-120645076D01*
X148352710Y-120657051D01*
X148356331Y-120669253D01*
X148359557Y-120681683D01*
X148362387Y-120694341D01*
X148364823Y-120707226D01*
X148366864Y-120720338D01*
X148368510Y-120733678D01*
X148369760Y-120747246D01*
X148370616Y-120761041D01*
X148371077Y-120775064D01*
X148371165Y-120784539D01*
X148370967Y-120799019D01*
X148370375Y-120813241D01*
X148369387Y-120827206D01*
X148368005Y-120840913D01*
X148366228Y-120854363D01*
X148364055Y-120867555D01*
X148361488Y-120880489D01*
X148358525Y-120893166D01*
X148355168Y-120905585D01*
X148351416Y-120917747D01*
X148348695Y-120925711D01*
X148344320Y-120937420D01*
X148339624Y-120948824D01*
X148334606Y-120959923D01*
X148329266Y-120970717D01*
X148323604Y-120981206D01*
X148317619Y-120991391D01*
X148311313Y-121001270D01*
X148304685Y-121010845D01*
X148297735Y-121020115D01*
X148290463Y-121029080D01*
X148285436Y-121034888D01*
X148277644Y-121043271D01*
X148269565Y-121051294D01*
X148261198Y-121058956D01*
X148252543Y-121066258D01*
X148243601Y-121073199D01*
X148234371Y-121079779D01*
X148224853Y-121085999D01*
X148215048Y-121091857D01*
X148204955Y-121097356D01*
X148194574Y-121102494D01*
X148187494Y-121105718D01*
X148176706Y-121110170D01*
X148165681Y-121114185D01*
X148154421Y-121117761D01*
X148142924Y-121120899D01*
X148131191Y-121123600D01*
X148119222Y-121125863D01*
X148107016Y-121127687D01*
X148094575Y-121129074D01*
X148081898Y-121130023D01*
X148068984Y-121130534D01*
X148060244Y-121130631D01*
X148047171Y-121130412D01*
X148034329Y-121129755D01*
X148021720Y-121128660D01*
X148009342Y-121127128D01*
X147997196Y-121125157D01*
X147985282Y-121122748D01*
X147973600Y-121119902D01*
X147962150Y-121116618D01*
X147950931Y-121112895D01*
X147939945Y-121108735D01*
X147932749Y-121105718D01*
X147922214Y-121100821D01*
X147911949Y-121095563D01*
X147901955Y-121089945D01*
X147892231Y-121083965D01*
X147882778Y-121077626D01*
X147873595Y-121070925D01*
X147864683Y-121063864D01*
X147856041Y-121056442D01*
X147847670Y-121048660D01*
X147839569Y-121040517D01*
X147834319Y-121034888D01*
X147826701Y-121026126D01*
X147819418Y-121017059D01*
X147812470Y-121007687D01*
X147805857Y-120998011D01*
X147799579Y-120988030D01*
X147793636Y-120977744D01*
X147788027Y-120967153D01*
X147782753Y-120956257D01*
X147777815Y-120945056D01*
X147773211Y-120933551D01*
X147770327Y-120925711D01*
X147766312Y-120913721D01*
X147762691Y-120901474D01*
X147759465Y-120888969D01*
X147756635Y-120876206D01*
X147754199Y-120863186D01*
X147752158Y-120849908D01*
X147750512Y-120836373D01*
X147749262Y-120822580D01*
X147748406Y-120808529D01*
X147747945Y-120794221D01*
X147747870Y-120786004D01*
X147923712Y-120786004D01*
X147923835Y-120797257D01*
X147924204Y-120808238D01*
X147924820Y-120818949D01*
X147925681Y-120829388D01*
X147926789Y-120839557D01*
X147928143Y-120849454D01*
X147930635Y-120863792D01*
X147933681Y-120877521D01*
X147937281Y-120890640D01*
X147941435Y-120903149D01*
X147946143Y-120915049D01*
X147951404Y-120926339D01*
X147955219Y-120933527D01*
X147961512Y-120943610D01*
X147968483Y-120952701D01*
X147976132Y-120960800D01*
X147984460Y-120967908D01*
X147993466Y-120974024D01*
X148003150Y-120979148D01*
X148013513Y-120983280D01*
X148024554Y-120986421D01*
X148036273Y-120988570D01*
X148048671Y-120989727D01*
X148057313Y-120989947D01*
X148069706Y-120989451D01*
X148081516Y-120987964D01*
X148092741Y-120985484D01*
X148103383Y-120982013D01*
X148113441Y-120977550D01*
X148122915Y-120972095D01*
X148131805Y-120965649D01*
X148140111Y-120958211D01*
X148147833Y-120949781D01*
X148154972Y-120940359D01*
X148159406Y-120933527D01*
X148165561Y-120922643D01*
X148171110Y-120911150D01*
X148176054Y-120899047D01*
X148180392Y-120886335D01*
X148184125Y-120873013D01*
X148187253Y-120859081D01*
X148189002Y-120849454D01*
X148190481Y-120839557D01*
X148191692Y-120829388D01*
X148192634Y-120818949D01*
X148193306Y-120808238D01*
X148193710Y-120797257D01*
X148193845Y-120786004D01*
X148193721Y-120774755D01*
X148193348Y-120763782D01*
X148192728Y-120753086D01*
X148191860Y-120742667D01*
X148190744Y-120732524D01*
X148189380Y-120722658D01*
X148186868Y-120708377D01*
X148183798Y-120694720D01*
X148180170Y-120681684D01*
X148175984Y-120669272D01*
X148171240Y-120657481D01*
X148165938Y-120646314D01*
X148162093Y-120639214D01*
X148155844Y-120629262D01*
X148148912Y-120620289D01*
X148141298Y-120612295D01*
X148133001Y-120605280D01*
X148124022Y-120599244D01*
X148114360Y-120594186D01*
X148104015Y-120590107D01*
X148092988Y-120587008D01*
X148081277Y-120584887D01*
X148068885Y-120583745D01*
X148060244Y-120583527D01*
X148047850Y-120584017D01*
X148036041Y-120585485D01*
X148024815Y-120587932D01*
X148014173Y-120591358D01*
X148004116Y-120595763D01*
X147994642Y-120601147D01*
X147985752Y-120607510D01*
X147977445Y-120614851D01*
X147969723Y-120623172D01*
X147962585Y-120632471D01*
X147958150Y-120639214D01*
X147951996Y-120649967D01*
X147946447Y-120661342D01*
X147941503Y-120673340D01*
X147937164Y-120685960D01*
X147933431Y-120699203D01*
X147930304Y-120713068D01*
X147927781Y-120727556D01*
X147926436Y-120737561D01*
X147925360Y-120747842D01*
X147924553Y-120758399D01*
X147924015Y-120769234D01*
X147923746Y-120780345D01*
X147923712Y-120786004D01*
X147747870Y-120786004D01*
X147747857Y-120784539D01*
X147748061Y-120770364D01*
X147748673Y-120756418D01*
X147749693Y-120742698D01*
X147751120Y-120729206D01*
X147752955Y-120715942D01*
X147755199Y-120702906D01*
X147757850Y-120690096D01*
X147760909Y-120677515D01*
X147764376Y-120665161D01*
X147768250Y-120653034D01*
X147771060Y-120645076D01*
X147775572Y-120633374D01*
X147780405Y-120621990D01*
X147785561Y-120610923D01*
X147791039Y-120600174D01*
X147796838Y-120589742D01*
X147802960Y-120579629D01*
X147809403Y-120569833D01*
X147816169Y-120560355D01*
X147823256Y-120551194D01*
X147830666Y-120542351D01*
X147835785Y-120536632D01*
X147843711Y-120528345D01*
X147851922Y-120520427D01*
X147860415Y-120512877D01*
X147869192Y-120505698D01*
X147878253Y-120498887D01*
X147887596Y-120492445D01*
X147897224Y-120486373D01*
X147907134Y-120480670D01*
X147917328Y-120475337D01*
X147927805Y-120470372D01*
X147934947Y-120467267D01*
X147945843Y-120462903D01*
X147956915Y-120458967D01*
X147968163Y-120455461D01*
X147979586Y-120452384D01*
X147991186Y-120449736D01*
X148002962Y-120447518D01*
X148014914Y-120445729D01*
X148027042Y-120444370D01*
X148039346Y-120443439D01*
X148051826Y-120442939D01*
X148060244Y-120442843D01*
X148073053Y-120443058D01*
G37*
G36*
X148495240Y-120477770D02*
G01*
X148507181Y-120474675D01*
X148519802Y-120471618D01*
X148529713Y-120469350D01*
X148540006Y-120467104D01*
X148550682Y-120464880D01*
X148561739Y-120462676D01*
X148573179Y-120460495D01*
X148585000Y-120458334D01*
X148597204Y-120456196D01*
X148609790Y-120454078D01*
X148622716Y-120452071D01*
X148635848Y-120450260D01*
X148649186Y-120448647D01*
X148662730Y-120447232D01*
X148676480Y-120446014D01*
X148690436Y-120444994D01*
X148704598Y-120444171D01*
X148718967Y-120443545D01*
X148733541Y-120443117D01*
X148743372Y-120442942D01*
X148753294Y-120442854D01*
X148758290Y-120442843D01*
X148772846Y-120443034D01*
X148786929Y-120443607D01*
X148800540Y-120444563D01*
X148813679Y-120445900D01*
X148826346Y-120447620D01*
X148838541Y-120449721D01*
X148850263Y-120452205D01*
X148861513Y-120455071D01*
X148872291Y-120458318D01*
X148882596Y-120461949D01*
X148889204Y-120464581D01*
X148898765Y-120468818D01*
X148907940Y-120473376D01*
X148916729Y-120478257D01*
X148925131Y-120483460D01*
X148935732Y-120490898D01*
X148945647Y-120498908D01*
X148954875Y-120507491D01*
X148963416Y-120516647D01*
X148971270Y-120526374D01*
X148978566Y-120536568D01*
X148985314Y-120547242D01*
X148991511Y-120558397D01*
X148997159Y-120570033D01*
X149001035Y-120579075D01*
X149004601Y-120588388D01*
X149007858Y-120597972D01*
X149010806Y-120607825D01*
X149013445Y-120617950D01*
X149014256Y-120621385D01*
X149016526Y-120631842D01*
X149018573Y-120642514D01*
X149020396Y-120653400D01*
X149021996Y-120664501D01*
X149023372Y-120675817D01*
X149024526Y-120687347D01*
X149025456Y-120699093D01*
X149026163Y-120711052D01*
X149026647Y-120723227D01*
X149026907Y-120735616D01*
X149026957Y-120743995D01*
X149026957Y-121115000D01*
X148854033Y-121115000D01*
X148854033Y-120760115D01*
X148853950Y-120748567D01*
X148853701Y-120737431D01*
X148853286Y-120726707D01*
X148852705Y-120716395D01*
X148851958Y-120706496D01*
X148850526Y-120692419D01*
X148848721Y-120679270D01*
X148846542Y-120667049D01*
X148843989Y-120655754D01*
X148841064Y-120645387D01*
X148837764Y-120635948D01*
X148832784Y-120624804D01*
X148826850Y-120615130D01*
X148819549Y-120606745D01*
X148810882Y-120599651D01*
X148800849Y-120593846D01*
X148789450Y-120589332D01*
X148780004Y-120586792D01*
X148769789Y-120584978D01*
X148758806Y-120583890D01*
X148747055Y-120583527D01*
X148737209Y-120583619D01*
X148726241Y-120583941D01*
X148715390Y-120584494D01*
X148708220Y-120584993D01*
X148697349Y-120585913D01*
X148687427Y-120586894D01*
X148677260Y-120588028D01*
X148668164Y-120589145D01*
X148668164Y-121115000D01*
X148495240Y-121115000D01*
X148495240Y-120477770D01*
G37*
G36*
X149480210Y-120443197D02*
G01*
X149497670Y-120444259D01*
X149514579Y-120446029D01*
X149530937Y-120448507D01*
X149546743Y-120451692D01*
X149561998Y-120455586D01*
X149576701Y-120460187D01*
X149590853Y-120465497D01*
X149604453Y-120471514D01*
X149617502Y-120478239D01*
X149629999Y-120485673D01*
X149641945Y-120493814D01*
X149653340Y-120502663D01*
X149664183Y-120512220D01*
X149674474Y-120522484D01*
X149684214Y-120533457D01*
X149693413Y-120545078D01*
X149702017Y-120557347D01*
X149710029Y-120570265D01*
X149717447Y-120583832D01*
X149724271Y-120598048D01*
X149730502Y-120612913D01*
X149736140Y-120628426D01*
X149741184Y-120644588D01*
X149745635Y-120661399D01*
X149749492Y-120678858D01*
X149752756Y-120696966D01*
X149755426Y-120715724D01*
X149757504Y-120735129D01*
X149758319Y-120745076D01*
X149758987Y-120755184D01*
X149759506Y-120765455D01*
X149759877Y-120775887D01*
X149760100Y-120786482D01*
X149760174Y-120797240D01*
X149760116Y-120807267D01*
X149759942Y-120817564D01*
X149759652Y-120828132D01*
X149759441Y-120834120D01*
X149759089Y-120844257D01*
X149758517Y-120854160D01*
X149757578Y-120864155D01*
X149757487Y-120864895D01*
X149328353Y-120864895D01*
X149328823Y-120875577D01*
X149330233Y-120885826D01*
X149332584Y-120895642D01*
X149335875Y-120905023D01*
X149340106Y-120913971D01*
X149345277Y-120922486D01*
X149351388Y-120930566D01*
X149358440Y-120938213D01*
X149366432Y-120945427D01*
X149375365Y-120952207D01*
X149381842Y-120956486D01*
X149392141Y-120962466D01*
X149402982Y-120967857D01*
X149414364Y-120972661D01*
X149426286Y-120976876D01*
X149438750Y-120980504D01*
X149451754Y-120983542D01*
X149465300Y-120985993D01*
X149479386Y-120987856D01*
X149494014Y-120989130D01*
X149504066Y-120989653D01*
X149514358Y-120989914D01*
X149519595Y-120989947D01*
X149532582Y-120989787D01*
X149545408Y-120989306D01*
X149558074Y-120988505D01*
X149570580Y-120987383D01*
X149582926Y-120985940D01*
X149595112Y-120984177D01*
X149607137Y-120982093D01*
X149619002Y-120979689D01*
X149630554Y-120977063D01*
X149641640Y-120974438D01*
X149652261Y-120971812D01*
X149662416Y-120969187D01*
X149672105Y-120966561D01*
X149683563Y-120963279D01*
X149694292Y-120959997D01*
X149698381Y-120958684D01*
X149722316Y-121096437D01*
X149710990Y-121099967D01*
X149699480Y-121103352D01*
X149687786Y-121106592D01*
X149675910Y-121109687D01*
X149663851Y-121112637D01*
X149651608Y-121115442D01*
X149639182Y-121118102D01*
X149626573Y-121120617D01*
X149613735Y-121122964D01*
X149603846Y-121124519D01*
X149593734Y-121125898D01*
X149583398Y-121127101D01*
X149572840Y-121128128D01*
X149562058Y-121128978D01*
X149551052Y-121129653D01*
X149539824Y-121130152D01*
X149528372Y-121130475D01*
X149516697Y-121130621D01*
X149512756Y-121130631D01*
X149502261Y-121130547D01*
X149491904Y-121130295D01*
X149481684Y-121129875D01*
X149471601Y-121129288D01*
X149461656Y-121128532D01*
X149451848Y-121127609D01*
X149437394Y-121125908D01*
X149423249Y-121123830D01*
X149409413Y-121121375D01*
X149395886Y-121118541D01*
X149382668Y-121115330D01*
X149369759Y-121111740D01*
X149361325Y-121109138D01*
X149348995Y-121104879D01*
X149337008Y-121100256D01*
X149325364Y-121095268D01*
X149314064Y-121089915D01*
X149303108Y-121084197D01*
X149292495Y-121078114D01*
X149282225Y-121071666D01*
X149272299Y-121064853D01*
X149262716Y-121057676D01*
X149253477Y-121050133D01*
X149247508Y-121044902D01*
X149238861Y-121036712D01*
X149230595Y-121028169D01*
X149222712Y-121019275D01*
X149215211Y-121010029D01*
X149208092Y-121000430D01*
X149201355Y-120990480D01*
X149195000Y-120980177D01*
X149189027Y-120969522D01*
X149183437Y-120958516D01*
X149178228Y-120947157D01*
X149174968Y-120939389D01*
X149170472Y-120927437D01*
X149166419Y-120915120D01*
X149162807Y-120902438D01*
X149159638Y-120889392D01*
X149156911Y-120875980D01*
X149154626Y-120862203D01*
X149152784Y-120848062D01*
X149151383Y-120833555D01*
X149150696Y-120823682D01*
X149150204Y-120813646D01*
X149149909Y-120803448D01*
X149149811Y-120793087D01*
X149149915Y-120782362D01*
X149150227Y-120771800D01*
X149150747Y-120761403D01*
X149151475Y-120751169D01*
X149152411Y-120741100D01*
X149153555Y-120731195D01*
X149154524Y-120724211D01*
X149328353Y-120724211D01*
X149592868Y-120724211D01*
X149592619Y-120714130D01*
X149591872Y-120704221D01*
X149590626Y-120694484D01*
X149588544Y-120683341D01*
X149585785Y-120672431D01*
X149582288Y-120661778D01*
X149577997Y-120651615D01*
X149572912Y-120641942D01*
X149567031Y-120632761D01*
X149563314Y-120627735D01*
X149556173Y-120619358D01*
X149548214Y-120611753D01*
X149539437Y-120604920D01*
X149529842Y-120598857D01*
X149523991Y-120595739D01*
X149514620Y-120591589D01*
X149504459Y-120588297D01*
X149493508Y-120585865D01*
X149483779Y-120584493D01*
X149473502Y-120583718D01*
X149464884Y-120583527D01*
X149454572Y-120583807D01*
X149444701Y-120584648D01*
X149433438Y-120586397D01*
X149422811Y-120588953D01*
X149412819Y-120592316D01*
X149406510Y-120595006D01*
X149397552Y-120599529D01*
X149389177Y-120604669D01*
X149380144Y-120611448D01*
X149371906Y-120619068D01*
X149365478Y-120626270D01*
X149358764Y-120635205D01*
X149352728Y-120644702D01*
X149347370Y-120654760D01*
X149343317Y-120663828D01*
X149340321Y-120671699D01*
X149337146Y-120681284D01*
X149334401Y-120690990D01*
X149332086Y-120700816D01*
X149330200Y-120710762D01*
X149328743Y-120720829D01*
X149328353Y-120724211D01*
X149154524Y-120724211D01*
X149154907Y-120721454D01*
X149157325Y-120707150D01*
X149160210Y-120693215D01*
X149163564Y-120679650D01*
X149167386Y-120666453D01*
X149171676Y-120653626D01*
X149176434Y-120641168D01*
X149181617Y-120629040D01*
X149187092Y-120617295D01*
X149192860Y-120605931D01*
X149198919Y-120594949D01*
X149205270Y-120584350D01*
X149211914Y-120574132D01*
X149218849Y-120564297D01*
X149226076Y-120554844D01*
X149233595Y-120545773D01*
X149241406Y-120537084D01*
X149246775Y-120531503D01*
X149255082Y-120523451D01*
X149263608Y-120515781D01*
X149272353Y-120508493D01*
X149281317Y-120501587D01*
X149290499Y-120495064D01*
X149299901Y-120488922D01*
X149309522Y-120483163D01*
X149319361Y-120477785D01*
X149329420Y-120472790D01*
X149339697Y-120468177D01*
X149346671Y-120465314D01*
X149357273Y-120461298D01*
X149367923Y-120457677D01*
X149378620Y-120454451D01*
X149389364Y-120451621D01*
X149400155Y-120449185D01*
X149410994Y-120447144D01*
X149421879Y-120445498D01*
X149432812Y-120444248D01*
X149443792Y-120443392D01*
X149454820Y-120442931D01*
X149462198Y-120442843D01*
X149480210Y-120443197D01*
G37*
G36*
X150921549Y-121130631D02*
G01*
X150910124Y-121130516D01*
X150898868Y-121130171D01*
X150887783Y-121129596D01*
X150876868Y-121128792D01*
X150866122Y-121127757D01*
X150855546Y-121126492D01*
X150845140Y-121124998D01*
X150834904Y-121123273D01*
X150824837Y-121121319D01*
X150814941Y-121119134D01*
X150805214Y-121116720D01*
X150795657Y-121114076D01*
X150786270Y-121111202D01*
X150768005Y-121104764D01*
X150750419Y-121097406D01*
X150733513Y-121089128D01*
X150717286Y-121079931D01*
X150701739Y-121069814D01*
X150686870Y-121058777D01*
X150672681Y-121046821D01*
X150659172Y-121033945D01*
X150646341Y-121020149D01*
X150640181Y-121012906D01*
X150628439Y-120997771D01*
X150617455Y-120981857D01*
X150607228Y-120965164D01*
X150602399Y-120956526D01*
X150597759Y-120947693D01*
X150593308Y-120938666D01*
X150589047Y-120929444D01*
X150584976Y-120920027D01*
X150581093Y-120910416D01*
X150577400Y-120900610D01*
X150573897Y-120890609D01*
X150570582Y-120880414D01*
X150567458Y-120870024D01*
X150564522Y-120859439D01*
X150561776Y-120848660D01*
X150559219Y-120837687D01*
X150556852Y-120826518D01*
X150554674Y-120815155D01*
X150552686Y-120803598D01*
X150550887Y-120791845D01*
X150549277Y-120779898D01*
X150547856Y-120767757D01*
X150546625Y-120755421D01*
X150545584Y-120742890D01*
X150544732Y-120730164D01*
X150544069Y-120717244D01*
X150543595Y-120704130D01*
X150543311Y-120690820D01*
X150543217Y-120677316D01*
X150543332Y-120663914D01*
X150543678Y-120650698D01*
X150544256Y-120637666D01*
X150545064Y-120624819D01*
X150546103Y-120612158D01*
X150547372Y-120599681D01*
X150548873Y-120587390D01*
X150550605Y-120575284D01*
X150552567Y-120563363D01*
X150554761Y-120551627D01*
X150557185Y-120540076D01*
X150559840Y-120528710D01*
X150562726Y-120517529D01*
X150565843Y-120506533D01*
X150569191Y-120495723D01*
X150572770Y-120485097D01*
X150576555Y-120474666D01*
X150580521Y-120464440D01*
X150584668Y-120454417D01*
X150588997Y-120444599D01*
X150593507Y-120434984D01*
X150598198Y-120425574D01*
X150603070Y-120416369D01*
X150608124Y-120407367D01*
X150613359Y-120398569D01*
X150618775Y-120389976D01*
X150624373Y-120381587D01*
X150630152Y-120373402D01*
X150636112Y-120365421D01*
X150642253Y-120357644D01*
X150648576Y-120350072D01*
X150655080Y-120342704D01*
X150661751Y-120335518D01*
X150672043Y-120325153D01*
X150682679Y-120315287D01*
X150693659Y-120305919D01*
X150704982Y-120297049D01*
X150716648Y-120288677D01*
X150728658Y-120280803D01*
X150741011Y-120273427D01*
X150753708Y-120266549D01*
X150766748Y-120260170D01*
X150780132Y-120254288D01*
X150789251Y-120250620D01*
X150798473Y-120247189D01*
X150807798Y-120243995D01*
X150817226Y-120241038D01*
X150826758Y-120238317D01*
X150836392Y-120235832D01*
X150846129Y-120233584D01*
X150855969Y-120231573D01*
X150865913Y-120229799D01*
X150875959Y-120228261D01*
X150886109Y-120226959D01*
X150896361Y-120225894D01*
X150906717Y-120225066D01*
X150917175Y-120224475D01*
X150927737Y-120224120D01*
X150938401Y-120224002D01*
X150949915Y-120224124D01*
X150961131Y-120224490D01*
X150972050Y-120225101D01*
X150982670Y-120225956D01*
X150992994Y-120227055D01*
X151003019Y-120228398D01*
X151012747Y-120229986D01*
X151022177Y-120231817D01*
X151033628Y-120234237D01*
X151044626Y-120236764D01*
X151055171Y-120239399D01*
X151065263Y-120242140D01*
X151074901Y-120244990D01*
X151085869Y-120248550D01*
X151087634Y-120249159D01*
X151097849Y-120252791D01*
X151107429Y-120256543D01*
X151117802Y-120261073D01*
X151127311Y-120265766D01*
X151134773Y-120269919D01*
X151143718Y-120275079D01*
X151152395Y-120280081D01*
X151161006Y-120285039D01*
X151163593Y-120286528D01*
X151118408Y-120427212D01*
X151110135Y-120420804D01*
X151101434Y-120414648D01*
X151092305Y-120408745D01*
X151082749Y-120403093D01*
X151072766Y-120397693D01*
X151062355Y-120392544D01*
X151051516Y-120387648D01*
X151040251Y-120383004D01*
X151028626Y-120378710D01*
X151016590Y-120374989D01*
X151004141Y-120371841D01*
X150994534Y-120369855D01*
X150984695Y-120368192D01*
X150974624Y-120366850D01*
X150964322Y-120365830D01*
X150953787Y-120365133D01*
X150943021Y-120364757D01*
X150935715Y-120364685D01*
X150925548Y-120364922D01*
X150915443Y-120365632D01*
X150905398Y-120366815D01*
X150895415Y-120368471D01*
X150885492Y-120370601D01*
X150875631Y-120373203D01*
X150865831Y-120376279D01*
X150856092Y-120379829D01*
X150846574Y-120383935D01*
X150837315Y-120388682D01*
X150828317Y-120394071D01*
X150819577Y-120400101D01*
X150811098Y-120406772D01*
X150802877Y-120414084D01*
X150794916Y-120422037D01*
X150787215Y-120430631D01*
X150779819Y-120439859D01*
X150772774Y-120449835D01*
X150766080Y-120460558D01*
X150761291Y-120469092D01*
X150756698Y-120478047D01*
X150752303Y-120487422D01*
X150748106Y-120497218D01*
X150744106Y-120507434D01*
X150740303Y-120518072D01*
X150737878Y-120525397D01*
X150734517Y-120536779D01*
X150731487Y-120548667D01*
X150728787Y-120561062D01*
X150726418Y-120573963D01*
X150724379Y-120587372D01*
X150722671Y-120601286D01*
X150721294Y-120615707D01*
X150720559Y-120625603D01*
X150719971Y-120635724D01*
X150719531Y-120646070D01*
X150719237Y-120656641D01*
X150719090Y-120667437D01*
X150719071Y-120672920D01*
X150719272Y-120691813D01*
X150719873Y-120710148D01*
X150720875Y-120727923D01*
X150722277Y-120745140D01*
X150724080Y-120761797D01*
X150726284Y-120777895D01*
X150728889Y-120793434D01*
X150731894Y-120808414D01*
X150735300Y-120822834D01*
X150739107Y-120836696D01*
X150743314Y-120849999D01*
X150747923Y-120862742D01*
X150752931Y-120874927D01*
X150758341Y-120886552D01*
X150764151Y-120897619D01*
X150770362Y-120908126D01*
X150777029Y-120918034D01*
X150784208Y-120927303D01*
X150791898Y-120935932D01*
X150800099Y-120943923D01*
X150808812Y-120951274D01*
X150818036Y-120957986D01*
X150827771Y-120964058D01*
X150838018Y-120969492D01*
X150848776Y-120974286D01*
X150860045Y-120978441D01*
X150871826Y-120981957D01*
X150884118Y-120984833D01*
X150896922Y-120987071D01*
X150910237Y-120988669D01*
X150924064Y-120989628D01*
X150938401Y-120989947D01*
X150950881Y-120989765D01*
X150962948Y-120989217D01*
X150974603Y-120988305D01*
X150985846Y-120987028D01*
X150996676Y-120985385D01*
X151007095Y-120983378D01*
X151017101Y-120981006D01*
X151026695Y-120978269D01*
X151038846Y-120974052D01*
X151050265Y-120969187D01*
X151061099Y-120963939D01*
X151071376Y-120958699D01*
X151081097Y-120953467D01*
X151090259Y-120948243D01*
X151098865Y-120943026D01*
X151108839Y-120936515D01*
X151117942Y-120930017D01*
X151121339Y-120927421D01*
X151164815Y-121068105D01*
X151155251Y-121073852D01*
X151144878Y-121079493D01*
X151133697Y-121085026D01*
X151124779Y-121089106D01*
X151115407Y-121093126D01*
X151105579Y-121097086D01*
X151095297Y-121100986D01*
X151084559Y-121104826D01*
X151073367Y-121108605D01*
X151065652Y-121111092D01*
X151053761Y-121114584D01*
X151041535Y-121117732D01*
X151028974Y-121120537D01*
X151016078Y-121122998D01*
X151002848Y-121125116D01*
X150989282Y-121126891D01*
X150975382Y-121128322D01*
X150961147Y-121129410D01*
X150946576Y-121130154D01*
X150936677Y-121130459D01*
X150926629Y-121130612D01*
X150921549Y-121130631D01*
G37*
G36*
X151570610Y-120443058D02*
G01*
X151583209Y-120443702D01*
X151595598Y-120444775D01*
X151607776Y-120446278D01*
X151619743Y-120448210D01*
X151631501Y-120450571D01*
X151643048Y-120453362D01*
X151654384Y-120456582D01*
X151665510Y-120460231D01*
X151676426Y-120464310D01*
X151683586Y-120467267D01*
X151694165Y-120471986D01*
X151704469Y-120477073D01*
X151714498Y-120482530D01*
X151724253Y-120488356D01*
X151733732Y-120494552D01*
X151742937Y-120501116D01*
X151751868Y-120508050D01*
X151760523Y-120515353D01*
X151768903Y-120523025D01*
X151777009Y-120531066D01*
X151782260Y-120536632D01*
X151789878Y-120545263D01*
X151797161Y-120554212D01*
X151804109Y-120563479D01*
X151810722Y-120573063D01*
X151817001Y-120582965D01*
X151822944Y-120593184D01*
X151828553Y-120603721D01*
X151833826Y-120614576D01*
X151838765Y-120625749D01*
X151843369Y-120637240D01*
X151846252Y-120645076D01*
X151850268Y-120657051D01*
X151853889Y-120669253D01*
X151857114Y-120681683D01*
X151859945Y-120694341D01*
X151862381Y-120707226D01*
X151864421Y-120720338D01*
X151866067Y-120733678D01*
X151867318Y-120747246D01*
X151868174Y-120761041D01*
X151868635Y-120775064D01*
X151868722Y-120784539D01*
X151868525Y-120799019D01*
X151867932Y-120813241D01*
X151866945Y-120827206D01*
X151865563Y-120840913D01*
X151863785Y-120854363D01*
X151861613Y-120867555D01*
X151859045Y-120880489D01*
X151856083Y-120893166D01*
X151852726Y-120905585D01*
X151848973Y-120917747D01*
X151846252Y-120925711D01*
X151841878Y-120937420D01*
X151837182Y-120948824D01*
X151832164Y-120959923D01*
X151826823Y-120970717D01*
X151821161Y-120981206D01*
X151815177Y-120991391D01*
X151808871Y-121001270D01*
X151802243Y-121010845D01*
X151795292Y-121020115D01*
X151788020Y-121029080D01*
X151782993Y-121034888D01*
X151775202Y-121043271D01*
X151767122Y-121051294D01*
X151758755Y-121058956D01*
X151750101Y-121066258D01*
X151741158Y-121073199D01*
X151731928Y-121079779D01*
X151722411Y-121085999D01*
X151712605Y-121091857D01*
X151702513Y-121097356D01*
X151692132Y-121102494D01*
X151685052Y-121105718D01*
X151674263Y-121110170D01*
X151663239Y-121114185D01*
X151651978Y-121117761D01*
X151640481Y-121120899D01*
X151628748Y-121123600D01*
X151616779Y-121125863D01*
X151604574Y-121127687D01*
X151592133Y-121129074D01*
X151579455Y-121130023D01*
X151566542Y-121130534D01*
X151557801Y-121130631D01*
X151544728Y-121130412D01*
X151531887Y-121129755D01*
X151519277Y-121128660D01*
X151506900Y-121127128D01*
X151494754Y-121125157D01*
X151482840Y-121122748D01*
X151471158Y-121119902D01*
X151459707Y-121116618D01*
X151448489Y-121112895D01*
X151437502Y-121108735D01*
X151430307Y-121105718D01*
X151419771Y-121100821D01*
X151409507Y-121095563D01*
X151399513Y-121089945D01*
X151389789Y-121083965D01*
X151380336Y-121077626D01*
X151371153Y-121070925D01*
X151362241Y-121063864D01*
X151353599Y-121056442D01*
X151345228Y-121048660D01*
X151337127Y-121040517D01*
X151331877Y-121034888D01*
X151324259Y-121026126D01*
X151316976Y-121017059D01*
X151310028Y-121007687D01*
X151303415Y-120998011D01*
X151297136Y-120988030D01*
X151291193Y-120977744D01*
X151285585Y-120967153D01*
X151280311Y-120956257D01*
X151275372Y-120945056D01*
X151270768Y-120933551D01*
X151267885Y-120925711D01*
X151263869Y-120913721D01*
X151260249Y-120901474D01*
X151257023Y-120888969D01*
X151254192Y-120876206D01*
X151251756Y-120863186D01*
X151249716Y-120849908D01*
X151248070Y-120836373D01*
X151246819Y-120822580D01*
X151245963Y-120808529D01*
X151245502Y-120794221D01*
X151245428Y-120786004D01*
X151421270Y-120786004D01*
X151421393Y-120797257D01*
X151421762Y-120808238D01*
X151422377Y-120818949D01*
X151423239Y-120829388D01*
X151424346Y-120839557D01*
X151425700Y-120849454D01*
X151428193Y-120863792D01*
X151431239Y-120877521D01*
X151434839Y-120890640D01*
X151438992Y-120903149D01*
X151443700Y-120915049D01*
X151448962Y-120926339D01*
X151452777Y-120933527D01*
X151459069Y-120943610D01*
X151466040Y-120952701D01*
X151473690Y-120960800D01*
X151482017Y-120967908D01*
X151491023Y-120974024D01*
X151500708Y-120979148D01*
X151511070Y-120983280D01*
X151522111Y-120986421D01*
X151533831Y-120988570D01*
X151546228Y-120989727D01*
X151554870Y-120989947D01*
X151567264Y-120989451D01*
X151579073Y-120987964D01*
X151590299Y-120985484D01*
X151600941Y-120982013D01*
X151610999Y-120977550D01*
X151620473Y-120972095D01*
X151629363Y-120965649D01*
X151637669Y-120958211D01*
X151645391Y-120949781D01*
X151652529Y-120940359D01*
X151656964Y-120933527D01*
X151663118Y-120922643D01*
X151668668Y-120911150D01*
X151673611Y-120899047D01*
X151677950Y-120886335D01*
X151681683Y-120873013D01*
X151684810Y-120859081D01*
X151686559Y-120849454D01*
X151688039Y-120839557D01*
X151689250Y-120829388D01*
X151690191Y-120818949D01*
X151690864Y-120808238D01*
X151691268Y-120797257D01*
X151691402Y-120786004D01*
X151691278Y-120774755D01*
X151690906Y-120763782D01*
X151690286Y-120753086D01*
X151689418Y-120742667D01*
X151688301Y-120732524D01*
X151686937Y-120722658D01*
X151684425Y-120708377D01*
X151681356Y-120694720D01*
X151677728Y-120681684D01*
X151673542Y-120669272D01*
X151668798Y-120657481D01*
X151663495Y-120646314D01*
X151659651Y-120639214D01*
X151653402Y-120629262D01*
X151646470Y-120620289D01*
X151638856Y-120612295D01*
X151630559Y-120605280D01*
X151621579Y-120599244D01*
X151611917Y-120594186D01*
X151601573Y-120590107D01*
X151590545Y-120587008D01*
X151578835Y-120584887D01*
X151566442Y-120583745D01*
X151557801Y-120583527D01*
X151545408Y-120584017D01*
X151533598Y-120585485D01*
X151522373Y-120587932D01*
X151511731Y-120591358D01*
X151501673Y-120595763D01*
X151492199Y-120601147D01*
X151483309Y-120607510D01*
X151475003Y-120614851D01*
X151467281Y-120623172D01*
X151460142Y-120632471D01*
X151455708Y-120639214D01*
X151449553Y-120649967D01*
X151444004Y-120661342D01*
X151439060Y-120673340D01*
X151434722Y-120685960D01*
X151430989Y-120699203D01*
X151427861Y-120713068D01*
X151425339Y-120727556D01*
X151423994Y-120737561D01*
X151422917Y-120747842D01*
X151422110Y-120758399D01*
X151421572Y-120769234D01*
X151421303Y-120780345D01*
X151421270Y-120786004D01*
X151245428Y-120786004D01*
X151245415Y-120784539D01*
X151245619Y-120770364D01*
X151246230Y-120756418D01*
X151247250Y-120742698D01*
X151248678Y-120729206D01*
X151250513Y-120715942D01*
X151252756Y-120702906D01*
X151255407Y-120690096D01*
X151258466Y-120677515D01*
X151261933Y-120665161D01*
X151265808Y-120653034D01*
X151268618Y-120645076D01*
X151273129Y-120633374D01*
X151277963Y-120621990D01*
X151283119Y-120610923D01*
X151288596Y-120600174D01*
X151294396Y-120589742D01*
X151300517Y-120579629D01*
X151306961Y-120569833D01*
X151313726Y-120560355D01*
X151320814Y-120551194D01*
X151328224Y-120542351D01*
X151333342Y-120536632D01*
X151341269Y-120528345D01*
X151349479Y-120520427D01*
X151357973Y-120512877D01*
X151366750Y-120505698D01*
X151375810Y-120498887D01*
X151385154Y-120492445D01*
X151394781Y-120486373D01*
X151404692Y-120480670D01*
X151414885Y-120475337D01*
X151425363Y-120470372D01*
X151432505Y-120467267D01*
X151443400Y-120462903D01*
X151454472Y-120458967D01*
X151465720Y-120455461D01*
X151477144Y-120452384D01*
X151488744Y-120449736D01*
X151500520Y-120447518D01*
X151512472Y-120445729D01*
X151524600Y-120444370D01*
X151536904Y-120443439D01*
X151549384Y-120442939D01*
X151557801Y-120442843D01*
X151570610Y-120443058D01*
G37*
G36*
X151992798Y-120477770D02*
G01*
X152004739Y-120474675D01*
X152017359Y-120471618D01*
X152027271Y-120469350D01*
X152037564Y-120467104D01*
X152048239Y-120464880D01*
X152059297Y-120462676D01*
X152070736Y-120460495D01*
X152082558Y-120458334D01*
X152094762Y-120456196D01*
X152107348Y-120454078D01*
X152120274Y-120452071D01*
X152133405Y-120450260D01*
X152146743Y-120448647D01*
X152160287Y-120447232D01*
X152174037Y-120446014D01*
X152187994Y-120444994D01*
X152202156Y-120444171D01*
X152216524Y-120443545D01*
X152231099Y-120443117D01*
X152240929Y-120442942D01*
X152250852Y-120442854D01*
X152255847Y-120442843D01*
X152270403Y-120443034D01*
X152284487Y-120443607D01*
X152298098Y-120444563D01*
X152311237Y-120445900D01*
X152323904Y-120447620D01*
X152336098Y-120449721D01*
X152347821Y-120452205D01*
X152359071Y-120455071D01*
X152369848Y-120458318D01*
X152380154Y-120461949D01*
X152386762Y-120464581D01*
X152396323Y-120468818D01*
X152405498Y-120473376D01*
X152414286Y-120478257D01*
X152422688Y-120483460D01*
X152433290Y-120490898D01*
X152443205Y-120498908D01*
X152452432Y-120507491D01*
X152460973Y-120516647D01*
X152468827Y-120526374D01*
X152476124Y-120536568D01*
X152482871Y-120547242D01*
X152489069Y-120558397D01*
X152494717Y-120570033D01*
X152498592Y-120579075D01*
X152502159Y-120588388D01*
X152505416Y-120597972D01*
X152508364Y-120607825D01*
X152511003Y-120617950D01*
X152511814Y-120621385D01*
X152514084Y-120631842D01*
X152516130Y-120642514D01*
X152517953Y-120653400D01*
X152519553Y-120664501D01*
X152520930Y-120675817D01*
X152522084Y-120687347D01*
X152523014Y-120699093D01*
X152523721Y-120711052D01*
X152524204Y-120723227D01*
X152524465Y-120735616D01*
X152524515Y-120743995D01*
X152524515Y-121115000D01*
X152351591Y-121115000D01*
X152351591Y-120760115D01*
X152351508Y-120748567D01*
X152351259Y-120737431D01*
X152350844Y-120726707D01*
X152350262Y-120716395D01*
X152349515Y-120706496D01*
X152348084Y-120692419D01*
X152346278Y-120679270D01*
X152344099Y-120667049D01*
X152341547Y-120655754D01*
X152338621Y-120645387D01*
X152335322Y-120635948D01*
X152330341Y-120624804D01*
X152324407Y-120615130D01*
X152317107Y-120606745D01*
X152308440Y-120599651D01*
X152298407Y-120593846D01*
X152287007Y-120589332D01*
X152277561Y-120586792D01*
X152267347Y-120584978D01*
X152256364Y-120583890D01*
X152244612Y-120583527D01*
X152234766Y-120583619D01*
X152223799Y-120583941D01*
X152212947Y-120584494D01*
X152205778Y-120584993D01*
X152194907Y-120585913D01*
X152184985Y-120586894D01*
X152174818Y-120588028D01*
X152165722Y-120589145D01*
X152165722Y-121115000D01*
X151992798Y-121115000D01*
X151992798Y-120477770D01*
G37*
G36*
X152804905Y-120599159D02*
G01*
X152654207Y-120599159D01*
X152654207Y-120458475D01*
X152804905Y-120458475D01*
X152804905Y-120302159D01*
X152977829Y-120270896D01*
X152977829Y-120458475D01*
X153255045Y-120458475D01*
X153255045Y-120599159D01*
X152977829Y-120599159D01*
X152977829Y-120872222D01*
X152978002Y-120883548D01*
X152978521Y-120894171D01*
X152979386Y-120904089D01*
X152980880Y-120915063D01*
X152982872Y-120925024D01*
X152984912Y-120932550D01*
X152988268Y-120942115D01*
X152992733Y-120951874D01*
X152997870Y-120960380D01*
X153004452Y-120968454D01*
X153012040Y-120975059D01*
X153020517Y-120980312D01*
X153029883Y-120984212D01*
X153035471Y-120985795D01*
X153046103Y-120987802D01*
X153056105Y-120989035D01*
X153066627Y-120989748D01*
X153076259Y-120989947D01*
X153086556Y-120989889D01*
X153096502Y-120989713D01*
X153107439Y-120989370D01*
X153117919Y-120988874D01*
X153120467Y-120988726D01*
X153130634Y-120987871D01*
X153140617Y-120986772D01*
X153150417Y-120985429D01*
X153160034Y-120983841D01*
X153169636Y-120981796D01*
X153179391Y-120979323D01*
X153189298Y-120976422D01*
X153199357Y-120973094D01*
X153209829Y-120969293D01*
X153219343Y-120965542D01*
X153229184Y-120961393D01*
X153239352Y-120956846D01*
X153243810Y-120954776D01*
X153267745Y-121096437D01*
X153255655Y-121100852D01*
X153243321Y-121104940D01*
X153233910Y-121107790D01*
X153224362Y-121110455D01*
X153214676Y-121112936D01*
X153204853Y-121115232D01*
X153194892Y-121117344D01*
X153184795Y-121119271D01*
X153174559Y-121121013D01*
X153164187Y-121122571D01*
X153153821Y-121124011D01*
X153143516Y-121125310D01*
X153133270Y-121126467D01*
X153123085Y-121127483D01*
X153112960Y-121128356D01*
X153102895Y-121129088D01*
X153092890Y-121129679D01*
X153082945Y-121130127D01*
X153073061Y-121130434D01*
X153063236Y-121130600D01*
X153056720Y-121130631D01*
X153045487Y-121130545D01*
X153034503Y-121130288D01*
X153023768Y-121129858D01*
X153013283Y-121129257D01*
X153003046Y-121128484D01*
X152993058Y-121127540D01*
X152983319Y-121126424D01*
X152970722Y-121124668D01*
X152958567Y-121122607D01*
X152949741Y-121120861D01*
X152938357Y-121118133D01*
X152927408Y-121114832D01*
X152916894Y-121110958D01*
X152906816Y-121106512D01*
X152897172Y-121101494D01*
X152887963Y-121095903D01*
X152879189Y-121089739D01*
X152870851Y-121083004D01*
X152863031Y-121075623D01*
X152855693Y-121067525D01*
X152848835Y-121058709D01*
X152842458Y-121049176D01*
X152836561Y-121038925D01*
X152831146Y-121027957D01*
X152826212Y-121016272D01*
X152822826Y-121007037D01*
X152821758Y-121003869D01*
X152818746Y-120993975D01*
X152816031Y-120983527D01*
X152813611Y-120972526D01*
X152811488Y-120960970D01*
X152809662Y-120948861D01*
X152808131Y-120936198D01*
X152806897Y-120922980D01*
X152805959Y-120909210D01*
X152805317Y-120894885D01*
X152805053Y-120885027D01*
X152804922Y-120874924D01*
X152804905Y-120869780D01*
X152804905Y-120599159D01*
G37*
G36*
X153917920Y-120605997D02*
G01*
X153907938Y-120603662D01*
X153898222Y-120601586D01*
X153887712Y-120599510D01*
X153877864Y-120597693D01*
X153867678Y-120595816D01*
X153857421Y-120594033D01*
X153847095Y-120592344D01*
X153836698Y-120590747D01*
X153830725Y-120589877D01*
X153820323Y-120588391D01*
X153810062Y-120587139D01*
X153799941Y-120586121D01*
X153789960Y-120585336D01*
X153784319Y-120584993D01*
X153773527Y-120584351D01*
X153763620Y-120583893D01*
X153753532Y-120583597D01*
X153746461Y-120583527D01*
X153735048Y-120583617D01*
X153723707Y-120583885D01*
X153712437Y-120584332D01*
X153701238Y-120584958D01*
X153690111Y-120585763D01*
X153679056Y-120586747D01*
X153674654Y-120587191D01*
X153663627Y-120588497D01*
X153652529Y-120590124D01*
X153641359Y-120592074D01*
X153630118Y-120594346D01*
X153618805Y-120596940D01*
X153607421Y-120599856D01*
X153602847Y-120601113D01*
X153602847Y-121115000D01*
X153428457Y-121115000D01*
X153428457Y-120499019D01*
X153441402Y-120494344D01*
X153454406Y-120489846D01*
X153467471Y-120485523D01*
X153480595Y-120481376D01*
X153493780Y-120477406D01*
X153507025Y-120473611D01*
X153520330Y-120469993D01*
X153533695Y-120466550D01*
X153547121Y-120463283D01*
X153560606Y-120460193D01*
X153569630Y-120458230D01*
X153583448Y-120455481D01*
X153597699Y-120453001D01*
X153607441Y-120451499D01*
X153617376Y-120450116D01*
X153627504Y-120448854D01*
X153637824Y-120447712D01*
X153648337Y-120446690D01*
X153659043Y-120445788D01*
X153669941Y-120445007D01*
X153681032Y-120444346D01*
X153692316Y-120443805D01*
X153703792Y-120443384D01*
X153715462Y-120443084D01*
X153727324Y-120442903D01*
X153739378Y-120442843D01*
X153749272Y-120442962D01*
X153760216Y-120443274D01*
X153770063Y-120443649D01*
X153779434Y-120444064D01*
X153789346Y-120444582D01*
X153799481Y-120445221D01*
X153809840Y-120445979D01*
X153820421Y-120446858D01*
X153831226Y-120447857D01*
X153834877Y-120448217D01*
X153845986Y-120449359D01*
X153857145Y-120450586D01*
X153868357Y-120451900D01*
X153879620Y-120453300D01*
X153890934Y-120454785D01*
X153894717Y-120455300D01*
X153905851Y-120456968D01*
X153916538Y-120458860D01*
X153926779Y-120460975D01*
X153936574Y-120463314D01*
X153947437Y-120466324D01*
X153948939Y-120466779D01*
X153917920Y-120605997D01*
G37*
G36*
X154368657Y-120443058D02*
G01*
X154381255Y-120443702D01*
X154393644Y-120444775D01*
X154405822Y-120446278D01*
X154417789Y-120448210D01*
X154429547Y-120450571D01*
X154441094Y-120453362D01*
X154452430Y-120456582D01*
X154463556Y-120460231D01*
X154474472Y-120464310D01*
X154481632Y-120467267D01*
X154492211Y-120471986D01*
X154502515Y-120477073D01*
X154512544Y-120482530D01*
X154522299Y-120488356D01*
X154531779Y-120494552D01*
X154540983Y-120501116D01*
X154549914Y-120508050D01*
X154558569Y-120515353D01*
X154566950Y-120523025D01*
X154575055Y-120531066D01*
X154580307Y-120536632D01*
X154587924Y-120545263D01*
X154595207Y-120554212D01*
X154602155Y-120563479D01*
X154608768Y-120573063D01*
X154615047Y-120582965D01*
X154620990Y-120593184D01*
X154626599Y-120603721D01*
X154631872Y-120614576D01*
X154636811Y-120625749D01*
X154641415Y-120637240D01*
X154644298Y-120645076D01*
X154648314Y-120657051D01*
X154651935Y-120669253D01*
X154655160Y-120681683D01*
X154657991Y-120694341D01*
X154660427Y-120707226D01*
X154662468Y-120720338D01*
X154664113Y-120733678D01*
X154665364Y-120747246D01*
X154666220Y-120761041D01*
X154666681Y-120775064D01*
X154666769Y-120784539D01*
X154666571Y-120799019D01*
X154665979Y-120813241D01*
X154664991Y-120827206D01*
X154663609Y-120840913D01*
X154661831Y-120854363D01*
X154659659Y-120867555D01*
X154657091Y-120880489D01*
X154654129Y-120893166D01*
X154650772Y-120905585D01*
X154647019Y-120917747D01*
X154644298Y-120925711D01*
X154639924Y-120937420D01*
X154635228Y-120948824D01*
X154630210Y-120959923D01*
X154624869Y-120970717D01*
X154619207Y-120981206D01*
X154613223Y-120991391D01*
X154606917Y-121001270D01*
X154600289Y-121010845D01*
X154593338Y-121020115D01*
X154586066Y-121029080D01*
X154581039Y-121034888D01*
X154573248Y-121043271D01*
X154565168Y-121051294D01*
X154556801Y-121058956D01*
X154548147Y-121066258D01*
X154539204Y-121073199D01*
X154529974Y-121079779D01*
X154520457Y-121085999D01*
X154510652Y-121091857D01*
X154500559Y-121097356D01*
X154490178Y-121102494D01*
X154483098Y-121105718D01*
X154472309Y-121110170D01*
X154461285Y-121114185D01*
X154450024Y-121117761D01*
X154438527Y-121120899D01*
X154426794Y-121123600D01*
X154414825Y-121125863D01*
X154402620Y-121127687D01*
X154390179Y-121129074D01*
X154377501Y-121130023D01*
X154364588Y-121130534D01*
X154355847Y-121130631D01*
X154342774Y-121130412D01*
X154329933Y-121129755D01*
X154317323Y-121128660D01*
X154304946Y-121127128D01*
X154292800Y-121125157D01*
X154280886Y-121122748D01*
X154269204Y-121119902D01*
X154257753Y-121116618D01*
X154246535Y-121112895D01*
X154235548Y-121108735D01*
X154228353Y-121105718D01*
X154217817Y-121100821D01*
X154207553Y-121095563D01*
X154197559Y-121089945D01*
X154187835Y-121083965D01*
X154178382Y-121077626D01*
X154169199Y-121070925D01*
X154160287Y-121063864D01*
X154151645Y-121056442D01*
X154143274Y-121048660D01*
X154135173Y-121040517D01*
X154129923Y-121034888D01*
X154122305Y-121026126D01*
X154115022Y-121017059D01*
X154108074Y-121007687D01*
X154101461Y-120998011D01*
X154095183Y-120988030D01*
X154089239Y-120977744D01*
X154083631Y-120967153D01*
X154078357Y-120956257D01*
X154073418Y-120945056D01*
X154068814Y-120933551D01*
X154065931Y-120925711D01*
X154061915Y-120913721D01*
X154058295Y-120901474D01*
X154055069Y-120888969D01*
X154052238Y-120876206D01*
X154049802Y-120863186D01*
X154047762Y-120849908D01*
X154046116Y-120836373D01*
X154044865Y-120822580D01*
X154044009Y-120808529D01*
X154043549Y-120794221D01*
X154043474Y-120786004D01*
X154219316Y-120786004D01*
X154219439Y-120797257D01*
X154219808Y-120808238D01*
X154220423Y-120818949D01*
X154221285Y-120829388D01*
X154222393Y-120839557D01*
X154223746Y-120849454D01*
X154226239Y-120863792D01*
X154229285Y-120877521D01*
X154232885Y-120890640D01*
X154237038Y-120903149D01*
X154241746Y-120915049D01*
X154247008Y-120926339D01*
X154250823Y-120933527D01*
X154257116Y-120943610D01*
X154264086Y-120952701D01*
X154271736Y-120960800D01*
X154280063Y-120967908D01*
X154289069Y-120974024D01*
X154298754Y-120979148D01*
X154309116Y-120983280D01*
X154320157Y-120986421D01*
X154331877Y-120988570D01*
X154344274Y-120989727D01*
X154352916Y-120989947D01*
X154365310Y-120989451D01*
X154377119Y-120987964D01*
X154388345Y-120985484D01*
X154398987Y-120982013D01*
X154409045Y-120977550D01*
X154418519Y-120972095D01*
X154427409Y-120965649D01*
X154435715Y-120958211D01*
X154443437Y-120949781D01*
X154450575Y-120940359D01*
X154455010Y-120933527D01*
X154461164Y-120922643D01*
X154466714Y-120911150D01*
X154471657Y-120899047D01*
X154475996Y-120886335D01*
X154479729Y-120873013D01*
X154482857Y-120859081D01*
X154484605Y-120849454D01*
X154486085Y-120839557D01*
X154487296Y-120829388D01*
X154488237Y-120818949D01*
X154488910Y-120808238D01*
X154489314Y-120797257D01*
X154489448Y-120786004D01*
X154489324Y-120774755D01*
X154488952Y-120763782D01*
X154488332Y-120753086D01*
X154487464Y-120742667D01*
X154486347Y-120732524D01*
X154484983Y-120722658D01*
X154482472Y-120708377D01*
X154479402Y-120694720D01*
X154475774Y-120681684D01*
X154471588Y-120669272D01*
X154466844Y-120657481D01*
X154461542Y-120646314D01*
X154457697Y-120639214D01*
X154451448Y-120629262D01*
X154444516Y-120620289D01*
X154436902Y-120612295D01*
X154428605Y-120605280D01*
X154419626Y-120599244D01*
X154409963Y-120594186D01*
X154399619Y-120590107D01*
X154388591Y-120587008D01*
X154376881Y-120584887D01*
X154364488Y-120583745D01*
X154355847Y-120583527D01*
X154343454Y-120584017D01*
X154331644Y-120585485D01*
X154320419Y-120587932D01*
X154309777Y-120591358D01*
X154299719Y-120595763D01*
X154290245Y-120601147D01*
X154281355Y-120607510D01*
X154273049Y-120614851D01*
X154265327Y-120623172D01*
X154258188Y-120632471D01*
X154253754Y-120639214D01*
X154247599Y-120649967D01*
X154242050Y-120661342D01*
X154237106Y-120673340D01*
X154232768Y-120685960D01*
X154229035Y-120699203D01*
X154225907Y-120713068D01*
X154223385Y-120727556D01*
X154222040Y-120737561D01*
X154220964Y-120747842D01*
X154220156Y-120758399D01*
X154219618Y-120769234D01*
X154219349Y-120780345D01*
X154219316Y-120786004D01*
X154043474Y-120786004D01*
X154043461Y-120784539D01*
X154043665Y-120770364D01*
X154044277Y-120756418D01*
X154045296Y-120742698D01*
X154046724Y-120729206D01*
X154048559Y-120715942D01*
X154050802Y-120702906D01*
X154053453Y-120690096D01*
X154056512Y-120677515D01*
X154059979Y-120665161D01*
X154063854Y-120653034D01*
X154066664Y-120645076D01*
X154071175Y-120633374D01*
X154076009Y-120621990D01*
X154081165Y-120610923D01*
X154086642Y-120600174D01*
X154092442Y-120589742D01*
X154098563Y-120579629D01*
X154105007Y-120569833D01*
X154111772Y-120560355D01*
X154118860Y-120551194D01*
X154126270Y-120542351D01*
X154131388Y-120536632D01*
X154139315Y-120528345D01*
X154147525Y-120520427D01*
X154156019Y-120512877D01*
X154164796Y-120505698D01*
X154173856Y-120498887D01*
X154183200Y-120492445D01*
X154192827Y-120486373D01*
X154202738Y-120480670D01*
X154212931Y-120475337D01*
X154223409Y-120470372D01*
X154230551Y-120467267D01*
X154241447Y-120462903D01*
X154252518Y-120458967D01*
X154263766Y-120455461D01*
X154275190Y-120452384D01*
X154286790Y-120449736D01*
X154298566Y-120447518D01*
X154310518Y-120445729D01*
X154322646Y-120444370D01*
X154334950Y-120443439D01*
X154347430Y-120442939D01*
X154355847Y-120442843D01*
X154368657Y-120443058D01*
G37*
G36*
X155359197Y-121089598D02*
G01*
X155350478Y-121094166D01*
X155341067Y-121098471D01*
X155340146Y-121098879D01*
X155330081Y-121103073D01*
X155320723Y-121106530D01*
X155310205Y-121110079D01*
X155301556Y-121112801D01*
X155290581Y-121115902D01*
X155280375Y-121118392D01*
X155269429Y-121120728D01*
X155259744Y-121122556D01*
X155249546Y-121124277D01*
X155243182Y-121125258D01*
X155232193Y-121126806D01*
X155220751Y-121128091D01*
X155208856Y-121129115D01*
X155199014Y-121129744D01*
X155188882Y-121130206D01*
X155178460Y-121130500D01*
X155167747Y-121130626D01*
X155165024Y-121130631D01*
X155150317Y-121130352D01*
X155136115Y-121129517D01*
X155122420Y-121128124D01*
X155109230Y-121126174D01*
X155096545Y-121123666D01*
X155084367Y-121120602D01*
X155072693Y-121116980D01*
X155061526Y-121112801D01*
X155050864Y-121108065D01*
X155040708Y-121102772D01*
X155031058Y-121096922D01*
X155021913Y-121090514D01*
X155013274Y-121083549D01*
X155005140Y-121076028D01*
X154997512Y-121067948D01*
X154990390Y-121059312D01*
X154983765Y-121050111D01*
X154977568Y-121040399D01*
X154971797Y-121030175D01*
X154966454Y-121019439D01*
X154961539Y-121008193D01*
X154957051Y-120996435D01*
X154952991Y-120984165D01*
X154949357Y-120971385D01*
X154946152Y-120958093D01*
X154943374Y-120944289D01*
X154941023Y-120929974D01*
X154939099Y-120915148D01*
X154937603Y-120899810D01*
X154936535Y-120883961D01*
X154935894Y-120867601D01*
X154935680Y-120850729D01*
X154935680Y-120286528D01*
X154752742Y-120286528D01*
X154752742Y-120145844D01*
X155108848Y-120145844D01*
X155108848Y-120872955D01*
X155109082Y-120885433D01*
X155109784Y-120897129D01*
X155110954Y-120908044D01*
X155112592Y-120918178D01*
X155115504Y-120930474D01*
X155119247Y-120941381D01*
X155123823Y-120950899D01*
X155130713Y-120960843D01*
X155135471Y-120965767D01*
X155144206Y-120972733D01*
X155153622Y-120978518D01*
X155163717Y-120983123D01*
X155174492Y-120986547D01*
X155185947Y-120988790D01*
X155198082Y-120989853D01*
X155203126Y-120989947D01*
X155215868Y-120989737D01*
X155228084Y-120989108D01*
X155239774Y-120988058D01*
X155250936Y-120986589D01*
X155261572Y-120984700D01*
X155271682Y-120982391D01*
X155281264Y-120979662D01*
X155290321Y-120976514D01*
X155300727Y-120972472D01*
X155309965Y-120968896D01*
X155319508Y-120965218D01*
X155329613Y-120961355D01*
X155336727Y-120958684D01*
X155359197Y-121089598D01*
G37*
G36*
X156058709Y-121089598D02*
G01*
X156049989Y-121094166D01*
X156040578Y-121098471D01*
X156039658Y-121098879D01*
X156029592Y-121103073D01*
X156020235Y-121106530D01*
X156009717Y-121110079D01*
X156001067Y-121112801D01*
X155990093Y-121115902D01*
X155979886Y-121118392D01*
X155968941Y-121120728D01*
X155959256Y-121122556D01*
X155949058Y-121124277D01*
X155942693Y-121125258D01*
X155931705Y-121126806D01*
X155920263Y-121128091D01*
X155908368Y-121129115D01*
X155898526Y-121129744D01*
X155888393Y-121130206D01*
X155877971Y-121130500D01*
X155867259Y-121130626D01*
X155864535Y-121130631D01*
X155849828Y-121130352D01*
X155835627Y-121129517D01*
X155821931Y-121128124D01*
X155808741Y-121126174D01*
X155796057Y-121123666D01*
X155783878Y-121120602D01*
X155772205Y-121116980D01*
X155761038Y-121112801D01*
X155750376Y-121108065D01*
X155740220Y-121102772D01*
X155730569Y-121096922D01*
X155721424Y-121090514D01*
X155712785Y-121083549D01*
X155704652Y-121076028D01*
X155697024Y-121067948D01*
X155689902Y-121059312D01*
X155683277Y-121050111D01*
X155677079Y-121040399D01*
X155671309Y-121030175D01*
X155665966Y-121019439D01*
X155661051Y-121008193D01*
X155656563Y-120996435D01*
X155652502Y-120984165D01*
X155648869Y-120971385D01*
X155645663Y-120958093D01*
X155642885Y-120944289D01*
X155640534Y-120929974D01*
X155638611Y-120915148D01*
X155637115Y-120899810D01*
X155636046Y-120883961D01*
X155635405Y-120867601D01*
X155635191Y-120850729D01*
X155635191Y-120286528D01*
X155452254Y-120286528D01*
X155452254Y-120145844D01*
X155808360Y-120145844D01*
X155808360Y-120872955D01*
X155808594Y-120885433D01*
X155809296Y-120897129D01*
X155810465Y-120908044D01*
X155812103Y-120918178D01*
X155815015Y-120930474D01*
X155818759Y-120941381D01*
X155823335Y-120950899D01*
X155830224Y-120960843D01*
X155834982Y-120965767D01*
X155843718Y-120972733D01*
X155853133Y-120978518D01*
X155863229Y-120983123D01*
X155874004Y-120986547D01*
X155885459Y-120988790D01*
X155897593Y-120989853D01*
X155902637Y-120989947D01*
X155915380Y-120989737D01*
X155927596Y-120989108D01*
X155939285Y-120988058D01*
X155950448Y-120986589D01*
X155961084Y-120984700D01*
X155971193Y-120982391D01*
X155980776Y-120979662D01*
X155989832Y-120976514D01*
X156000239Y-120972472D01*
X156009476Y-120968896D01*
X156019019Y-120965218D01*
X156029125Y-120961355D01*
X156036238Y-120958684D01*
X156058709Y-121089598D01*
G37*
G36*
X156475325Y-120443197D02*
G01*
X156492785Y-120444259D01*
X156509694Y-120446029D01*
X156526052Y-120448507D01*
X156541858Y-120451692D01*
X156557113Y-120455586D01*
X156571816Y-120460187D01*
X156585968Y-120465497D01*
X156599568Y-120471514D01*
X156612617Y-120478239D01*
X156625114Y-120485673D01*
X156637060Y-120493814D01*
X156648455Y-120502663D01*
X156659298Y-120512220D01*
X156669589Y-120522484D01*
X156679330Y-120533457D01*
X156688528Y-120545078D01*
X156697133Y-120557347D01*
X156705144Y-120570265D01*
X156712562Y-120583832D01*
X156719386Y-120598048D01*
X156725617Y-120612913D01*
X156731255Y-120628426D01*
X156736299Y-120644588D01*
X156740750Y-120661399D01*
X156744607Y-120678858D01*
X156747871Y-120696966D01*
X156750542Y-120715724D01*
X156752619Y-120735129D01*
X156753435Y-120745076D01*
X156754102Y-120755184D01*
X156754621Y-120765455D01*
X156754992Y-120775887D01*
X156755215Y-120786482D01*
X156755289Y-120797240D01*
X156755231Y-120807267D01*
X156755057Y-120817564D01*
X156754767Y-120828132D01*
X156754556Y-120834120D01*
X156754204Y-120844257D01*
X156753632Y-120854160D01*
X156752693Y-120864155D01*
X156752602Y-120864895D01*
X156323468Y-120864895D01*
X156323938Y-120875577D01*
X156325348Y-120885826D01*
X156327699Y-120895642D01*
X156330990Y-120905023D01*
X156335221Y-120913971D01*
X156340392Y-120922486D01*
X156346504Y-120930566D01*
X156353555Y-120938213D01*
X156361547Y-120945427D01*
X156370480Y-120952207D01*
X156376957Y-120956486D01*
X156387257Y-120962466D01*
X156398097Y-120967857D01*
X156409479Y-120972661D01*
X156421401Y-120976876D01*
X156433865Y-120980504D01*
X156446870Y-120983542D01*
X156460415Y-120985993D01*
X156474501Y-120987856D01*
X156489129Y-120989130D01*
X156499181Y-120989653D01*
X156509473Y-120989914D01*
X156514710Y-120989947D01*
X156527697Y-120989787D01*
X156540523Y-120989306D01*
X156553190Y-120988505D01*
X156565696Y-120987383D01*
X156578041Y-120985940D01*
X156590227Y-120984177D01*
X156602252Y-120982093D01*
X156614117Y-120979689D01*
X156625669Y-120977063D01*
X156636755Y-120974438D01*
X156647376Y-120971812D01*
X156657531Y-120969187D01*
X156667220Y-120966561D01*
X156678678Y-120963279D01*
X156689407Y-120959997D01*
X156693496Y-120958684D01*
X156717431Y-121096437D01*
X156706105Y-121099967D01*
X156694595Y-121103352D01*
X156682902Y-121106592D01*
X156671025Y-121109687D01*
X156658966Y-121112637D01*
X156646723Y-121115442D01*
X156634297Y-121118102D01*
X156621688Y-121120617D01*
X156608850Y-121122964D01*
X156598961Y-121124519D01*
X156588849Y-121125898D01*
X156578514Y-121127101D01*
X156567955Y-121128128D01*
X156557173Y-121128978D01*
X156546168Y-121129653D01*
X156534939Y-121130152D01*
X156523487Y-121130475D01*
X156511812Y-121130621D01*
X156507871Y-121130631D01*
X156497376Y-121130547D01*
X156487019Y-121130295D01*
X156476799Y-121129875D01*
X156466716Y-121129288D01*
X156456771Y-121128532D01*
X156446963Y-121127609D01*
X156432509Y-121125908D01*
X156418364Y-121123830D01*
X156404528Y-121121375D01*
X156391001Y-121118541D01*
X156377783Y-121115330D01*
X156364875Y-121111740D01*
X156356441Y-121109138D01*
X156344110Y-121104879D01*
X156332123Y-121100256D01*
X156320480Y-121095268D01*
X156309180Y-121089915D01*
X156298223Y-121084197D01*
X156287610Y-121078114D01*
X156277340Y-121071666D01*
X156267414Y-121064853D01*
X156257831Y-121057676D01*
X156248592Y-121050133D01*
X156242623Y-121044902D01*
X156233976Y-121036712D01*
X156225711Y-121028169D01*
X156217827Y-121019275D01*
X156210326Y-121010029D01*
X156203207Y-121000430D01*
X156196470Y-120990480D01*
X156190115Y-120980177D01*
X156184142Y-120969522D01*
X156178552Y-120958516D01*
X156173343Y-120947157D01*
X156170083Y-120939389D01*
X156165587Y-120927437D01*
X156161534Y-120915120D01*
X156157922Y-120902438D01*
X156154753Y-120889392D01*
X156152026Y-120875980D01*
X156149741Y-120862203D01*
X156147899Y-120848062D01*
X156146499Y-120833555D01*
X156145811Y-120823682D01*
X156145319Y-120813646D01*
X156145024Y-120803448D01*
X156144926Y-120793087D01*
X156145030Y-120782362D01*
X156145342Y-120771800D01*
X156145862Y-120761403D01*
X156146590Y-120751169D01*
X156147526Y-120741100D01*
X156148670Y-120731195D01*
X156149639Y-120724211D01*
X156323468Y-120724211D01*
X156587983Y-120724211D01*
X156587734Y-120714130D01*
X156586987Y-120704221D01*
X156585742Y-120694484D01*
X156583660Y-120683341D01*
X156580900Y-120672431D01*
X156577404Y-120661778D01*
X156573113Y-120651615D01*
X156568027Y-120641942D01*
X156562146Y-120632761D01*
X156558429Y-120627735D01*
X156551288Y-120619358D01*
X156543329Y-120611753D01*
X156534552Y-120604920D01*
X156524957Y-120598857D01*
X156519106Y-120595739D01*
X156509735Y-120591589D01*
X156499574Y-120588297D01*
X156488624Y-120585865D01*
X156478894Y-120584493D01*
X156468617Y-120583718D01*
X156460000Y-120583527D01*
X156449687Y-120583807D01*
X156439816Y-120584648D01*
X156428553Y-120586397D01*
X156417926Y-120588953D01*
X156407934Y-120592316D01*
X156401625Y-120595006D01*
X156392667Y-120599529D01*
X156384292Y-120604669D01*
X156375259Y-120611448D01*
X156367021Y-120619068D01*
X156360593Y-120626270D01*
X156353879Y-120635205D01*
X156347843Y-120644702D01*
X156342486Y-120654760D01*
X156338433Y-120663828D01*
X156335436Y-120671699D01*
X156332261Y-120681284D01*
X156329517Y-120690990D01*
X156327201Y-120700816D01*
X156325315Y-120710762D01*
X156323858Y-120720829D01*
X156323468Y-120724211D01*
X156149639Y-120724211D01*
X156150022Y-120721454D01*
X156152440Y-120707150D01*
X156155326Y-120693215D01*
X156158679Y-120679650D01*
X156162501Y-120666453D01*
X156166791Y-120653626D01*
X156171549Y-120641168D01*
X156176732Y-120629040D01*
X156182208Y-120617295D01*
X156187975Y-120605931D01*
X156194034Y-120594949D01*
X156200386Y-120584350D01*
X156207029Y-120574132D01*
X156213964Y-120564297D01*
X156221191Y-120554844D01*
X156228710Y-120545773D01*
X156236521Y-120537084D01*
X156241891Y-120531503D01*
X156250198Y-120523451D01*
X156258723Y-120515781D01*
X156267468Y-120508493D01*
X156276432Y-120501587D01*
X156285615Y-120495064D01*
X156295016Y-120488922D01*
X156304637Y-120483163D01*
X156314477Y-120477785D01*
X156324535Y-120472790D01*
X156334813Y-120468177D01*
X156341786Y-120465314D01*
X156352388Y-120461298D01*
X156363038Y-120457677D01*
X156373735Y-120454451D01*
X156384479Y-120451621D01*
X156395270Y-120449185D01*
X156406109Y-120447144D01*
X156416994Y-120445498D01*
X156427927Y-120444248D01*
X156438908Y-120443392D01*
X156449935Y-120442931D01*
X156457313Y-120442843D01*
X156475325Y-120443197D01*
G37*
G36*
X157415478Y-120605997D02*
G01*
X157405496Y-120603662D01*
X157395779Y-120601586D01*
X157385269Y-120599510D01*
X157375422Y-120597693D01*
X157365235Y-120595816D01*
X157354979Y-120594033D01*
X157344652Y-120592344D01*
X157334255Y-120590747D01*
X157328283Y-120589877D01*
X157317881Y-120588391D01*
X157307619Y-120587139D01*
X157297498Y-120586121D01*
X157287517Y-120585336D01*
X157281877Y-120584993D01*
X157271084Y-120584351D01*
X157261177Y-120583893D01*
X157251090Y-120583597D01*
X157244019Y-120583527D01*
X157232606Y-120583617D01*
X157221264Y-120583885D01*
X157209994Y-120584332D01*
X157198796Y-120584958D01*
X157187669Y-120585763D01*
X157176614Y-120586747D01*
X157172212Y-120587191D01*
X157161185Y-120588497D01*
X157150087Y-120590124D01*
X157138917Y-120592074D01*
X157127675Y-120594346D01*
X157116363Y-120596940D01*
X157104978Y-120599856D01*
X157100404Y-120601113D01*
X157100404Y-121115000D01*
X156926015Y-121115000D01*
X156926015Y-120499019D01*
X156938959Y-120494344D01*
X156951964Y-120489846D01*
X156965028Y-120485523D01*
X156978153Y-120481376D01*
X156991338Y-120477406D01*
X157004583Y-120473611D01*
X157017888Y-120469993D01*
X157031253Y-120466550D01*
X157044678Y-120463283D01*
X157058164Y-120460193D01*
X157067187Y-120458230D01*
X157081005Y-120455481D01*
X157095257Y-120453001D01*
X157104999Y-120451499D01*
X157114934Y-120450116D01*
X157125061Y-120448854D01*
X157135382Y-120447712D01*
X157145894Y-120446690D01*
X157156600Y-120445788D01*
X157167499Y-120445007D01*
X157178590Y-120444346D01*
X157189873Y-120443805D01*
X157201350Y-120443384D01*
X157213019Y-120443084D01*
X157224881Y-120442903D01*
X157236936Y-120442843D01*
X157246830Y-120442962D01*
X157257773Y-120443274D01*
X157267621Y-120443649D01*
X157276992Y-120444064D01*
X157286904Y-120444582D01*
X157297039Y-120445221D01*
X157307397Y-120445979D01*
X157317979Y-120446858D01*
X157328784Y-120447857D01*
X157332435Y-120448217D01*
X157343543Y-120449359D01*
X157354703Y-120450586D01*
X157365914Y-120451900D01*
X157377177Y-120453300D01*
X157388492Y-120454785D01*
X157392274Y-120455300D01*
X157403408Y-120456968D01*
X157414096Y-120458860D01*
X157424337Y-120460975D01*
X157434132Y-120463314D01*
X157444994Y-120466324D01*
X157446496Y-120466779D01*
X157415478Y-120605997D01*
G37*
D11*
X147153333Y-107134819D02*
X146820000Y-106658628D01*
X146581905Y-107134819D02*
X146581905Y-106134819D01*
X146581905Y-106134819D02*
X146962857Y-106134819D01*
X146962857Y-106134819D02*
X147058095Y-106182438D01*
X147058095Y-106182438D02*
X147105714Y-106230057D01*
X147105714Y-106230057D02*
X147153333Y-106325295D01*
X147153333Y-106325295D02*
X147153333Y-106468152D01*
X147153333Y-106468152D02*
X147105714Y-106563390D01*
X147105714Y-106563390D02*
X147058095Y-106611009D01*
X147058095Y-106611009D02*
X146962857Y-106658628D01*
X146962857Y-106658628D02*
X146581905Y-106658628D01*
X147486667Y-106134819D02*
X148153333Y-106134819D01*
X148153333Y-106134819D02*
X147724762Y-107134819D01*
X148582142Y-101419819D02*
X148248809Y-100943628D01*
X148010714Y-101419819D02*
X148010714Y-100419819D01*
X148010714Y-100419819D02*
X148391666Y-100419819D01*
X148391666Y-100419819D02*
X148486904Y-100467438D01*
X148486904Y-100467438D02*
X148534523Y-100515057D01*
X148534523Y-100515057D02*
X148582142Y-100610295D01*
X148582142Y-100610295D02*
X148582142Y-100753152D01*
X148582142Y-100753152D02*
X148534523Y-100848390D01*
X148534523Y-100848390D02*
X148486904Y-100896009D01*
X148486904Y-100896009D02*
X148391666Y-100943628D01*
X148391666Y-100943628D02*
X148010714Y-100943628D01*
X149534523Y-101419819D02*
X148963095Y-101419819D01*
X149248809Y-101419819D02*
X149248809Y-100419819D01*
X149248809Y-100419819D02*
X149153571Y-100562676D01*
X149153571Y-100562676D02*
X149058333Y-100657914D01*
X149058333Y-100657914D02*
X148963095Y-100705533D01*
X150439285Y-100419819D02*
X149963095Y-100419819D01*
X149963095Y-100419819D02*
X149915476Y-100896009D01*
X149915476Y-100896009D02*
X149963095Y-100848390D01*
X149963095Y-100848390D02*
X150058333Y-100800771D01*
X150058333Y-100800771D02*
X150296428Y-100800771D01*
X150296428Y-100800771D02*
X150391666Y-100848390D01*
X150391666Y-100848390D02*
X150439285Y-100896009D01*
X150439285Y-100896009D02*
X150486904Y-100991247D01*
X150486904Y-100991247D02*
X150486904Y-101229342D01*
X150486904Y-101229342D02*
X150439285Y-101324580D01*
X150439285Y-101324580D02*
X150391666Y-101372200D01*
X150391666Y-101372200D02*
X150296428Y-101419819D01*
X150296428Y-101419819D02*
X150058333Y-101419819D01*
X150058333Y-101419819D02*
X149963095Y-101372200D01*
X149963095Y-101372200D02*
X149915476Y-101324580D01*
X143414761Y-118025057D02*
X143319523Y-117977438D01*
X143319523Y-117977438D02*
X143224285Y-117882200D01*
X143224285Y-117882200D02*
X143081428Y-117739342D01*
X143081428Y-117739342D02*
X142986190Y-117691723D01*
X142986190Y-117691723D02*
X142890952Y-117691723D01*
X142938571Y-117929819D02*
X142843333Y-117882200D01*
X142843333Y-117882200D02*
X142748095Y-117786961D01*
X142748095Y-117786961D02*
X142700476Y-117596485D01*
X142700476Y-117596485D02*
X142700476Y-117263152D01*
X142700476Y-117263152D02*
X142748095Y-117072676D01*
X142748095Y-117072676D02*
X142843333Y-116977438D01*
X142843333Y-116977438D02*
X142938571Y-116929819D01*
X142938571Y-116929819D02*
X143129047Y-116929819D01*
X143129047Y-116929819D02*
X143224285Y-116977438D01*
X143224285Y-116977438D02*
X143319523Y-117072676D01*
X143319523Y-117072676D02*
X143367142Y-117263152D01*
X143367142Y-117263152D02*
X143367142Y-117596485D01*
X143367142Y-117596485D02*
X143319523Y-117786961D01*
X143319523Y-117786961D02*
X143224285Y-117882200D01*
X143224285Y-117882200D02*
X143129047Y-117929819D01*
X143129047Y-117929819D02*
X142938571Y-117929819D01*
X144224285Y-117263152D02*
X144224285Y-117929819D01*
X143986190Y-116882200D02*
X143748095Y-117596485D01*
X143748095Y-117596485D02*
X144367142Y-117596485D01*
X134921666Y-67609819D02*
X134921666Y-68324104D01*
X134921666Y-68324104D02*
X134874047Y-68466961D01*
X134874047Y-68466961D02*
X134778809Y-68562200D01*
X134778809Y-68562200D02*
X134635952Y-68609819D01*
X134635952Y-68609819D02*
X134540714Y-68609819D01*
X135445476Y-68609819D02*
X135635952Y-68609819D01*
X135635952Y-68609819D02*
X135731190Y-68562200D01*
X135731190Y-68562200D02*
X135778809Y-68514580D01*
X135778809Y-68514580D02*
X135874047Y-68371723D01*
X135874047Y-68371723D02*
X135921666Y-68181247D01*
X135921666Y-68181247D02*
X135921666Y-67800295D01*
X135921666Y-67800295D02*
X135874047Y-67705057D01*
X135874047Y-67705057D02*
X135826428Y-67657438D01*
X135826428Y-67657438D02*
X135731190Y-67609819D01*
X135731190Y-67609819D02*
X135540714Y-67609819D01*
X135540714Y-67609819D02*
X135445476Y-67657438D01*
X135445476Y-67657438D02*
X135397857Y-67705057D01*
X135397857Y-67705057D02*
X135350238Y-67800295D01*
X135350238Y-67800295D02*
X135350238Y-68038390D01*
X135350238Y-68038390D02*
X135397857Y-68133628D01*
X135397857Y-68133628D02*
X135445476Y-68181247D01*
X135445476Y-68181247D02*
X135540714Y-68228866D01*
X135540714Y-68228866D02*
X135731190Y-68228866D01*
X135731190Y-68228866D02*
X135826428Y-68181247D01*
X135826428Y-68181247D02*
X135874047Y-68133628D01*
X135874047Y-68133628D02*
X135921666Y-68038390D01*
X145248333Y-112849819D02*
X144915000Y-112373628D01*
X144676905Y-112849819D02*
X144676905Y-111849819D01*
X144676905Y-111849819D02*
X145057857Y-111849819D01*
X145057857Y-111849819D02*
X145153095Y-111897438D01*
X145153095Y-111897438D02*
X145200714Y-111945057D01*
X145200714Y-111945057D02*
X145248333Y-112040295D01*
X145248333Y-112040295D02*
X145248333Y-112183152D01*
X145248333Y-112183152D02*
X145200714Y-112278390D01*
X145200714Y-112278390D02*
X145153095Y-112326009D01*
X145153095Y-112326009D02*
X145057857Y-112373628D01*
X145057857Y-112373628D02*
X144676905Y-112373628D01*
X145819762Y-112278390D02*
X145724524Y-112230771D01*
X145724524Y-112230771D02*
X145676905Y-112183152D01*
X145676905Y-112183152D02*
X145629286Y-112087914D01*
X145629286Y-112087914D02*
X145629286Y-112040295D01*
X145629286Y-112040295D02*
X145676905Y-111945057D01*
X145676905Y-111945057D02*
X145724524Y-111897438D01*
X145724524Y-111897438D02*
X145819762Y-111849819D01*
X145819762Y-111849819D02*
X146010238Y-111849819D01*
X146010238Y-111849819D02*
X146105476Y-111897438D01*
X146105476Y-111897438D02*
X146153095Y-111945057D01*
X146153095Y-111945057D02*
X146200714Y-112040295D01*
X146200714Y-112040295D02*
X146200714Y-112087914D01*
X146200714Y-112087914D02*
X146153095Y-112183152D01*
X146153095Y-112183152D02*
X146105476Y-112230771D01*
X146105476Y-112230771D02*
X146010238Y-112278390D01*
X146010238Y-112278390D02*
X145819762Y-112278390D01*
X145819762Y-112278390D02*
X145724524Y-112326009D01*
X145724524Y-112326009D02*
X145676905Y-112373628D01*
X145676905Y-112373628D02*
X145629286Y-112468866D01*
X145629286Y-112468866D02*
X145629286Y-112659342D01*
X145629286Y-112659342D02*
X145676905Y-112754580D01*
X145676905Y-112754580D02*
X145724524Y-112802200D01*
X145724524Y-112802200D02*
X145819762Y-112849819D01*
X145819762Y-112849819D02*
X146010238Y-112849819D01*
X146010238Y-112849819D02*
X146105476Y-112802200D01*
X146105476Y-112802200D02*
X146153095Y-112754580D01*
X146153095Y-112754580D02*
X146200714Y-112659342D01*
X146200714Y-112659342D02*
X146200714Y-112468866D01*
X146200714Y-112468866D02*
X146153095Y-112373628D01*
X146153095Y-112373628D02*
X146105476Y-112326009D01*
X146105476Y-112326009D02*
X146010238Y-112278390D01*
X156749761Y-118025057D02*
X156654523Y-117977438D01*
X156654523Y-117977438D02*
X156559285Y-117882200D01*
X156559285Y-117882200D02*
X156416428Y-117739342D01*
X156416428Y-117739342D02*
X156321190Y-117691723D01*
X156321190Y-117691723D02*
X156225952Y-117691723D01*
X156273571Y-117929819D02*
X156178333Y-117882200D01*
X156178333Y-117882200D02*
X156083095Y-117786961D01*
X156083095Y-117786961D02*
X156035476Y-117596485D01*
X156035476Y-117596485D02*
X156035476Y-117263152D01*
X156035476Y-117263152D02*
X156083095Y-117072676D01*
X156083095Y-117072676D02*
X156178333Y-116977438D01*
X156178333Y-116977438D02*
X156273571Y-116929819D01*
X156273571Y-116929819D02*
X156464047Y-116929819D01*
X156464047Y-116929819D02*
X156559285Y-116977438D01*
X156559285Y-116977438D02*
X156654523Y-117072676D01*
X156654523Y-117072676D02*
X156702142Y-117263152D01*
X156702142Y-117263152D02*
X156702142Y-117596485D01*
X156702142Y-117596485D02*
X156654523Y-117786961D01*
X156654523Y-117786961D02*
X156559285Y-117882200D01*
X156559285Y-117882200D02*
X156464047Y-117929819D01*
X156464047Y-117929819D02*
X156273571Y-117929819D01*
X157035476Y-116929819D02*
X157654523Y-116929819D01*
X157654523Y-116929819D02*
X157321190Y-117310771D01*
X157321190Y-117310771D02*
X157464047Y-117310771D01*
X157464047Y-117310771D02*
X157559285Y-117358390D01*
X157559285Y-117358390D02*
X157606904Y-117406009D01*
X157606904Y-117406009D02*
X157654523Y-117501247D01*
X157654523Y-117501247D02*
X157654523Y-117739342D01*
X157654523Y-117739342D02*
X157606904Y-117834580D01*
X157606904Y-117834580D02*
X157559285Y-117882200D01*
X157559285Y-117882200D02*
X157464047Y-117929819D01*
X157464047Y-117929819D02*
X157178333Y-117929819D01*
X157178333Y-117929819D02*
X157083095Y-117882200D01*
X157083095Y-117882200D02*
X157035476Y-117834580D01*
X148582142Y-103959819D02*
X148248809Y-103483628D01*
X148010714Y-103959819D02*
X148010714Y-102959819D01*
X148010714Y-102959819D02*
X148391666Y-102959819D01*
X148391666Y-102959819D02*
X148486904Y-103007438D01*
X148486904Y-103007438D02*
X148534523Y-103055057D01*
X148534523Y-103055057D02*
X148582142Y-103150295D01*
X148582142Y-103150295D02*
X148582142Y-103293152D01*
X148582142Y-103293152D02*
X148534523Y-103388390D01*
X148534523Y-103388390D02*
X148486904Y-103436009D01*
X148486904Y-103436009D02*
X148391666Y-103483628D01*
X148391666Y-103483628D02*
X148010714Y-103483628D01*
X149534523Y-103959819D02*
X148963095Y-103959819D01*
X149248809Y-103959819D02*
X149248809Y-102959819D01*
X149248809Y-102959819D02*
X149153571Y-103102676D01*
X149153571Y-103102676D02*
X149058333Y-103197914D01*
X149058333Y-103197914D02*
X148963095Y-103245533D01*
X149867857Y-102959819D02*
X150486904Y-102959819D01*
X150486904Y-102959819D02*
X150153571Y-103340771D01*
X150153571Y-103340771D02*
X150296428Y-103340771D01*
X150296428Y-103340771D02*
X150391666Y-103388390D01*
X150391666Y-103388390D02*
X150439285Y-103436009D01*
X150439285Y-103436009D02*
X150486904Y-103531247D01*
X150486904Y-103531247D02*
X150486904Y-103769342D01*
X150486904Y-103769342D02*
X150439285Y-103864580D01*
X150439285Y-103864580D02*
X150391666Y-103912200D01*
X150391666Y-103912200D02*
X150296428Y-103959819D01*
X150296428Y-103959819D02*
X150010714Y-103959819D01*
X150010714Y-103959819D02*
X149915476Y-103912200D01*
X149915476Y-103912200D02*
X149867857Y-103864580D01*
X140636666Y-52794819D02*
X140636666Y-53509104D01*
X140636666Y-53509104D02*
X140589047Y-53651961D01*
X140589047Y-53651961D02*
X140493809Y-53747200D01*
X140493809Y-53747200D02*
X140350952Y-53794819D01*
X140350952Y-53794819D02*
X140255714Y-53794819D01*
X141589047Y-52794819D02*
X141112857Y-52794819D01*
X141112857Y-52794819D02*
X141065238Y-53271009D01*
X141065238Y-53271009D02*
X141112857Y-53223390D01*
X141112857Y-53223390D02*
X141208095Y-53175771D01*
X141208095Y-53175771D02*
X141446190Y-53175771D01*
X141446190Y-53175771D02*
X141541428Y-53223390D01*
X141541428Y-53223390D02*
X141589047Y-53271009D01*
X141589047Y-53271009D02*
X141636666Y-53366247D01*
X141636666Y-53366247D02*
X141636666Y-53604342D01*
X141636666Y-53604342D02*
X141589047Y-53699580D01*
X141589047Y-53699580D02*
X141541428Y-53747200D01*
X141541428Y-53747200D02*
X141446190Y-53794819D01*
X141446190Y-53794819D02*
X141208095Y-53794819D01*
X141208095Y-53794819D02*
X141112857Y-53747200D01*
X141112857Y-53747200D02*
X141065238Y-53699580D01*
X155408333Y-62049819D02*
X155075000Y-61573628D01*
X154836905Y-62049819D02*
X154836905Y-61049819D01*
X154836905Y-61049819D02*
X155217857Y-61049819D01*
X155217857Y-61049819D02*
X155313095Y-61097438D01*
X155313095Y-61097438D02*
X155360714Y-61145057D01*
X155360714Y-61145057D02*
X155408333Y-61240295D01*
X155408333Y-61240295D02*
X155408333Y-61383152D01*
X155408333Y-61383152D02*
X155360714Y-61478390D01*
X155360714Y-61478390D02*
X155313095Y-61526009D01*
X155313095Y-61526009D02*
X155217857Y-61573628D01*
X155217857Y-61573628D02*
X154836905Y-61573628D01*
X156265476Y-61383152D02*
X156265476Y-62049819D01*
X156027381Y-61002200D02*
X155789286Y-61716485D01*
X155789286Y-61716485D02*
X156408333Y-61716485D01*
X144137142Y-96974819D02*
X143803809Y-96498628D01*
X143565714Y-96974819D02*
X143565714Y-95974819D01*
X143565714Y-95974819D02*
X143946666Y-95974819D01*
X143946666Y-95974819D02*
X144041904Y-96022438D01*
X144041904Y-96022438D02*
X144089523Y-96070057D01*
X144089523Y-96070057D02*
X144137142Y-96165295D01*
X144137142Y-96165295D02*
X144137142Y-96308152D01*
X144137142Y-96308152D02*
X144089523Y-96403390D01*
X144089523Y-96403390D02*
X144041904Y-96451009D01*
X144041904Y-96451009D02*
X143946666Y-96498628D01*
X143946666Y-96498628D02*
X143565714Y-96498628D01*
X145089523Y-96974819D02*
X144518095Y-96974819D01*
X144803809Y-96974819D02*
X144803809Y-95974819D01*
X144803809Y-95974819D02*
X144708571Y-96117676D01*
X144708571Y-96117676D02*
X144613333Y-96212914D01*
X144613333Y-96212914D02*
X144518095Y-96260533D01*
X145946666Y-96308152D02*
X145946666Y-96974819D01*
X145708571Y-95927200D02*
X145470476Y-96641485D01*
X145470476Y-96641485D02*
X146089523Y-96641485D01*
X159686666Y-52794819D02*
X159686666Y-53509104D01*
X159686666Y-53509104D02*
X159639047Y-53651961D01*
X159639047Y-53651961D02*
X159543809Y-53747200D01*
X159543809Y-53747200D02*
X159400952Y-53794819D01*
X159400952Y-53794819D02*
X159305714Y-53794819D01*
X160591428Y-52794819D02*
X160400952Y-52794819D01*
X160400952Y-52794819D02*
X160305714Y-52842438D01*
X160305714Y-52842438D02*
X160258095Y-52890057D01*
X160258095Y-52890057D02*
X160162857Y-53032914D01*
X160162857Y-53032914D02*
X160115238Y-53223390D01*
X160115238Y-53223390D02*
X160115238Y-53604342D01*
X160115238Y-53604342D02*
X160162857Y-53699580D01*
X160162857Y-53699580D02*
X160210476Y-53747200D01*
X160210476Y-53747200D02*
X160305714Y-53794819D01*
X160305714Y-53794819D02*
X160496190Y-53794819D01*
X160496190Y-53794819D02*
X160591428Y-53747200D01*
X160591428Y-53747200D02*
X160639047Y-53699580D01*
X160639047Y-53699580D02*
X160686666Y-53604342D01*
X160686666Y-53604342D02*
X160686666Y-53366247D01*
X160686666Y-53366247D02*
X160639047Y-53271009D01*
X160639047Y-53271009D02*
X160591428Y-53223390D01*
X160591428Y-53223390D02*
X160496190Y-53175771D01*
X160496190Y-53175771D02*
X160305714Y-53175771D01*
X160305714Y-53175771D02*
X160210476Y-53223390D01*
X160210476Y-53223390D02*
X160162857Y-53271009D01*
X160162857Y-53271009D02*
X160115238Y-53366247D01*
X134921666Y-90029819D02*
X134921666Y-90744104D01*
X134921666Y-90744104D02*
X134874047Y-90886961D01*
X134874047Y-90886961D02*
X134778809Y-90982200D01*
X134778809Y-90982200D02*
X134635952Y-91029819D01*
X134635952Y-91029819D02*
X134540714Y-91029819D01*
X135826428Y-90363152D02*
X135826428Y-91029819D01*
X135588333Y-89982200D02*
X135350238Y-90696485D01*
X135350238Y-90696485D02*
X135969285Y-90696485D01*
X163726905Y-114119819D02*
X163726905Y-113119819D01*
X163726905Y-113119819D02*
X163965000Y-113119819D01*
X163965000Y-113119819D02*
X164107857Y-113167438D01*
X164107857Y-113167438D02*
X164203095Y-113262676D01*
X164203095Y-113262676D02*
X164250714Y-113357914D01*
X164250714Y-113357914D02*
X164298333Y-113548390D01*
X164298333Y-113548390D02*
X164298333Y-113691247D01*
X164298333Y-113691247D02*
X164250714Y-113881723D01*
X164250714Y-113881723D02*
X164203095Y-113976961D01*
X164203095Y-113976961D02*
X164107857Y-114072200D01*
X164107857Y-114072200D02*
X163965000Y-114119819D01*
X163965000Y-114119819D02*
X163726905Y-114119819D01*
X164631667Y-113119819D02*
X165250714Y-113119819D01*
X165250714Y-113119819D02*
X164917381Y-113500771D01*
X164917381Y-113500771D02*
X165060238Y-113500771D01*
X165060238Y-113500771D02*
X165155476Y-113548390D01*
X165155476Y-113548390D02*
X165203095Y-113596009D01*
X165203095Y-113596009D02*
X165250714Y-113691247D01*
X165250714Y-113691247D02*
X165250714Y-113929342D01*
X165250714Y-113929342D02*
X165203095Y-114024580D01*
X165203095Y-114024580D02*
X165155476Y-114072200D01*
X165155476Y-114072200D02*
X165060238Y-114119819D01*
X165060238Y-114119819D02*
X164774524Y-114119819D01*
X164774524Y-114119819D02*
X164679286Y-114072200D01*
X164679286Y-114072200D02*
X164631667Y-114024580D01*
X150328333Y-67764819D02*
X149995000Y-67288628D01*
X149756905Y-67764819D02*
X149756905Y-66764819D01*
X149756905Y-66764819D02*
X150137857Y-66764819D01*
X150137857Y-66764819D02*
X150233095Y-66812438D01*
X150233095Y-66812438D02*
X150280714Y-66860057D01*
X150280714Y-66860057D02*
X150328333Y-66955295D01*
X150328333Y-66955295D02*
X150328333Y-67098152D01*
X150328333Y-67098152D02*
X150280714Y-67193390D01*
X150280714Y-67193390D02*
X150233095Y-67241009D01*
X150233095Y-67241009D02*
X150137857Y-67288628D01*
X150137857Y-67288628D02*
X149756905Y-67288628D01*
X150661667Y-66764819D02*
X151280714Y-66764819D01*
X151280714Y-66764819D02*
X150947381Y-67145771D01*
X150947381Y-67145771D02*
X151090238Y-67145771D01*
X151090238Y-67145771D02*
X151185476Y-67193390D01*
X151185476Y-67193390D02*
X151233095Y-67241009D01*
X151233095Y-67241009D02*
X151280714Y-67336247D01*
X151280714Y-67336247D02*
X151280714Y-67574342D01*
X151280714Y-67574342D02*
X151233095Y-67669580D01*
X151233095Y-67669580D02*
X151185476Y-67717200D01*
X151185476Y-67717200D02*
X151090238Y-67764819D01*
X151090238Y-67764819D02*
X150804524Y-67764819D01*
X150804524Y-67764819D02*
X150709286Y-67717200D01*
X150709286Y-67717200D02*
X150661667Y-67669580D01*
X164463505Y-60779819D02*
X164463505Y-59779819D01*
X164463505Y-59779819D02*
X164701600Y-59779819D01*
X164701600Y-59779819D02*
X164844457Y-59827438D01*
X164844457Y-59827438D02*
X164939695Y-59922676D01*
X164939695Y-59922676D02*
X164987314Y-60017914D01*
X164987314Y-60017914D02*
X165034933Y-60208390D01*
X165034933Y-60208390D02*
X165034933Y-60351247D01*
X165034933Y-60351247D02*
X164987314Y-60541723D01*
X164987314Y-60541723D02*
X164939695Y-60636961D01*
X164939695Y-60636961D02*
X164844457Y-60732200D01*
X164844457Y-60732200D02*
X164701600Y-60779819D01*
X164701600Y-60779819D02*
X164463505Y-60779819D01*
X165415886Y-59875057D02*
X165463505Y-59827438D01*
X165463505Y-59827438D02*
X165558743Y-59779819D01*
X165558743Y-59779819D02*
X165796838Y-59779819D01*
X165796838Y-59779819D02*
X165892076Y-59827438D01*
X165892076Y-59827438D02*
X165939695Y-59875057D01*
X165939695Y-59875057D02*
X165987314Y-59970295D01*
X165987314Y-59970295D02*
X165987314Y-60065533D01*
X165987314Y-60065533D02*
X165939695Y-60208390D01*
X165939695Y-60208390D02*
X165368267Y-60779819D01*
X165368267Y-60779819D02*
X165987314Y-60779819D01*
X145248333Y-62129819D02*
X144915000Y-61653628D01*
X144676905Y-62129819D02*
X144676905Y-61129819D01*
X144676905Y-61129819D02*
X145057857Y-61129819D01*
X145057857Y-61129819D02*
X145153095Y-61177438D01*
X145153095Y-61177438D02*
X145200714Y-61225057D01*
X145200714Y-61225057D02*
X145248333Y-61320295D01*
X145248333Y-61320295D02*
X145248333Y-61463152D01*
X145248333Y-61463152D02*
X145200714Y-61558390D01*
X145200714Y-61558390D02*
X145153095Y-61606009D01*
X145153095Y-61606009D02*
X145057857Y-61653628D01*
X145057857Y-61653628D02*
X144676905Y-61653628D01*
X146200714Y-62129819D02*
X145629286Y-62129819D01*
X145915000Y-62129819D02*
X145915000Y-61129819D01*
X145915000Y-61129819D02*
X145819762Y-61272676D01*
X145819762Y-61272676D02*
X145724524Y-61367914D01*
X145724524Y-61367914D02*
X145629286Y-61415533D01*
X154551142Y-94561819D02*
X154217809Y-94085628D01*
X153979714Y-94561819D02*
X153979714Y-93561819D01*
X153979714Y-93561819D02*
X154360666Y-93561819D01*
X154360666Y-93561819D02*
X154455904Y-93609438D01*
X154455904Y-93609438D02*
X154503523Y-93657057D01*
X154503523Y-93657057D02*
X154551142Y-93752295D01*
X154551142Y-93752295D02*
X154551142Y-93895152D01*
X154551142Y-93895152D02*
X154503523Y-93990390D01*
X154503523Y-93990390D02*
X154455904Y-94038009D01*
X154455904Y-94038009D02*
X154360666Y-94085628D01*
X154360666Y-94085628D02*
X153979714Y-94085628D01*
X155503523Y-94561819D02*
X154932095Y-94561819D01*
X155217809Y-94561819D02*
X155217809Y-93561819D01*
X155217809Y-93561819D02*
X155122571Y-93704676D01*
X155122571Y-93704676D02*
X155027333Y-93799914D01*
X155027333Y-93799914D02*
X154932095Y-93847533D01*
X156455904Y-94561819D02*
X155884476Y-94561819D01*
X156170190Y-94561819D02*
X156170190Y-93561819D01*
X156170190Y-93561819D02*
X156074952Y-93704676D01*
X156074952Y-93704676D02*
X155979714Y-93799914D01*
X155979714Y-93799914D02*
X155884476Y-93847533D01*
X153503333Y-107134819D02*
X153170000Y-106658628D01*
X152931905Y-107134819D02*
X152931905Y-106134819D01*
X152931905Y-106134819D02*
X153312857Y-106134819D01*
X153312857Y-106134819D02*
X153408095Y-106182438D01*
X153408095Y-106182438D02*
X153455714Y-106230057D01*
X153455714Y-106230057D02*
X153503333Y-106325295D01*
X153503333Y-106325295D02*
X153503333Y-106468152D01*
X153503333Y-106468152D02*
X153455714Y-106563390D01*
X153455714Y-106563390D02*
X153408095Y-106611009D01*
X153408095Y-106611009D02*
X153312857Y-106658628D01*
X153312857Y-106658628D02*
X152931905Y-106658628D01*
X154408095Y-106134819D02*
X153931905Y-106134819D01*
X153931905Y-106134819D02*
X153884286Y-106611009D01*
X153884286Y-106611009D02*
X153931905Y-106563390D01*
X153931905Y-106563390D02*
X154027143Y-106515771D01*
X154027143Y-106515771D02*
X154265238Y-106515771D01*
X154265238Y-106515771D02*
X154360476Y-106563390D01*
X154360476Y-106563390D02*
X154408095Y-106611009D01*
X154408095Y-106611009D02*
X154455714Y-106706247D01*
X154455714Y-106706247D02*
X154455714Y-106944342D01*
X154455714Y-106944342D02*
X154408095Y-107039580D01*
X154408095Y-107039580D02*
X154360476Y-107087200D01*
X154360476Y-107087200D02*
X154265238Y-107134819D01*
X154265238Y-107134819D02*
X154027143Y-107134819D01*
X154027143Y-107134819D02*
X153931905Y-107087200D01*
X153931905Y-107087200D02*
X153884286Y-107039580D01*
X135151905Y-56739819D02*
X135151905Y-55739819D01*
X135151905Y-55739819D02*
X135390000Y-55739819D01*
X135390000Y-55739819D02*
X135532857Y-55787438D01*
X135532857Y-55787438D02*
X135628095Y-55882676D01*
X135628095Y-55882676D02*
X135675714Y-55977914D01*
X135675714Y-55977914D02*
X135723333Y-56168390D01*
X135723333Y-56168390D02*
X135723333Y-56311247D01*
X135723333Y-56311247D02*
X135675714Y-56501723D01*
X135675714Y-56501723D02*
X135628095Y-56596961D01*
X135628095Y-56596961D02*
X135532857Y-56692200D01*
X135532857Y-56692200D02*
X135390000Y-56739819D01*
X135390000Y-56739819D02*
X135151905Y-56739819D01*
X136675714Y-56739819D02*
X136104286Y-56739819D01*
X136390000Y-56739819D02*
X136390000Y-55739819D01*
X136390000Y-55739819D02*
X136294762Y-55882676D01*
X136294762Y-55882676D02*
X136199524Y-55977914D01*
X136199524Y-55977914D02*
X136104286Y-56025533D01*
X141271666Y-59549819D02*
X141271666Y-60264104D01*
X141271666Y-60264104D02*
X141224047Y-60406961D01*
X141224047Y-60406961D02*
X141128809Y-60502200D01*
X141128809Y-60502200D02*
X140985952Y-60549819D01*
X140985952Y-60549819D02*
X140890714Y-60549819D01*
X142271666Y-60549819D02*
X141700238Y-60549819D01*
X141985952Y-60549819D02*
X141985952Y-59549819D01*
X141985952Y-59549819D02*
X141890714Y-59692676D01*
X141890714Y-59692676D02*
X141795476Y-59787914D01*
X141795476Y-59787914D02*
X141700238Y-59835533D01*
X159051666Y-59549819D02*
X159051666Y-60264104D01*
X159051666Y-60264104D02*
X159004047Y-60406961D01*
X159004047Y-60406961D02*
X158908809Y-60502200D01*
X158908809Y-60502200D02*
X158765952Y-60549819D01*
X158765952Y-60549819D02*
X158670714Y-60549819D01*
X159480238Y-59645057D02*
X159527857Y-59597438D01*
X159527857Y-59597438D02*
X159623095Y-59549819D01*
X159623095Y-59549819D02*
X159861190Y-59549819D01*
X159861190Y-59549819D02*
X159956428Y-59597438D01*
X159956428Y-59597438D02*
X160004047Y-59645057D01*
X160004047Y-59645057D02*
X160051666Y-59740295D01*
X160051666Y-59740295D02*
X160051666Y-59835533D01*
X160051666Y-59835533D02*
X160004047Y-59978390D01*
X160004047Y-59978390D02*
X159432619Y-60549819D01*
X159432619Y-60549819D02*
X160051666Y-60549819D01*
X143414761Y-57065057D02*
X143319523Y-57017438D01*
X143319523Y-57017438D02*
X143224285Y-56922200D01*
X143224285Y-56922200D02*
X143081428Y-56779342D01*
X143081428Y-56779342D02*
X142986190Y-56731723D01*
X142986190Y-56731723D02*
X142890952Y-56731723D01*
X142938571Y-56969819D02*
X142843333Y-56922200D01*
X142843333Y-56922200D02*
X142748095Y-56826961D01*
X142748095Y-56826961D02*
X142700476Y-56636485D01*
X142700476Y-56636485D02*
X142700476Y-56303152D01*
X142700476Y-56303152D02*
X142748095Y-56112676D01*
X142748095Y-56112676D02*
X142843333Y-56017438D01*
X142843333Y-56017438D02*
X142938571Y-55969819D01*
X142938571Y-55969819D02*
X143129047Y-55969819D01*
X143129047Y-55969819D02*
X143224285Y-56017438D01*
X143224285Y-56017438D02*
X143319523Y-56112676D01*
X143319523Y-56112676D02*
X143367142Y-56303152D01*
X143367142Y-56303152D02*
X143367142Y-56636485D01*
X143367142Y-56636485D02*
X143319523Y-56826961D01*
X143319523Y-56826961D02*
X143224285Y-56922200D01*
X143224285Y-56922200D02*
X143129047Y-56969819D01*
X143129047Y-56969819D02*
X142938571Y-56969819D01*
X144319523Y-56969819D02*
X143748095Y-56969819D01*
X144033809Y-56969819D02*
X144033809Y-55969819D01*
X144033809Y-55969819D02*
X143938571Y-56112676D01*
X143938571Y-56112676D02*
X143843333Y-56207914D01*
X143843333Y-56207914D02*
X143748095Y-56255533D01*
X155408333Y-112849819D02*
X155075000Y-112373628D01*
X154836905Y-112849819D02*
X154836905Y-111849819D01*
X154836905Y-111849819D02*
X155217857Y-111849819D01*
X155217857Y-111849819D02*
X155313095Y-111897438D01*
X155313095Y-111897438D02*
X155360714Y-111945057D01*
X155360714Y-111945057D02*
X155408333Y-112040295D01*
X155408333Y-112040295D02*
X155408333Y-112183152D01*
X155408333Y-112183152D02*
X155360714Y-112278390D01*
X155360714Y-112278390D02*
X155313095Y-112326009D01*
X155313095Y-112326009D02*
X155217857Y-112373628D01*
X155217857Y-112373628D02*
X154836905Y-112373628D01*
X156265476Y-111849819D02*
X156075000Y-111849819D01*
X156075000Y-111849819D02*
X155979762Y-111897438D01*
X155979762Y-111897438D02*
X155932143Y-111945057D01*
X155932143Y-111945057D02*
X155836905Y-112087914D01*
X155836905Y-112087914D02*
X155789286Y-112278390D01*
X155789286Y-112278390D02*
X155789286Y-112659342D01*
X155789286Y-112659342D02*
X155836905Y-112754580D01*
X155836905Y-112754580D02*
X155884524Y-112802200D01*
X155884524Y-112802200D02*
X155979762Y-112849819D01*
X155979762Y-112849819D02*
X156170238Y-112849819D01*
X156170238Y-112849819D02*
X156265476Y-112802200D01*
X156265476Y-112802200D02*
X156313095Y-112754580D01*
X156313095Y-112754580D02*
X156360714Y-112659342D01*
X156360714Y-112659342D02*
X156360714Y-112421247D01*
X156360714Y-112421247D02*
X156313095Y-112326009D01*
X156313095Y-112326009D02*
X156265476Y-112278390D01*
X156265476Y-112278390D02*
X156170238Y-112230771D01*
X156170238Y-112230771D02*
X155979762Y-112230771D01*
X155979762Y-112230771D02*
X155884524Y-112278390D01*
X155884524Y-112278390D02*
X155836905Y-112326009D01*
X155836905Y-112326009D02*
X155789286Y-112421247D01*
X165401666Y-87489819D02*
X165401666Y-88204104D01*
X165401666Y-88204104D02*
X165354047Y-88346961D01*
X165354047Y-88346961D02*
X165258809Y-88442200D01*
X165258809Y-88442200D02*
X165115952Y-88489819D01*
X165115952Y-88489819D02*
X165020714Y-88489819D01*
X165782619Y-87489819D02*
X166401666Y-87489819D01*
X166401666Y-87489819D02*
X166068333Y-87870771D01*
X166068333Y-87870771D02*
X166211190Y-87870771D01*
X166211190Y-87870771D02*
X166306428Y-87918390D01*
X166306428Y-87918390D02*
X166354047Y-87966009D01*
X166354047Y-87966009D02*
X166401666Y-88061247D01*
X166401666Y-88061247D02*
X166401666Y-88299342D01*
X166401666Y-88299342D02*
X166354047Y-88394580D01*
X166354047Y-88394580D02*
X166306428Y-88442200D01*
X166306428Y-88442200D02*
X166211190Y-88489819D01*
X166211190Y-88489819D02*
X165925476Y-88489819D01*
X165925476Y-88489819D02*
X165830238Y-88442200D01*
X165830238Y-88442200D02*
X165782619Y-88394580D01*
X155408333Y-81734819D02*
X155075000Y-81258628D01*
X154836905Y-81734819D02*
X154836905Y-80734819D01*
X154836905Y-80734819D02*
X155217857Y-80734819D01*
X155217857Y-80734819D02*
X155313095Y-80782438D01*
X155313095Y-80782438D02*
X155360714Y-80830057D01*
X155360714Y-80830057D02*
X155408333Y-80925295D01*
X155408333Y-80925295D02*
X155408333Y-81068152D01*
X155408333Y-81068152D02*
X155360714Y-81163390D01*
X155360714Y-81163390D02*
X155313095Y-81211009D01*
X155313095Y-81211009D02*
X155217857Y-81258628D01*
X155217857Y-81258628D02*
X154836905Y-81258628D01*
X155884524Y-81734819D02*
X156075000Y-81734819D01*
X156075000Y-81734819D02*
X156170238Y-81687200D01*
X156170238Y-81687200D02*
X156217857Y-81639580D01*
X156217857Y-81639580D02*
X156313095Y-81496723D01*
X156313095Y-81496723D02*
X156360714Y-81306247D01*
X156360714Y-81306247D02*
X156360714Y-80925295D01*
X156360714Y-80925295D02*
X156313095Y-80830057D01*
X156313095Y-80830057D02*
X156265476Y-80782438D01*
X156265476Y-80782438D02*
X156170238Y-80734819D01*
X156170238Y-80734819D02*
X155979762Y-80734819D01*
X155979762Y-80734819D02*
X155884524Y-80782438D01*
X155884524Y-80782438D02*
X155836905Y-80830057D01*
X155836905Y-80830057D02*
X155789286Y-80925295D01*
X155789286Y-80925295D02*
X155789286Y-81163390D01*
X155789286Y-81163390D02*
X155836905Y-81258628D01*
X155836905Y-81258628D02*
X155884524Y-81306247D01*
X155884524Y-81306247D02*
X155979762Y-81353866D01*
X155979762Y-81353866D02*
X156170238Y-81353866D01*
X156170238Y-81353866D02*
X156265476Y-81306247D01*
X156265476Y-81306247D02*
X156313095Y-81258628D01*
X156313095Y-81258628D02*
X156360714Y-81163390D01*
X157384761Y-57065057D02*
X157289523Y-57017438D01*
X157289523Y-57017438D02*
X157194285Y-56922200D01*
X157194285Y-56922200D02*
X157051428Y-56779342D01*
X157051428Y-56779342D02*
X156956190Y-56731723D01*
X156956190Y-56731723D02*
X156860952Y-56731723D01*
X156908571Y-56969819D02*
X156813333Y-56922200D01*
X156813333Y-56922200D02*
X156718095Y-56826961D01*
X156718095Y-56826961D02*
X156670476Y-56636485D01*
X156670476Y-56636485D02*
X156670476Y-56303152D01*
X156670476Y-56303152D02*
X156718095Y-56112676D01*
X156718095Y-56112676D02*
X156813333Y-56017438D01*
X156813333Y-56017438D02*
X156908571Y-55969819D01*
X156908571Y-55969819D02*
X157099047Y-55969819D01*
X157099047Y-55969819D02*
X157194285Y-56017438D01*
X157194285Y-56017438D02*
X157289523Y-56112676D01*
X157289523Y-56112676D02*
X157337142Y-56303152D01*
X157337142Y-56303152D02*
X157337142Y-56636485D01*
X157337142Y-56636485D02*
X157289523Y-56826961D01*
X157289523Y-56826961D02*
X157194285Y-56922200D01*
X157194285Y-56922200D02*
X157099047Y-56969819D01*
X157099047Y-56969819D02*
X156908571Y-56969819D01*
X157718095Y-56065057D02*
X157765714Y-56017438D01*
X157765714Y-56017438D02*
X157860952Y-55969819D01*
X157860952Y-55969819D02*
X158099047Y-55969819D01*
X158099047Y-55969819D02*
X158194285Y-56017438D01*
X158194285Y-56017438D02*
X158241904Y-56065057D01*
X158241904Y-56065057D02*
X158289523Y-56160295D01*
X158289523Y-56160295D02*
X158289523Y-56255533D01*
X158289523Y-56255533D02*
X158241904Y-56398390D01*
X158241904Y-56398390D02*
X157670476Y-56969819D01*
X157670476Y-56969819D02*
X158289523Y-56969819D01*
X154652742Y-100734019D02*
X154319409Y-100257828D01*
X154081314Y-100734019D02*
X154081314Y-99734019D01*
X154081314Y-99734019D02*
X154462266Y-99734019D01*
X154462266Y-99734019D02*
X154557504Y-99781638D01*
X154557504Y-99781638D02*
X154605123Y-99829257D01*
X154605123Y-99829257D02*
X154652742Y-99924495D01*
X154652742Y-99924495D02*
X154652742Y-100067352D01*
X154652742Y-100067352D02*
X154605123Y-100162590D01*
X154605123Y-100162590D02*
X154557504Y-100210209D01*
X154557504Y-100210209D02*
X154462266Y-100257828D01*
X154462266Y-100257828D02*
X154081314Y-100257828D01*
X155605123Y-100734019D02*
X155033695Y-100734019D01*
X155319409Y-100734019D02*
X155319409Y-99734019D01*
X155319409Y-99734019D02*
X155224171Y-99876876D01*
X155224171Y-99876876D02*
X155128933Y-99972114D01*
X155128933Y-99972114D02*
X155033695Y-100019733D01*
X155986076Y-99829257D02*
X156033695Y-99781638D01*
X156033695Y-99781638D02*
X156128933Y-99734019D01*
X156128933Y-99734019D02*
X156367028Y-99734019D01*
X156367028Y-99734019D02*
X156462266Y-99781638D01*
X156462266Y-99781638D02*
X156509885Y-99829257D01*
X156509885Y-99829257D02*
X156557504Y-99924495D01*
X156557504Y-99924495D02*
X156557504Y-100019733D01*
X156557504Y-100019733D02*
X156509885Y-100162590D01*
X156509885Y-100162590D02*
X155938457Y-100734019D01*
X155938457Y-100734019D02*
X156557504Y-100734019D01*
X135151905Y-114094419D02*
X135151905Y-113094419D01*
X135151905Y-113094419D02*
X135390000Y-113094419D01*
X135390000Y-113094419D02*
X135532857Y-113142038D01*
X135532857Y-113142038D02*
X135628095Y-113237276D01*
X135628095Y-113237276D02*
X135675714Y-113332514D01*
X135675714Y-113332514D02*
X135723333Y-113522990D01*
X135723333Y-113522990D02*
X135723333Y-113665847D01*
X135723333Y-113665847D02*
X135675714Y-113856323D01*
X135675714Y-113856323D02*
X135628095Y-113951561D01*
X135628095Y-113951561D02*
X135532857Y-114046800D01*
X135532857Y-114046800D02*
X135390000Y-114094419D01*
X135390000Y-114094419D02*
X135151905Y-114094419D01*
X136580476Y-113427752D02*
X136580476Y-114094419D01*
X136342381Y-113046800D02*
X136104286Y-113761085D01*
X136104286Y-113761085D02*
X136723333Y-113761085D01*
X147153333Y-67764819D02*
X146820000Y-67288628D01*
X146581905Y-67764819D02*
X146581905Y-66764819D01*
X146581905Y-66764819D02*
X146962857Y-66764819D01*
X146962857Y-66764819D02*
X147058095Y-66812438D01*
X147058095Y-66812438D02*
X147105714Y-66860057D01*
X147105714Y-66860057D02*
X147153333Y-66955295D01*
X147153333Y-66955295D02*
X147153333Y-67098152D01*
X147153333Y-67098152D02*
X147105714Y-67193390D01*
X147105714Y-67193390D02*
X147058095Y-67241009D01*
X147058095Y-67241009D02*
X146962857Y-67288628D01*
X146962857Y-67288628D02*
X146581905Y-67288628D01*
X147534286Y-66860057D02*
X147581905Y-66812438D01*
X147581905Y-66812438D02*
X147677143Y-66764819D01*
X147677143Y-66764819D02*
X147915238Y-66764819D01*
X147915238Y-66764819D02*
X148010476Y-66812438D01*
X148010476Y-66812438D02*
X148058095Y-66860057D01*
X148058095Y-66860057D02*
X148105714Y-66955295D01*
X148105714Y-66955295D02*
X148105714Y-67050533D01*
X148105714Y-67050533D02*
X148058095Y-67193390D01*
X148058095Y-67193390D02*
X147486667Y-67764819D01*
X147486667Y-67764819D02*
X148105714Y-67764819D01*
X159686666Y-120104819D02*
X159686666Y-120819104D01*
X159686666Y-120819104D02*
X159639047Y-120961961D01*
X159639047Y-120961961D02*
X159543809Y-121057200D01*
X159543809Y-121057200D02*
X159400952Y-121104819D01*
X159400952Y-121104819D02*
X159305714Y-121104819D01*
X160067619Y-120104819D02*
X160734285Y-120104819D01*
X160734285Y-120104819D02*
X160305714Y-121104819D01*
X154932142Y-88084819D02*
X154598809Y-87608628D01*
X154360714Y-88084819D02*
X154360714Y-87084819D01*
X154360714Y-87084819D02*
X154741666Y-87084819D01*
X154741666Y-87084819D02*
X154836904Y-87132438D01*
X154836904Y-87132438D02*
X154884523Y-87180057D01*
X154884523Y-87180057D02*
X154932142Y-87275295D01*
X154932142Y-87275295D02*
X154932142Y-87418152D01*
X154932142Y-87418152D02*
X154884523Y-87513390D01*
X154884523Y-87513390D02*
X154836904Y-87561009D01*
X154836904Y-87561009D02*
X154741666Y-87608628D01*
X154741666Y-87608628D02*
X154360714Y-87608628D01*
X155884523Y-88084819D02*
X155313095Y-88084819D01*
X155598809Y-88084819D02*
X155598809Y-87084819D01*
X155598809Y-87084819D02*
X155503571Y-87227676D01*
X155503571Y-87227676D02*
X155408333Y-87322914D01*
X155408333Y-87322914D02*
X155313095Y-87370533D01*
X156503571Y-87084819D02*
X156598809Y-87084819D01*
X156598809Y-87084819D02*
X156694047Y-87132438D01*
X156694047Y-87132438D02*
X156741666Y-87180057D01*
X156741666Y-87180057D02*
X156789285Y-87275295D01*
X156789285Y-87275295D02*
X156836904Y-87465771D01*
X156836904Y-87465771D02*
X156836904Y-87703866D01*
X156836904Y-87703866D02*
X156789285Y-87894342D01*
X156789285Y-87894342D02*
X156741666Y-87989580D01*
X156741666Y-87989580D02*
X156694047Y-88037200D01*
X156694047Y-88037200D02*
X156598809Y-88084819D01*
X156598809Y-88084819D02*
X156503571Y-88084819D01*
X156503571Y-88084819D02*
X156408333Y-88037200D01*
X156408333Y-88037200D02*
X156360714Y-87989580D01*
X156360714Y-87989580D02*
X156313095Y-87894342D01*
X156313095Y-87894342D02*
X156265476Y-87703866D01*
X156265476Y-87703866D02*
X156265476Y-87465771D01*
X156265476Y-87465771D02*
X156313095Y-87275295D01*
X156313095Y-87275295D02*
X156360714Y-87180057D01*
X156360714Y-87180057D02*
X156408333Y-87132438D01*
X156408333Y-87132438D02*
X156503571Y-87084819D01*
X140636666Y-120104819D02*
X140636666Y-120819104D01*
X140636666Y-120819104D02*
X140589047Y-120961961D01*
X140589047Y-120961961D02*
X140493809Y-121057200D01*
X140493809Y-121057200D02*
X140350952Y-121104819D01*
X140350952Y-121104819D02*
X140255714Y-121104819D01*
X141255714Y-120533390D02*
X141160476Y-120485771D01*
X141160476Y-120485771D02*
X141112857Y-120438152D01*
X141112857Y-120438152D02*
X141065238Y-120342914D01*
X141065238Y-120342914D02*
X141065238Y-120295295D01*
X141065238Y-120295295D02*
X141112857Y-120200057D01*
X141112857Y-120200057D02*
X141160476Y-120152438D01*
X141160476Y-120152438D02*
X141255714Y-120104819D01*
X141255714Y-120104819D02*
X141446190Y-120104819D01*
X141446190Y-120104819D02*
X141541428Y-120152438D01*
X141541428Y-120152438D02*
X141589047Y-120200057D01*
X141589047Y-120200057D02*
X141636666Y-120295295D01*
X141636666Y-120295295D02*
X141636666Y-120342914D01*
X141636666Y-120342914D02*
X141589047Y-120438152D01*
X141589047Y-120438152D02*
X141541428Y-120485771D01*
X141541428Y-120485771D02*
X141446190Y-120533390D01*
X141446190Y-120533390D02*
X141255714Y-120533390D01*
X141255714Y-120533390D02*
X141160476Y-120581009D01*
X141160476Y-120581009D02*
X141112857Y-120628628D01*
X141112857Y-120628628D02*
X141065238Y-120723866D01*
X141065238Y-120723866D02*
X141065238Y-120914342D01*
X141065238Y-120914342D02*
X141112857Y-121009580D01*
X141112857Y-121009580D02*
X141160476Y-121057200D01*
X141160476Y-121057200D02*
X141255714Y-121104819D01*
X141255714Y-121104819D02*
X141446190Y-121104819D01*
X141446190Y-121104819D02*
X141541428Y-121057200D01*
X141541428Y-121057200D02*
X141589047Y-121009580D01*
X141589047Y-121009580D02*
X141636666Y-120914342D01*
X141636666Y-120914342D02*
X141636666Y-120723866D01*
X141636666Y-120723866D02*
X141589047Y-120628628D01*
X141589047Y-120628628D02*
X141541428Y-120581009D01*
X141541428Y-120581009D02*
X141446190Y-120533390D01*
D12*
%TO.C,R7*%
X149325000Y-109270436D02*
X149325000Y-109724564D01*
X147855000Y-109270436D02*
X147855000Y-109724564D01*
%TO.C,R15*%
X145999564Y-101700000D02*
X145545436Y-101700000D01*
X145999564Y-100230000D02*
X145545436Y-100230000D01*
D13*
%TO.C,Q4*%
X144970500Y-117221000D02*
X146621500Y-117221000D01*
X144970500Y-116182140D02*
X144970500Y-117221000D01*
X146621500Y-115907861D02*
X146621500Y-115232139D01*
X144970500Y-113919000D02*
X144970500Y-114957860D01*
X146621500Y-113919000D02*
X144970500Y-113919000D01*
X147243800Y-118364000D02*
G75*
G03*
X147243800Y-118364000I-127000J0D01*
G01*
D12*
%TO.C,J9*%
X133925000Y-69155000D02*
X135255000Y-69155000D01*
X133925000Y-70485000D02*
X133925000Y-69155000D01*
X133925000Y-71755000D02*
X133925000Y-74355000D01*
X133925000Y-71755000D02*
X136585000Y-71755000D01*
X133925000Y-74355000D02*
X136585000Y-74355000D01*
X136585000Y-71755000D02*
X136585000Y-74355000D01*
%TO.C,R8*%
X144680000Y-109724564D02*
X144680000Y-109270436D01*
X146150000Y-109724564D02*
X146150000Y-109270436D01*
D13*
%TO.C,Q3*%
X155384500Y-113919000D02*
X153733500Y-113919000D01*
X155384500Y-114957860D02*
X155384500Y-113919000D01*
X153733500Y-115232139D02*
X153733500Y-115907861D01*
X155384500Y-117221000D02*
X155384500Y-116182140D01*
X153733500Y-117221000D02*
X155384500Y-117221000D01*
X153365200Y-112776000D02*
G75*
G03*
X153365200Y-112776000I-127000J0D01*
G01*
D12*
%TO.C,R13*%
X145999564Y-104240000D02*
X145545436Y-104240000D01*
X145999564Y-102770000D02*
X145545436Y-102770000D01*
%TO.C,J5*%
X133925000Y-54670000D02*
X133925000Y-53340000D01*
X135255000Y-54670000D02*
X133925000Y-54670000D01*
X136525000Y-54670000D02*
X139125000Y-54670000D01*
X136525000Y-54670000D02*
X136525000Y-52010000D01*
X139125000Y-54670000D02*
X139125000Y-52010000D01*
X136525000Y-52010000D02*
X139125000Y-52010000D01*
%TO.C,R4*%
X156310000Y-64345436D02*
X156310000Y-64799564D01*
X154840000Y-64345436D02*
X154840000Y-64799564D01*
%TO.C,R14*%
X145999564Y-99160000D02*
X145545436Y-99160000D01*
X145999564Y-97690000D02*
X145545436Y-97690000D01*
%TO.C,J6*%
X167065000Y-52010000D02*
X167065000Y-53340000D01*
X165735000Y-52010000D02*
X167065000Y-52010000D01*
X164465000Y-52010000D02*
X161865000Y-52010000D01*
X164465000Y-52010000D02*
X164465000Y-54670000D01*
X161865000Y-52010000D02*
X161865000Y-54670000D01*
X164465000Y-54670000D02*
X161865000Y-54670000D01*
%TO.C,J4*%
X133925000Y-94615000D02*
X133925000Y-107375000D01*
X133925000Y-94615000D02*
X136585000Y-94615000D01*
X133925000Y-107375000D02*
X136585000Y-107375000D01*
X135255000Y-92015000D02*
X136585000Y-92015000D01*
X136585000Y-92015000D02*
X136585000Y-93345000D01*
X136585000Y-94615000D02*
X136585000Y-107375000D01*
D14*
%TO.C,D3*%
X165985000Y-116500000D02*
X163385000Y-116500000D01*
X165985000Y-114640000D02*
X163385000Y-114640000D01*
D15*
X167585000Y-115570000D02*
G75*
G03*
X167585000Y-115570000I-100000J0D01*
G01*
D12*
%TO.C,R3*%
X151665000Y-64799564D02*
X151665000Y-64345436D01*
X153135000Y-64799564D02*
X153135000Y-64345436D01*
D14*
%TO.C,D2*%
X165985000Y-59350000D02*
X163385000Y-59350000D01*
X165985000Y-57490000D02*
X163385000Y-57490000D01*
D15*
X167585000Y-58420000D02*
G75*
G03*
X167585000Y-58420000I-100000J0D01*
G01*
D12*
%TO.C,R1*%
X146150000Y-64265436D02*
X146150000Y-64719564D01*
X144680000Y-64265436D02*
X144680000Y-64719564D01*
%TO.C,R11*%
X155070436Y-95150000D02*
X155524564Y-95150000D01*
X155070436Y-96620000D02*
X155524564Y-96620000D01*
%TO.C,R5*%
X153135000Y-109270436D02*
X153135000Y-109724564D01*
X151665000Y-109270436D02*
X151665000Y-109724564D01*
D14*
%TO.C,D1*%
X135005000Y-57490000D02*
X137605000Y-57490000D01*
X135005000Y-59350000D02*
X137605000Y-59350000D01*
D15*
X133605000Y-58420000D02*
G75*
G03*
X133605000Y-58420000I-100000J0D01*
G01*
D12*
%TO.C,J1*%
X140275000Y-64135000D02*
X140275000Y-112455000D01*
X140275000Y-64135000D02*
X142935000Y-64135000D01*
X140275000Y-112455000D02*
X142935000Y-112455000D01*
X141605000Y-61535000D02*
X142935000Y-61535000D01*
X142935000Y-61535000D02*
X142935000Y-62865000D01*
X142935000Y-64135000D02*
X142935000Y-112455000D01*
%TO.C,J2*%
X158055000Y-64135000D02*
X158055000Y-112455000D01*
X158055000Y-64135000D02*
X160715000Y-64135000D01*
X158055000Y-112455000D02*
X160715000Y-112455000D01*
X159385000Y-61535000D02*
X160715000Y-61535000D01*
X160715000Y-61535000D02*
X160715000Y-62865000D01*
X160715000Y-64135000D02*
X160715000Y-112455000D01*
D13*
%TO.C,Q1*%
X144970500Y-60071000D02*
X146621500Y-60071000D01*
X144970500Y-59032140D02*
X144970500Y-60071000D01*
X146621500Y-58757861D02*
X146621500Y-58082139D01*
X144970500Y-56769000D02*
X144970500Y-57807860D01*
X146621500Y-56769000D02*
X144970500Y-56769000D01*
X147243800Y-61214000D02*
G75*
G03*
X147243800Y-61214000I-127000J0D01*
G01*
D12*
%TO.C,R6*%
X154840000Y-109724564D02*
X154840000Y-109270436D01*
X156310000Y-109724564D02*
X156310000Y-109270436D01*
%TO.C,J3*%
X164405000Y-92075000D02*
X164405000Y-109915000D01*
X164405000Y-92075000D02*
X167065000Y-92075000D01*
X164405000Y-109915000D02*
X167065000Y-109915000D01*
X165735000Y-89475000D02*
X167065000Y-89475000D01*
X167065000Y-89475000D02*
X167065000Y-90805000D01*
X167065000Y-92075000D02*
X167065000Y-109915000D01*
%TO.C,R9*%
X155070436Y-82450000D02*
X155524564Y-82450000D01*
X155070436Y-83920000D02*
X155524564Y-83920000D01*
D13*
%TO.C,Q2*%
X156019500Y-56769000D02*
X154368500Y-56769000D01*
X156019500Y-57807860D02*
X156019500Y-56769000D01*
X154368500Y-58082139D02*
X154368500Y-58757861D01*
X156019500Y-60071000D02*
X156019500Y-59032140D01*
X154368500Y-60071000D02*
X156019500Y-60071000D01*
X154000200Y-55626000D02*
G75*
G03*
X154000200Y-55626000I-127000J0D01*
G01*
D12*
%TO.C,R12*%
X155070436Y-97690000D02*
X155524564Y-97690000D01*
X155070436Y-99160000D02*
X155524564Y-99160000D01*
D14*
%TO.C,D4*%
X135005000Y-114640000D02*
X137605000Y-114640000D01*
X135005000Y-116500000D02*
X137605000Y-116500000D01*
D15*
X133605000Y-115570000D02*
G75*
G03*
X133605000Y-115570000I-100000J0D01*
G01*
D12*
%TO.C,R2*%
X147855000Y-64719564D02*
X147855000Y-64265436D01*
X149325000Y-64719564D02*
X149325000Y-64265436D01*
%TO.C,J7*%
X167065000Y-119320000D02*
X167065000Y-120650000D01*
X165735000Y-119320000D02*
X167065000Y-119320000D01*
X164465000Y-119320000D02*
X161865000Y-119320000D01*
X164465000Y-119320000D02*
X164465000Y-121980000D01*
X161865000Y-119320000D02*
X161865000Y-121980000D01*
X164465000Y-121980000D02*
X161865000Y-121980000D01*
%TO.C,R10*%
X155524564Y-86460000D02*
X155070436Y-86460000D01*
X155524564Y-84990000D02*
X155070436Y-84990000D01*
%TO.C,J8*%
X133925000Y-121980000D02*
X133925000Y-120650000D01*
X135255000Y-121980000D02*
X133925000Y-121980000D01*
X136525000Y-121980000D02*
X139125000Y-121980000D01*
X136525000Y-121980000D02*
X136525000Y-119320000D01*
X139125000Y-121980000D02*
X139125000Y-119320000D01*
X136525000Y-119320000D02*
X139125000Y-119320000D01*
%TD*%
M02*
