%TF.GenerationSoftware,KiCad,Pcbnew,7.0.6-7.0.6~ubuntu22.04.1*%
%TF.CreationDate,2023-07-14T18:36:51-05:00*%
%TF.ProjectId,picodrone_controller,7069636f-6472-46f6-9e65-5f636f6e7472,rev?*%
%TF.SameCoordinates,Original*%
%TF.FileFunction,Soldermask,Top*%
%TF.FilePolarity,Negative*%
%FSLAX46Y46*%
G04 Gerber Fmt 4.6, Leading zero omitted, Abs format (unit mm)*
G04 Created by KiCad (PCBNEW 7.0.6-7.0.6~ubuntu22.04.1) date 2023-07-14 18:36:51*
%MOMM*%
%LPD*%
G01*
G04 APERTURE LIST*
G04 Aperture macros list*
%AMRoundRect*
0 Rectangle with rounded corners*
0 $1 Rounding radius*
0 $2 $3 $4 $5 $6 $7 $8 $9 X,Y pos of 4 corners*
0 Add a 4 corners polygon primitive as box body*
4,1,4,$2,$3,$4,$5,$6,$7,$8,$9,$2,$3,0*
0 Add four circle primitives for the rounded corners*
1,1,$1+$1,$2,$3*
1,1,$1+$1,$4,$5*
1,1,$1+$1,$6,$7*
1,1,$1+$1,$8,$9*
0 Add four rect primitives between the rounded corners*
20,1,$1+$1,$2,$3,$4,$5,0*
20,1,$1+$1,$4,$5,$6,$7,0*
20,1,$1+$1,$6,$7,$8,$9,0*
20,1,$1+$1,$8,$9,$2,$3,0*%
G04 Aperture macros list end*
%ADD10RoundRect,0.250000X-0.450000X0.262500X-0.450000X-0.262500X0.450000X-0.262500X0.450000X0.262500X0*%
%ADD11RoundRect,0.250000X0.262500X0.450000X-0.262500X0.450000X-0.262500X-0.450000X0.262500X-0.450000X0*%
%ADD12R,1.320800X0.558800*%
%ADD13R,1.700000X1.700000*%
%ADD14O,1.700000X1.700000*%
%ADD15RoundRect,0.250000X0.450000X-0.262500X0.450000X0.262500X-0.450000X0.262500X-0.450000X-0.262500X0*%
%ADD16RoundRect,0.183000X0.437000X0.427000X-0.437000X0.427000X-0.437000X-0.427000X0.437000X-0.427000X0*%
%ADD17RoundRect,0.250000X-0.262500X-0.450000X0.262500X-0.450000X0.262500X0.450000X-0.262500X0.450000X0*%
%ADD18RoundRect,0.183000X-0.437000X-0.427000X0.437000X-0.427000X0.437000X0.427000X-0.437000X0.427000X0*%
G04 APERTURE END LIST*
D10*
%TO.C,R7*%
X148590000Y-108585000D03*
X148590000Y-110410000D03*
%TD*%
D11*
%TO.C,R15*%
X146685000Y-100965000D03*
X144860000Y-100965000D03*
%TD*%
D12*
%TO.C,Q4*%
X144780000Y-115570000D03*
X146812000Y-116520001D03*
X146812000Y-114619999D03*
%TD*%
D13*
%TO.C,J9*%
X135255000Y-70485000D03*
D14*
X135255000Y-73025000D03*
%TD*%
D15*
%TO.C,R8*%
X145415000Y-110410000D03*
X145415000Y-108585000D03*
%TD*%
D12*
%TO.C,Q3*%
X155575000Y-115570000D03*
X153543000Y-114619999D03*
X153543000Y-116520001D03*
%TD*%
D11*
%TO.C,R13*%
X146685000Y-103505000D03*
X144860000Y-103505000D03*
%TD*%
D13*
%TO.C,J5*%
X135255000Y-53340000D03*
D14*
X137795000Y-53340000D03*
%TD*%
D10*
%TO.C,R4*%
X155575000Y-63660000D03*
X155575000Y-65485000D03*
%TD*%
D11*
%TO.C,R14*%
X146685000Y-98425000D03*
X144860000Y-98425000D03*
%TD*%
D13*
%TO.C,J6*%
X165735000Y-53340000D03*
D14*
X163195000Y-53340000D03*
%TD*%
D13*
%TO.C,J4*%
X135255000Y-93345000D03*
D14*
X135255000Y-95885000D03*
X135255000Y-98425000D03*
X135255000Y-100965000D03*
X135255000Y-103505000D03*
X135255000Y-106045000D03*
%TD*%
D16*
%TO.C,D3*%
X166175000Y-115570000D03*
X163195000Y-115570000D03*
%TD*%
D15*
%TO.C,R3*%
X152400000Y-65485000D03*
X152400000Y-63660000D03*
%TD*%
D16*
%TO.C,D2*%
X166175000Y-58420000D03*
X163195000Y-58420000D03*
%TD*%
D10*
%TO.C,R1*%
X145415000Y-63580000D03*
X145415000Y-65405000D03*
%TD*%
D17*
%TO.C,R11*%
X154385000Y-95885000D03*
X156210000Y-95885000D03*
%TD*%
D10*
%TO.C,R5*%
X152400000Y-108585000D03*
X152400000Y-110410000D03*
%TD*%
D18*
%TO.C,D1*%
X134815000Y-58420000D03*
X137795000Y-58420000D03*
%TD*%
D13*
%TO.C,J1*%
X141605000Y-62865000D03*
D14*
X141605000Y-65405000D03*
X141605000Y-67945000D03*
X141605000Y-70485000D03*
X141605000Y-73025000D03*
X141605000Y-75565000D03*
X141605000Y-78105000D03*
X141605000Y-80645000D03*
X141605000Y-83185000D03*
X141605000Y-85725000D03*
X141605000Y-88265000D03*
X141605000Y-90805000D03*
X141605000Y-93345000D03*
X141605000Y-95885000D03*
X141605000Y-98425000D03*
X141605000Y-100965000D03*
X141605000Y-103505000D03*
X141605000Y-106045000D03*
X141605000Y-108585000D03*
X141605000Y-111125000D03*
%TD*%
D13*
%TO.C,J2*%
X159385000Y-62865000D03*
D14*
X159385000Y-65405000D03*
X159385000Y-67945000D03*
X159385000Y-70485000D03*
X159385000Y-73025000D03*
X159385000Y-75565000D03*
X159385000Y-78105000D03*
X159385000Y-80645000D03*
X159385000Y-83185000D03*
X159385000Y-85725000D03*
X159385000Y-88265000D03*
X159385000Y-90805000D03*
X159385000Y-93345000D03*
X159385000Y-95885000D03*
X159385000Y-98425000D03*
X159385000Y-100965000D03*
X159385000Y-103505000D03*
X159385000Y-106045000D03*
X159385000Y-108585000D03*
X159385000Y-111125000D03*
%TD*%
D12*
%TO.C,Q1*%
X144780000Y-58420000D03*
X146812000Y-59370001D03*
X146812000Y-57469999D03*
%TD*%
D15*
%TO.C,R6*%
X155575000Y-110410000D03*
X155575000Y-108585000D03*
%TD*%
D13*
%TO.C,J3*%
X165735000Y-90805000D03*
D14*
X165735000Y-93345000D03*
X165735000Y-95885000D03*
X165735000Y-98425000D03*
X165735000Y-100965000D03*
X165735000Y-103505000D03*
X165735000Y-106045000D03*
X165735000Y-108585000D03*
%TD*%
D17*
%TO.C,R9*%
X154385000Y-83185000D03*
X156210000Y-83185000D03*
%TD*%
D12*
%TO.C,Q2*%
X156210000Y-58420000D03*
X154178000Y-57469999D03*
X154178000Y-59370001D03*
%TD*%
D17*
%TO.C,R12*%
X154385000Y-98425000D03*
X156210000Y-98425000D03*
%TD*%
D18*
%TO.C,D4*%
X134815000Y-115570000D03*
X137795000Y-115570000D03*
%TD*%
D15*
%TO.C,R2*%
X148590000Y-65405000D03*
X148590000Y-63580000D03*
%TD*%
D13*
%TO.C,J7*%
X165735000Y-120650000D03*
D14*
X163195000Y-120650000D03*
%TD*%
D11*
%TO.C,R10*%
X156210000Y-85725000D03*
X154385000Y-85725000D03*
%TD*%
D13*
%TO.C,J8*%
X135255000Y-120650000D03*
D14*
X137795000Y-120650000D03*
%TD*%
M02*
