%TF.GenerationSoftware,KiCad,Pcbnew,7.0.6-7.0.6~ubuntu22.04.1*%
%TF.CreationDate,2023-07-14T18:36:50-05:00*%
%TF.ProjectId,picodrone_controller,7069636f-6472-46f6-9e65-5f636f6e7472,rev?*%
%TF.SameCoordinates,Original*%
%TF.FileFunction,Copper,L1,Top*%
%TF.FilePolarity,Positive*%
%FSLAX46Y46*%
G04 Gerber Fmt 4.6, Leading zero omitted, Abs format (unit mm)*
G04 Created by KiCad (PCBNEW 7.0.6-7.0.6~ubuntu22.04.1) date 2023-07-14 18:36:50*
%MOMM*%
%LPD*%
G01*
G04 APERTURE LIST*
G04 Aperture macros list*
%AMRoundRect*
0 Rectangle with rounded corners*
0 $1 Rounding radius*
0 $2 $3 $4 $5 $6 $7 $8 $9 X,Y pos of 4 corners*
0 Add a 4 corners polygon primitive as box body*
4,1,4,$2,$3,$4,$5,$6,$7,$8,$9,$2,$3,0*
0 Add four circle primitives for the rounded corners*
1,1,$1+$1,$2,$3*
1,1,$1+$1,$4,$5*
1,1,$1+$1,$6,$7*
1,1,$1+$1,$8,$9*
0 Add four rect primitives between the rounded corners*
20,1,$1+$1,$2,$3,$4,$5,0*
20,1,$1+$1,$4,$5,$6,$7,0*
20,1,$1+$1,$6,$7,$8,$9,0*
20,1,$1+$1,$8,$9,$2,$3,0*%
G04 Aperture macros list end*
%TA.AperFunction,SMDPad,CuDef*%
%ADD10RoundRect,0.250000X-0.450000X0.262500X-0.450000X-0.262500X0.450000X-0.262500X0.450000X0.262500X0*%
%TD*%
%TA.AperFunction,SMDPad,CuDef*%
%ADD11RoundRect,0.250000X0.262500X0.450000X-0.262500X0.450000X-0.262500X-0.450000X0.262500X-0.450000X0*%
%TD*%
%TA.AperFunction,SMDPad,CuDef*%
%ADD12R,1.320800X0.558800*%
%TD*%
%TA.AperFunction,ComponentPad*%
%ADD13R,1.700000X1.700000*%
%TD*%
%TA.AperFunction,ComponentPad*%
%ADD14O,1.700000X1.700000*%
%TD*%
%TA.AperFunction,SMDPad,CuDef*%
%ADD15RoundRect,0.250000X0.450000X-0.262500X0.450000X0.262500X-0.450000X0.262500X-0.450000X-0.262500X0*%
%TD*%
%TA.AperFunction,SMDPad,CuDef*%
%ADD16RoundRect,0.183000X0.437000X0.427000X-0.437000X0.427000X-0.437000X-0.427000X0.437000X-0.427000X0*%
%TD*%
%TA.AperFunction,SMDPad,CuDef*%
%ADD17RoundRect,0.250000X-0.262500X-0.450000X0.262500X-0.450000X0.262500X0.450000X-0.262500X0.450000X0*%
%TD*%
%TA.AperFunction,SMDPad,CuDef*%
%ADD18RoundRect,0.183000X-0.437000X-0.427000X0.437000X-0.427000X0.437000X0.427000X-0.437000X0.427000X0*%
%TD*%
%TA.AperFunction,ViaPad*%
%ADD19C,0.800000*%
%TD*%
%TA.AperFunction,Conductor*%
%ADD20C,1.000000*%
%TD*%
%TA.AperFunction,Conductor*%
%ADD21C,0.250000*%
%TD*%
G04 APERTURE END LIST*
D10*
%TO.P,R7,1*%
%TO.N,/m4_pwm*%
X148590000Y-108585000D03*
%TO.P,R7,2*%
%TO.N,Net-(Q4-G)*%
X148590000Y-110410000D03*
%TD*%
D11*
%TO.P,R15,1*%
%TO.N,+3.3V*%
X146685000Y-100965000D03*
%TO.P,R15,2*%
%TO.N,/sd_miso*%
X144860000Y-100965000D03*
%TD*%
D12*
%TO.P,Q4,1,D*%
%TO.N,Net-(D4-A)*%
X144780000Y-115570000D03*
%TO.P,Q4,2,G*%
%TO.N,Net-(Q4-G)*%
X146812000Y-116520001D03*
%TO.P,Q4,3,S*%
%TO.N,GND*%
X146812000Y-114619999D03*
%TD*%
D13*
%TO.P,J9,1,Pin_1*%
%TO.N,VCC*%
X135255000Y-70485000D03*
D14*
%TO.P,J9,2,Pin_2*%
%TO.N,GND*%
X135255000Y-73025000D03*
%TD*%
D15*
%TO.P,R8,1*%
%TO.N,Net-(Q4-G)*%
X145415000Y-110410000D03*
%TO.P,R8,2*%
%TO.N,GND*%
X145415000Y-108585000D03*
%TD*%
D12*
%TO.P,Q3,1,D*%
%TO.N,Net-(D3-A)*%
X155575000Y-115570000D03*
%TO.P,Q3,2,G*%
%TO.N,Net-(Q3-G)*%
X153543000Y-114619999D03*
%TO.P,Q3,3,S*%
%TO.N,GND*%
X153543000Y-116520001D03*
%TD*%
D11*
%TO.P,R13,1*%
%TO.N,+3.3V*%
X146685000Y-103505000D03*
%TO.P,R13,2*%
%TO.N,/sd_cs*%
X144860000Y-103505000D03*
%TD*%
D13*
%TO.P,J5,1,Pin_1*%
%TO.N,VCC*%
X135255000Y-53340000D03*
D14*
%TO.P,J5,2,Pin_2*%
%TO.N,Net-(D1-A)*%
X137795000Y-53340000D03*
%TD*%
D10*
%TO.P,R4,1*%
%TO.N,Net-(Q2-G)*%
X155575000Y-63660000D03*
%TO.P,R4,2*%
%TO.N,GND*%
X155575000Y-65485000D03*
%TD*%
D11*
%TO.P,R14,1*%
%TO.N,+3.3V*%
X146685000Y-98425000D03*
%TO.P,R14,2*%
%TO.N,/sd_mosi*%
X144860000Y-98425000D03*
%TD*%
D13*
%TO.P,J6,1,Pin_1*%
%TO.N,VCC*%
X165735000Y-53340000D03*
D14*
%TO.P,J6,2,Pin_2*%
%TO.N,Net-(D2-A)*%
X163195000Y-53340000D03*
%TD*%
D13*
%TO.P,J4,1,Pin_1*%
%TO.N,/sd_cs*%
X135255000Y-93345000D03*
D14*
%TO.P,J4,2,Pin_2*%
%TO.N,/sd_sck*%
X135255000Y-95885000D03*
%TO.P,J4,3,Pin_3*%
%TO.N,/sd_mosi*%
X135255000Y-98425000D03*
%TO.P,J4,4,Pin_4*%
%TO.N,/sd_miso*%
X135255000Y-100965000D03*
%TO.P,J4,5,Pin_5*%
%TO.N,+3.3V*%
X135255000Y-103505000D03*
%TO.P,J4,6,Pin_6*%
%TO.N,GND*%
X135255000Y-106045000D03*
%TD*%
D16*
%TO.P,D3,1,K*%
%TO.N,VCC*%
X166175000Y-115570000D03*
%TO.P,D3,2,A*%
%TO.N,Net-(D3-A)*%
X163195000Y-115570000D03*
%TD*%
D15*
%TO.P,R3,1*%
%TO.N,/m2_pwm*%
X152400000Y-65485000D03*
%TO.P,R3,2*%
%TO.N,Net-(Q2-G)*%
X152400000Y-63660000D03*
%TD*%
D16*
%TO.P,D2,1,K*%
%TO.N,VCC*%
X166175000Y-58420000D03*
%TO.P,D2,2,A*%
%TO.N,Net-(D2-A)*%
X163195000Y-58420000D03*
%TD*%
D10*
%TO.P,R1,1*%
%TO.N,Net-(Q1-G)*%
X145415000Y-63580000D03*
%TO.P,R1,2*%
%TO.N,GND*%
X145415000Y-65405000D03*
%TD*%
D17*
%TO.P,R11,1*%
%TO.N,+3.3V*%
X154385000Y-95885000D03*
%TO.P,R11,2*%
%TO.N,/imu_scl*%
X156210000Y-95885000D03*
%TD*%
D10*
%TO.P,R5,1*%
%TO.N,/m3_pwm*%
X152400000Y-108585000D03*
%TO.P,R5,2*%
%TO.N,Net-(Q3-G)*%
X152400000Y-110410000D03*
%TD*%
D18*
%TO.P,D1,1,K*%
%TO.N,VCC*%
X134815000Y-58420000D03*
%TO.P,D1,2,A*%
%TO.N,Net-(D1-A)*%
X137795000Y-58420000D03*
%TD*%
D13*
%TO.P,J1,1,Pin_1*%
%TO.N,unconnected-(J1-Pin_1-Pad1)*%
X141605000Y-62865000D03*
D14*
%TO.P,J1,2,Pin_2*%
%TO.N,unconnected-(J1-Pin_2-Pad2)*%
X141605000Y-65405000D03*
%TO.P,J1,3,Pin_3*%
%TO.N,GND*%
X141605000Y-67945000D03*
%TO.P,J1,4,Pin_4*%
%TO.N,unconnected-(J1-Pin_4-Pad4)*%
X141605000Y-70485000D03*
%TO.P,J1,5,Pin_5*%
%TO.N,unconnected-(J1-Pin_5-Pad5)*%
X141605000Y-73025000D03*
%TO.P,J1,6,Pin_6*%
%TO.N,unconnected-(J1-Pin_6-Pad6)*%
X141605000Y-75565000D03*
%TO.P,J1,7,Pin_7*%
%TO.N,unconnected-(J1-Pin_7-Pad7)*%
X141605000Y-78105000D03*
%TO.P,J1,8,Pin_8*%
%TO.N,GND*%
X141605000Y-80645000D03*
%TO.P,J1,9,Pin_9*%
%TO.N,/m1_pwm*%
X141605000Y-83185000D03*
%TO.P,J1,10,Pin_10*%
%TO.N,/m2_pwm*%
X141605000Y-85725000D03*
%TO.P,J1,11,Pin_11*%
%TO.N,/m3_pwm*%
X141605000Y-88265000D03*
%TO.P,J1,12,Pin_12*%
%TO.N,/m4_pwm*%
X141605000Y-90805000D03*
%TO.P,J1,13,Pin_13*%
%TO.N,GND*%
X141605000Y-93345000D03*
%TO.P,J1,14,Pin_14*%
%TO.N,/sd_sck*%
X141605000Y-95885000D03*
%TO.P,J1,15,Pin_15*%
%TO.N,/sd_mosi*%
X141605000Y-98425000D03*
%TO.P,J1,16,Pin_16*%
%TO.N,/sd_miso*%
X141605000Y-100965000D03*
%TO.P,J1,17,Pin_17*%
%TO.N,/sd_cs*%
X141605000Y-103505000D03*
%TO.P,J1,18,Pin_18*%
%TO.N,GND*%
X141605000Y-106045000D03*
%TO.P,J1,19,Pin_19*%
%TO.N,unconnected-(J1-Pin_19-Pad19)*%
X141605000Y-108585000D03*
%TO.P,J1,20,Pin_20*%
%TO.N,unconnected-(J1-Pin_20-Pad20)*%
X141605000Y-111125000D03*
%TD*%
D13*
%TO.P,J2,1,Pin_1*%
%TO.N,unconnected-(J2-Pin_1-Pad1)*%
X159385000Y-62865000D03*
D14*
%TO.P,J2,2,Pin_2*%
%TO.N,VCC*%
X159385000Y-65405000D03*
%TO.P,J2,3,Pin_3*%
%TO.N,GND*%
X159385000Y-67945000D03*
%TO.P,J2,4,Pin_4*%
%TO.N,unconnected-(J2-Pin_4-Pad4)*%
X159385000Y-70485000D03*
%TO.P,J2,5,Pin_5*%
%TO.N,+3.3V*%
X159385000Y-73025000D03*
%TO.P,J2,6,Pin_6*%
%TO.N,unconnected-(J2-Pin_6-Pad6)*%
X159385000Y-75565000D03*
%TO.P,J2,7,Pin_7*%
%TO.N,unconnected-(J2-Pin_7-Pad7)*%
X159385000Y-78105000D03*
%TO.P,J2,8,Pin_8*%
%TO.N,GND*%
X159385000Y-80645000D03*
%TO.P,J2,9,Pin_9*%
%TO.N,unconnected-(J2-Pin_9-Pad9)*%
X159385000Y-83185000D03*
%TO.P,J2,10,Pin_10*%
%TO.N,/v_measure*%
X159385000Y-85725000D03*
%TO.P,J2,11,Pin_11*%
%TO.N,unconnected-(J2-Pin_11-Pad11)*%
X159385000Y-88265000D03*
%TO.P,J2,12,Pin_12*%
%TO.N,unconnected-(J2-Pin_12-Pad12)*%
X159385000Y-90805000D03*
%TO.P,J2,13,Pin_13*%
%TO.N,GND*%
X159385000Y-93345000D03*
%TO.P,J2,14,Pin_14*%
%TO.N,/imu_scl*%
X159385000Y-95885000D03*
%TO.P,J2,15,Pin_15*%
%TO.N,/imu_sda*%
X159385000Y-98425000D03*
%TO.P,J2,16,Pin_16*%
%TO.N,unconnected-(J2-Pin_16-Pad16)*%
X159385000Y-100965000D03*
%TO.P,J2,17,Pin_17*%
%TO.N,unconnected-(J2-Pin_17-Pad17)*%
X159385000Y-103505000D03*
%TO.P,J2,18,Pin_18*%
%TO.N,GND*%
X159385000Y-106045000D03*
%TO.P,J2,19,Pin_19*%
%TO.N,unconnected-(J2-Pin_19-Pad19)*%
X159385000Y-108585000D03*
%TO.P,J2,20,Pin_20*%
%TO.N,unconnected-(J2-Pin_20-Pad20)*%
X159385000Y-111125000D03*
%TD*%
D12*
%TO.P,Q1,1,D*%
%TO.N,Net-(D1-A)*%
X144780000Y-58420000D03*
%TO.P,Q1,2,G*%
%TO.N,Net-(Q1-G)*%
X146812000Y-59370001D03*
%TO.P,Q1,3,S*%
%TO.N,GND*%
X146812000Y-57469999D03*
%TD*%
D15*
%TO.P,R6,1*%
%TO.N,Net-(Q3-G)*%
X155575000Y-110410000D03*
%TO.P,R6,2*%
%TO.N,GND*%
X155575000Y-108585000D03*
%TD*%
D13*
%TO.P,J3,1,Pin_1*%
%TO.N,+3.3V*%
X165735000Y-90805000D03*
D14*
%TO.P,J3,2,Pin_2*%
%TO.N,GND*%
X165735000Y-93345000D03*
%TO.P,J3,3,Pin_3*%
%TO.N,/imu_scl*%
X165735000Y-95885000D03*
%TO.P,J3,4,Pin_4*%
%TO.N,/imu_sda*%
X165735000Y-98425000D03*
%TO.P,J3,5,Pin_5*%
%TO.N,unconnected-(J3-Pin_5-Pad5)*%
X165735000Y-100965000D03*
%TO.P,J3,6,Pin_6*%
%TO.N,unconnected-(J3-Pin_6-Pad6)*%
X165735000Y-103505000D03*
%TO.P,J3,7,Pin_7*%
%TO.N,GND*%
X165735000Y-106045000D03*
%TO.P,J3,8,Pin_8*%
%TO.N,/imu_int*%
X165735000Y-108585000D03*
%TD*%
D17*
%TO.P,R9,1*%
%TO.N,VCC*%
X154385000Y-83185000D03*
%TO.P,R9,2*%
%TO.N,/v_measure*%
X156210000Y-83185000D03*
%TD*%
D12*
%TO.P,Q2,1,D*%
%TO.N,Net-(D2-A)*%
X156210000Y-58420000D03*
%TO.P,Q2,2,G*%
%TO.N,Net-(Q2-G)*%
X154178000Y-57469999D03*
%TO.P,Q2,3,S*%
%TO.N,GND*%
X154178000Y-59370001D03*
%TD*%
D17*
%TO.P,R12,1*%
%TO.N,+3.3V*%
X154385000Y-98425000D03*
%TO.P,R12,2*%
%TO.N,/imu_sda*%
X156210000Y-98425000D03*
%TD*%
D18*
%TO.P,D4,1,K*%
%TO.N,VCC*%
X134815000Y-115570000D03*
%TO.P,D4,2,A*%
%TO.N,Net-(D4-A)*%
X137795000Y-115570000D03*
%TD*%
D15*
%TO.P,R2,1*%
%TO.N,/m1_pwm*%
X148590000Y-65405000D03*
%TO.P,R2,2*%
%TO.N,Net-(Q1-G)*%
X148590000Y-63580000D03*
%TD*%
D13*
%TO.P,J7,1,Pin_1*%
%TO.N,VCC*%
X165735000Y-120650000D03*
D14*
%TO.P,J7,2,Pin_2*%
%TO.N,Net-(D3-A)*%
X163195000Y-120650000D03*
%TD*%
D11*
%TO.P,R10,1*%
%TO.N,/v_measure*%
X156210000Y-85725000D03*
%TO.P,R10,2*%
%TO.N,GND*%
X154385000Y-85725000D03*
%TD*%
D13*
%TO.P,J8,1,Pin_1*%
%TO.N,VCC*%
X135255000Y-120650000D03*
D14*
%TO.P,J8,2,Pin_2*%
%TO.N,Net-(D4-A)*%
X137795000Y-120650000D03*
%TD*%
D19*
%TO.N,VCC*%
X156845000Y-78740000D03*
%TO.N,GND*%
X154305000Y-67310000D03*
X155575000Y-106680000D03*
X148590000Y-57150000D03*
X145415000Y-106680000D03*
X145415000Y-67310000D03*
X153670000Y-61595000D03*
X152400000Y-85725000D03*
X147320000Y-113030000D03*
X151765000Y-116840000D03*
%TO.N,/m3_pwm*%
X152400000Y-102235000D03*
X145415000Y-92075000D03*
%TO.N,/m4_pwm*%
X144780000Y-93980000D03*
X148590000Y-104775000D03*
%TD*%
D20*
%TO.N,GND*%
X153543000Y-116520001D02*
X152084999Y-116520001D01*
X152084999Y-116520001D02*
X151765000Y-116840000D01*
D21*
X155575000Y-108585000D02*
X155575000Y-106680000D01*
X145415000Y-108585000D02*
X145415000Y-106680000D01*
X154305000Y-67310000D02*
X155575000Y-66040000D01*
X155575000Y-66040000D02*
X155575000Y-65485000D01*
%TO.N,VCC*%
X154305000Y-83105000D02*
X154385000Y-83185000D01*
D20*
%TO.N,Net-(D1-A)*%
X137795000Y-58420000D02*
X144780000Y-58420000D01*
X137795000Y-58420000D02*
X137795000Y-53340000D01*
%TO.N,Net-(D2-A)*%
X163195000Y-58420000D02*
X156210000Y-58420000D01*
X163195000Y-58420000D02*
X163195000Y-53340000D01*
%TO.N,Net-(D3-A)*%
X163195000Y-115570000D02*
X155575000Y-115570000D01*
X163195000Y-115570000D02*
X163195000Y-120650000D01*
%TO.N,Net-(D4-A)*%
X144780000Y-115570000D02*
X137795000Y-115570000D01*
X137795000Y-115570000D02*
X137795000Y-120650000D01*
D21*
%TO.N,/imu_sda*%
X165735000Y-98425000D02*
X159385000Y-98425000D01*
X156210000Y-98425000D02*
X159385000Y-98425000D01*
%TO.N,/imu_scl*%
X165735000Y-95885000D02*
X159385000Y-95885000D01*
X156210000Y-95885000D02*
X159385000Y-95885000D01*
D20*
%TO.N,GND*%
X153670000Y-61595000D02*
X154178000Y-61087000D01*
X148270001Y-57469999D02*
X148590000Y-57150000D01*
X146812000Y-113538000D02*
X146812000Y-114619999D01*
X154178000Y-61087000D02*
X154178000Y-59370001D01*
D21*
X145415000Y-67310000D02*
X145415000Y-65405000D01*
D20*
X154385000Y-85725000D02*
X152400000Y-85725000D01*
X146812000Y-57469999D02*
X148270001Y-57469999D01*
X147320000Y-113030000D02*
X146812000Y-113538000D01*
D21*
%TO.N,/sd_sck*%
X135255000Y-95885000D02*
X141605000Y-95885000D01*
%TO.N,/sd_mosi*%
X144860000Y-98425000D02*
X141605000Y-98425000D01*
X135255000Y-98425000D02*
X141605000Y-98425000D01*
%TO.N,/sd_miso*%
X144860000Y-100965000D02*
X141605000Y-100965000D01*
X135255000Y-100965000D02*
X141605000Y-100965000D01*
%TO.N,/sd_cs*%
X144860000Y-103505000D02*
X141605000Y-103505000D01*
%TO.N,/m1_pwm*%
X148590000Y-76200000D02*
X141605000Y-83185000D01*
X148590000Y-65405000D02*
X148590000Y-76200000D01*
%TO.N,/m2_pwm*%
X152400000Y-65485000D02*
X152400000Y-74930000D01*
X152400000Y-74930000D02*
X141605000Y-85725000D01*
%TO.N,/m3_pwm*%
X145415000Y-92075000D02*
X141605000Y-88265000D01*
X152400000Y-108585000D02*
X152400000Y-102235000D01*
%TO.N,/m4_pwm*%
X148590000Y-104775000D02*
X148590000Y-108585000D01*
X141605000Y-90805000D02*
X144780000Y-93980000D01*
%TO.N,+3.3V*%
X146685000Y-100965000D02*
X146685000Y-98425000D01*
X146685000Y-85725000D02*
X159385000Y-73025000D01*
X165735000Y-79375000D02*
X159385000Y-73025000D01*
X135255000Y-103505000D02*
X136525000Y-104775000D01*
X146685000Y-98425000D02*
X146685000Y-85725000D01*
X154385000Y-95885000D02*
X154385000Y-98425000D01*
X154385000Y-98425000D02*
X146685000Y-98425000D01*
X165735000Y-90805000D02*
X165735000Y-79375000D01*
X136525000Y-104775000D02*
X145415000Y-104775000D01*
X145415000Y-104775000D02*
X146685000Y-103505000D01*
X146685000Y-103505000D02*
X146685000Y-100965000D01*
%TO.N,/v_measure*%
X156210000Y-85725000D02*
X159385000Y-85725000D01*
X156210000Y-85725000D02*
X156210000Y-83185000D01*
%TO.N,Net-(Q1-G)*%
X148590000Y-63580000D02*
X148590000Y-61148001D01*
X145415000Y-63580000D02*
X148590000Y-63580000D01*
X148590000Y-61148001D02*
X146812000Y-59370001D01*
%TO.N,Net-(Q2-G)*%
X152400000Y-63660000D02*
X152400000Y-59247999D01*
X152400000Y-59247999D02*
X154178000Y-57469999D01*
X155575000Y-63660000D02*
X152400000Y-63660000D01*
%TO.N,Net-(Q3-G)*%
X152400000Y-110410000D02*
X155575000Y-110410000D01*
X152400000Y-113476999D02*
X152400000Y-110410000D01*
X153543000Y-114619999D02*
X152400000Y-113476999D01*
%TO.N,Net-(Q4-G)*%
X148590000Y-114742001D02*
X148590000Y-110410000D01*
X146812000Y-116520001D02*
X148590000Y-114742001D01*
X145415000Y-110410000D02*
X148590000Y-110410000D01*
%TD*%
%TA.AperFunction,Conductor*%
%TO.N,VCC*%
G36*
X157948675Y-75448429D02*
G01*
X158004608Y-75490301D01*
X158029025Y-75555765D01*
X158029341Y-75564611D01*
X158029341Y-75565000D01*
X158049936Y-75800403D01*
X158049938Y-75800413D01*
X158111094Y-76028655D01*
X158111096Y-76028659D01*
X158111097Y-76028663D01*
X158175874Y-76167577D01*
X158210965Y-76242830D01*
X158210967Y-76242834D01*
X158346501Y-76436395D01*
X158346506Y-76436402D01*
X158513597Y-76603493D01*
X158513603Y-76603498D01*
X158699158Y-76733425D01*
X158742783Y-76788002D01*
X158749977Y-76857500D01*
X158718454Y-76919855D01*
X158699158Y-76936575D01*
X158513597Y-77066505D01*
X158346505Y-77233597D01*
X158210965Y-77427169D01*
X158210964Y-77427171D01*
X158111098Y-77641335D01*
X158111094Y-77641344D01*
X158049938Y-77869586D01*
X158049936Y-77869596D01*
X158029341Y-78104999D01*
X158029341Y-78105000D01*
X158049936Y-78340403D01*
X158049938Y-78340413D01*
X158111094Y-78568655D01*
X158111096Y-78568659D01*
X158111097Y-78568663D01*
X158210964Y-78782830D01*
X158210965Y-78782830D01*
X158210967Y-78782834D01*
X158346501Y-78976395D01*
X158346506Y-78976402D01*
X158513597Y-79143493D01*
X158513603Y-79143498D01*
X158699158Y-79273425D01*
X158742783Y-79328002D01*
X158749977Y-79397500D01*
X158718454Y-79459855D01*
X158699158Y-79476575D01*
X158513597Y-79606505D01*
X158346505Y-79773597D01*
X158210965Y-79967169D01*
X158210964Y-79967171D01*
X158111098Y-80181335D01*
X158111094Y-80181344D01*
X158049938Y-80409586D01*
X158049936Y-80409596D01*
X158029341Y-80644999D01*
X158029341Y-80645000D01*
X158049936Y-80880403D01*
X158049938Y-80880413D01*
X158111094Y-81108655D01*
X158111096Y-81108659D01*
X158111097Y-81108663D01*
X158210964Y-81322830D01*
X158210965Y-81322830D01*
X158210967Y-81322834D01*
X158346501Y-81516395D01*
X158346506Y-81516402D01*
X158513597Y-81683493D01*
X158513603Y-81683498D01*
X158699158Y-81813425D01*
X158742783Y-81868002D01*
X158749977Y-81937500D01*
X158718454Y-81999855D01*
X158699158Y-82016575D01*
X158513597Y-82146505D01*
X158346505Y-82313597D01*
X158210965Y-82507169D01*
X158210964Y-82507171D01*
X158111098Y-82721335D01*
X158111094Y-82721344D01*
X158049938Y-82949586D01*
X158049936Y-82949596D01*
X158029341Y-83184999D01*
X158029341Y-83185000D01*
X158049936Y-83420403D01*
X158049938Y-83420413D01*
X158111094Y-83648655D01*
X158111096Y-83648659D01*
X158111097Y-83648663D01*
X158210964Y-83862829D01*
X158210965Y-83862830D01*
X158210967Y-83862834D01*
X158346501Y-84056395D01*
X158346506Y-84056402D01*
X158513597Y-84223493D01*
X158513603Y-84223498D01*
X158699158Y-84353425D01*
X158742783Y-84408002D01*
X158749977Y-84477500D01*
X158718454Y-84539855D01*
X158699158Y-84556575D01*
X158513597Y-84686505D01*
X158346505Y-84853597D01*
X158211348Y-85046623D01*
X158156771Y-85090248D01*
X158109773Y-85099500D01*
X157294517Y-85099500D01*
X157227478Y-85079815D01*
X157181723Y-85027011D01*
X157176811Y-85014505D01*
X157157314Y-84955666D01*
X157065212Y-84806344D01*
X156941156Y-84682288D01*
X156941155Y-84682288D01*
X156941155Y-84682287D01*
X156894402Y-84653449D01*
X156847678Y-84601500D01*
X156835500Y-84547911D01*
X156835500Y-84362087D01*
X156855185Y-84295048D01*
X156894402Y-84256548D01*
X156941156Y-84227712D01*
X157065212Y-84103656D01*
X157157314Y-83954334D01*
X157212499Y-83787797D01*
X157223000Y-83685009D01*
X157222999Y-82684992D01*
X157212499Y-82582203D01*
X157157314Y-82415666D01*
X157065212Y-82266344D01*
X156941156Y-82142288D01*
X156791834Y-82050186D01*
X156625297Y-81995001D01*
X156625295Y-81995000D01*
X156522510Y-81984500D01*
X155897498Y-81984500D01*
X155897480Y-81984501D01*
X155794703Y-81995000D01*
X155794700Y-81995001D01*
X155628168Y-82050185D01*
X155628163Y-82050187D01*
X155478845Y-82142287D01*
X155384827Y-82236305D01*
X155323503Y-82269789D01*
X155253812Y-82264805D01*
X155209465Y-82236304D01*
X155115845Y-82142684D01*
X154966624Y-82050643D01*
X154966619Y-82050641D01*
X154800197Y-81995494D01*
X154800190Y-81995493D01*
X154697486Y-81985000D01*
X154635000Y-81985000D01*
X154635000Y-83311000D01*
X154615315Y-83378039D01*
X154562511Y-83423794D01*
X154511000Y-83435000D01*
X153372501Y-83435000D01*
X153372501Y-83684986D01*
X153382994Y-83787697D01*
X153438141Y-83954119D01*
X153438143Y-83954124D01*
X153530184Y-84103345D01*
X153654154Y-84227315D01*
X153803375Y-84319356D01*
X153803382Y-84319359D01*
X153856711Y-84337030D01*
X153914156Y-84376802D01*
X153940980Y-84441317D01*
X153928666Y-84510093D01*
X153881123Y-84561294D01*
X153856714Y-84572441D01*
X153803172Y-84590184D01*
X153803163Y-84590187D01*
X153653842Y-84682289D01*
X153647951Y-84688181D01*
X153586628Y-84721666D01*
X153560270Y-84724500D01*
X152349257Y-84724500D01*
X152197560Y-84739925D01*
X152003420Y-84800837D01*
X152003405Y-84800844D01*
X151825500Y-84899589D01*
X151825495Y-84899592D01*
X151671106Y-85032132D01*
X151671104Y-85032134D01*
X151546554Y-85193037D01*
X151546553Y-85193040D01*
X151456940Y-85375728D01*
X151405937Y-85572714D01*
X151395631Y-85775936D01*
X151426442Y-85977063D01*
X151426445Y-85977075D01*
X151497111Y-86167881D01*
X151497113Y-86167884D01*
X151497114Y-86167887D01*
X151543005Y-86241513D01*
X151604745Y-86340567D01*
X151604749Y-86340572D01*
X151694980Y-86435495D01*
X151744941Y-86488053D01*
X151835058Y-86550776D01*
X151911949Y-86604294D01*
X151911950Y-86604294D01*
X151911951Y-86604295D01*
X152098942Y-86684540D01*
X152298259Y-86725500D01*
X153560270Y-86725500D01*
X153627309Y-86745185D01*
X153647951Y-86761819D01*
X153653844Y-86767712D01*
X153803166Y-86859814D01*
X153969703Y-86914999D01*
X154072491Y-86925500D01*
X154697508Y-86925499D01*
X154697516Y-86925498D01*
X154697519Y-86925498D01*
X154753802Y-86919748D01*
X154800297Y-86914999D01*
X154966834Y-86859814D01*
X155116156Y-86767712D01*
X155209819Y-86674049D01*
X155271142Y-86640564D01*
X155340834Y-86645548D01*
X155385181Y-86674048D01*
X155478844Y-86767712D01*
X155628166Y-86859814D01*
X155794703Y-86914999D01*
X155897491Y-86925500D01*
X156522508Y-86925499D01*
X156522516Y-86925498D01*
X156522519Y-86925498D01*
X156578802Y-86919748D01*
X156625297Y-86914999D01*
X156791834Y-86859814D01*
X156941156Y-86767712D01*
X157065212Y-86643656D01*
X157157314Y-86494334D01*
X157176811Y-86435493D01*
X157216584Y-86378051D01*
X157281100Y-86351228D01*
X157294517Y-86350500D01*
X158109773Y-86350500D01*
X158176812Y-86370185D01*
X158211348Y-86403377D01*
X158346501Y-86596396D01*
X158346506Y-86596402D01*
X158513597Y-86763493D01*
X158513603Y-86763498D01*
X158699158Y-86893425D01*
X158742783Y-86948002D01*
X158749977Y-87017500D01*
X158718454Y-87079855D01*
X158699158Y-87096575D01*
X158513597Y-87226505D01*
X158346505Y-87393597D01*
X158210965Y-87587169D01*
X158210964Y-87587171D01*
X158111098Y-87801335D01*
X158111094Y-87801344D01*
X158049938Y-88029586D01*
X158049936Y-88029596D01*
X158029341Y-88264999D01*
X158029341Y-88265000D01*
X158049936Y-88500403D01*
X158049938Y-88500413D01*
X158111094Y-88728655D01*
X158111096Y-88728659D01*
X158111097Y-88728663D01*
X158210964Y-88942830D01*
X158210965Y-88942830D01*
X158210967Y-88942834D01*
X158346501Y-89136395D01*
X158346506Y-89136402D01*
X158513597Y-89303493D01*
X158513603Y-89303498D01*
X158699158Y-89433425D01*
X158742783Y-89488002D01*
X158749977Y-89557500D01*
X158718454Y-89619855D01*
X158699158Y-89636575D01*
X158513597Y-89766505D01*
X158346505Y-89933597D01*
X158210965Y-90127169D01*
X158210964Y-90127171D01*
X158111098Y-90341335D01*
X158111094Y-90341344D01*
X158049938Y-90569586D01*
X158049936Y-90569596D01*
X158029341Y-90804999D01*
X158029341Y-90805000D01*
X158049936Y-91040403D01*
X158049938Y-91040413D01*
X158111094Y-91268655D01*
X158111096Y-91268659D01*
X158111097Y-91268663D01*
X158193331Y-91445013D01*
X158210965Y-91482830D01*
X158210967Y-91482834D01*
X158346501Y-91676395D01*
X158346506Y-91676402D01*
X158513597Y-91843493D01*
X158513603Y-91843498D01*
X158699158Y-91973425D01*
X158742783Y-92028002D01*
X158749977Y-92097500D01*
X158718454Y-92159855D01*
X158699158Y-92176575D01*
X158513597Y-92306505D01*
X158346505Y-92473597D01*
X158210965Y-92667169D01*
X158210964Y-92667171D01*
X158111098Y-92881335D01*
X158111094Y-92881344D01*
X158049938Y-93109586D01*
X158049936Y-93109596D01*
X158029341Y-93344999D01*
X158029341Y-93345000D01*
X158049936Y-93580403D01*
X158049938Y-93580413D01*
X158111094Y-93808655D01*
X158111096Y-93808659D01*
X158111097Y-93808663D01*
X158182187Y-93961115D01*
X158210965Y-94022830D01*
X158210967Y-94022834D01*
X158346501Y-94216395D01*
X158346506Y-94216402D01*
X158513597Y-94383493D01*
X158513603Y-94383498D01*
X158699158Y-94513425D01*
X158742783Y-94568002D01*
X158749977Y-94637500D01*
X158718454Y-94699855D01*
X158699158Y-94716575D01*
X158513597Y-94846505D01*
X158346505Y-95013597D01*
X158211348Y-95206623D01*
X158156771Y-95250248D01*
X158109773Y-95259500D01*
X157294517Y-95259500D01*
X157227478Y-95239815D01*
X157181723Y-95187011D01*
X157176811Y-95174505D01*
X157157314Y-95115666D01*
X157065212Y-94966344D01*
X156941156Y-94842288D01*
X156791834Y-94750186D01*
X156625297Y-94695001D01*
X156625295Y-94695000D01*
X156522510Y-94684500D01*
X155897498Y-94684500D01*
X155897480Y-94684501D01*
X155794703Y-94695000D01*
X155794700Y-94695001D01*
X155628168Y-94750185D01*
X155628163Y-94750187D01*
X155478842Y-94842289D01*
X155385181Y-94935951D01*
X155323858Y-94969436D01*
X155254166Y-94964452D01*
X155209819Y-94935951D01*
X155116157Y-94842289D01*
X155116156Y-94842288D01*
X154966834Y-94750186D01*
X154800297Y-94695001D01*
X154800295Y-94695000D01*
X154697510Y-94684500D01*
X154072498Y-94684500D01*
X154072480Y-94684501D01*
X153969703Y-94695000D01*
X153969700Y-94695001D01*
X153803168Y-94750185D01*
X153803163Y-94750187D01*
X153653842Y-94842289D01*
X153529789Y-94966342D01*
X153437687Y-95115663D01*
X153437685Y-95115666D01*
X153437686Y-95115666D01*
X153382501Y-95282203D01*
X153382501Y-95282204D01*
X153382500Y-95282204D01*
X153372000Y-95384983D01*
X153372000Y-96385001D01*
X153372001Y-96385019D01*
X153382500Y-96487796D01*
X153382501Y-96487799D01*
X153437685Y-96654331D01*
X153437686Y-96654334D01*
X153529788Y-96803656D01*
X153653844Y-96927712D01*
X153700596Y-96956548D01*
X153747320Y-97008494D01*
X153759500Y-97062087D01*
X153759500Y-97247911D01*
X153739815Y-97314950D01*
X153700598Y-97353449D01*
X153653844Y-97382287D01*
X153529789Y-97506342D01*
X153437687Y-97655663D01*
X153437686Y-97655666D01*
X153418189Y-97714505D01*
X153378416Y-97771949D01*
X153313900Y-97798772D01*
X153300483Y-97799500D01*
X147769517Y-97799500D01*
X147702478Y-97779815D01*
X147656723Y-97727011D01*
X147651811Y-97714505D01*
X147632314Y-97655666D01*
X147540212Y-97506344D01*
X147416156Y-97382288D01*
X147416155Y-97382287D01*
X147369402Y-97353449D01*
X147322678Y-97301500D01*
X147310500Y-97247911D01*
X147310500Y-86035451D01*
X147330185Y-85968412D01*
X147346814Y-85947775D01*
X150359589Y-82935000D01*
X153372500Y-82935000D01*
X154135000Y-82935000D01*
X154135000Y-81985000D01*
X154134999Y-81984999D01*
X154072528Y-81985000D01*
X154072511Y-81985001D01*
X153969802Y-81995494D01*
X153803380Y-82050641D01*
X153803375Y-82050643D01*
X153654154Y-82142684D01*
X153530184Y-82266654D01*
X153438143Y-82415875D01*
X153438141Y-82415880D01*
X153382994Y-82582302D01*
X153382993Y-82582309D01*
X153372500Y-82685013D01*
X153372500Y-82935000D01*
X150359589Y-82935000D01*
X157817660Y-75476929D01*
X157878983Y-75443445D01*
X157948675Y-75448429D01*
G37*
%TD.AperFunction*%
%TA.AperFunction,Conductor*%
G36*
X168217539Y-51455185D02*
G01*
X168263294Y-51507989D01*
X168274500Y-51559500D01*
X168274500Y-122430500D01*
X168254815Y-122497539D01*
X168202011Y-122543294D01*
X168150500Y-122554500D01*
X132839500Y-122554500D01*
X132772461Y-122534815D01*
X132726706Y-122482011D01*
X132715500Y-122430500D01*
X132715500Y-115820000D01*
X133695001Y-115820000D01*
X133695001Y-116052204D01*
X133701253Y-116121018D01*
X133750596Y-116279367D01*
X133836407Y-116421315D01*
X133953684Y-116538592D01*
X134095628Y-116624401D01*
X134253985Y-116673746D01*
X134322805Y-116679999D01*
X134564999Y-116679999D01*
X134565000Y-116679998D01*
X134565000Y-115820000D01*
X135065000Y-115820000D01*
X135065000Y-116679999D01*
X135307203Y-116679999D01*
X135376018Y-116673746D01*
X135534367Y-116624403D01*
X135676315Y-116538592D01*
X135793592Y-116421315D01*
X135879401Y-116279371D01*
X135928746Y-116121014D01*
X135935000Y-116052194D01*
X135935000Y-115820000D01*
X135065000Y-115820000D01*
X134565000Y-115820000D01*
X133695001Y-115820000D01*
X132715500Y-115820000D01*
X132715500Y-115087805D01*
X133694999Y-115087805D01*
X133695000Y-115320000D01*
X134565000Y-115320000D01*
X134565000Y-114460000D01*
X135065000Y-114460000D01*
X135065000Y-115320000D01*
X135934999Y-115320000D01*
X135934999Y-115087795D01*
X135928746Y-115018981D01*
X135879403Y-114860632D01*
X135793592Y-114718684D01*
X135676315Y-114601407D01*
X135534371Y-114515598D01*
X135376014Y-114466253D01*
X135307194Y-114460000D01*
X135065000Y-114460000D01*
X134565000Y-114460000D01*
X134322795Y-114460000D01*
X134253981Y-114466253D01*
X134095632Y-114515596D01*
X133953684Y-114601407D01*
X133836407Y-114718684D01*
X133750598Y-114860628D01*
X133701253Y-115018985D01*
X133694999Y-115087805D01*
X132715500Y-115087805D01*
X132715500Y-106045000D01*
X133899341Y-106045000D01*
X133919936Y-106280403D01*
X133919938Y-106280413D01*
X133981094Y-106508655D01*
X133981096Y-106508659D01*
X133981097Y-106508663D01*
X134060993Y-106679999D01*
X134080965Y-106722830D01*
X134080967Y-106722834D01*
X134182793Y-106868256D01*
X134216505Y-106916401D01*
X134383599Y-107083495D01*
X134480384Y-107151264D01*
X134577165Y-107219032D01*
X134577167Y-107219033D01*
X134577170Y-107219035D01*
X134791337Y-107318903D01*
X135019592Y-107380063D01*
X135207918Y-107396539D01*
X135254999Y-107400659D01*
X135255000Y-107400659D01*
X135255001Y-107400659D01*
X135294234Y-107397226D01*
X135490408Y-107380063D01*
X135718663Y-107318903D01*
X135932830Y-107219035D01*
X136126401Y-107083495D01*
X136293495Y-106916401D01*
X136429035Y-106722830D01*
X136528903Y-106508663D01*
X136590063Y-106280408D01*
X136610659Y-106045000D01*
X136590063Y-105809592D01*
X136528903Y-105581337D01*
X136526837Y-105576906D01*
X136516344Y-105507829D01*
X136544863Y-105444045D01*
X136603339Y-105405804D01*
X136639218Y-105400500D01*
X140220782Y-105400500D01*
X140287821Y-105420185D01*
X140333576Y-105472989D01*
X140343520Y-105542147D01*
X140333163Y-105576906D01*
X140331099Y-105581330D01*
X140331094Y-105581344D01*
X140269938Y-105809586D01*
X140269936Y-105809596D01*
X140249341Y-106044999D01*
X140249341Y-106045000D01*
X140269936Y-106280403D01*
X140269938Y-106280413D01*
X140331094Y-106508655D01*
X140331096Y-106508659D01*
X140331097Y-106508663D01*
X140410993Y-106679999D01*
X140430965Y-106722830D01*
X140430967Y-106722834D01*
X140566501Y-106916395D01*
X140566506Y-106916402D01*
X140733597Y-107083493D01*
X140733603Y-107083498D01*
X140919158Y-107213425D01*
X140962783Y-107268002D01*
X140969977Y-107337500D01*
X140938454Y-107399855D01*
X140919158Y-107416575D01*
X140733597Y-107546505D01*
X140566505Y-107713597D01*
X140430965Y-107907169D01*
X140430964Y-107907171D01*
X140331098Y-108121335D01*
X140331094Y-108121344D01*
X140269938Y-108349586D01*
X140269936Y-108349596D01*
X140249341Y-108584999D01*
X140249341Y-108585000D01*
X140269936Y-108820403D01*
X140269938Y-108820413D01*
X140331094Y-109048655D01*
X140331096Y-109048659D01*
X140331097Y-109048663D01*
X140386200Y-109166831D01*
X140430965Y-109262830D01*
X140430967Y-109262834D01*
X140566501Y-109456395D01*
X140566506Y-109456402D01*
X140733597Y-109623493D01*
X140733603Y-109623498D01*
X140919158Y-109753425D01*
X140962783Y-109808002D01*
X140969977Y-109877500D01*
X140938454Y-109939855D01*
X140919158Y-109956575D01*
X140733597Y-110086505D01*
X140566505Y-110253597D01*
X140430965Y-110447169D01*
X140430964Y-110447171D01*
X140331098Y-110661335D01*
X140331094Y-110661344D01*
X140269938Y-110889586D01*
X140269936Y-110889596D01*
X140249341Y-111124999D01*
X140249341Y-111125000D01*
X140269936Y-111360403D01*
X140269938Y-111360413D01*
X140331094Y-111588655D01*
X140331096Y-111588659D01*
X140331097Y-111588663D01*
X140430964Y-111802830D01*
X140430965Y-111802830D01*
X140430967Y-111802834D01*
X140539281Y-111957521D01*
X140566505Y-111996401D01*
X140733599Y-112163495D01*
X140830384Y-112231264D01*
X140927165Y-112299032D01*
X140927167Y-112299033D01*
X140927170Y-112299035D01*
X141141337Y-112398903D01*
X141369592Y-112460063D01*
X141557918Y-112476539D01*
X141604999Y-112480659D01*
X141605000Y-112480659D01*
X141605001Y-112480659D01*
X141644234Y-112477226D01*
X141840408Y-112460063D01*
X142068663Y-112398903D01*
X142282830Y-112299035D01*
X142476401Y-112163495D01*
X142643495Y-111996401D01*
X142779035Y-111802830D01*
X142878903Y-111588663D01*
X142940063Y-111360408D01*
X142960659Y-111125000D01*
X142940063Y-110889592D01*
X142878903Y-110661337D01*
X142779035Y-110447171D01*
X142643495Y-110253599D01*
X142643494Y-110253597D01*
X142476402Y-110086506D01*
X142476396Y-110086501D01*
X142290842Y-109956575D01*
X142247217Y-109901998D01*
X142240023Y-109832500D01*
X142271546Y-109770145D01*
X142290842Y-109753425D01*
X142397353Y-109678845D01*
X142476401Y-109623495D01*
X142643495Y-109456401D01*
X142779035Y-109262830D01*
X142878903Y-109048663D01*
X142940063Y-108820408D01*
X142960659Y-108585000D01*
X142940063Y-108349592D01*
X142878903Y-108121337D01*
X142779035Y-107907171D01*
X142741696Y-107853844D01*
X142643494Y-107713597D01*
X142476402Y-107546506D01*
X142476396Y-107546501D01*
X142290842Y-107416575D01*
X142247217Y-107361998D01*
X142240023Y-107292500D01*
X142271546Y-107230145D01*
X142290842Y-107213425D01*
X142313026Y-107197891D01*
X142476401Y-107083495D01*
X142643495Y-106916401D01*
X142779035Y-106722830D01*
X142878903Y-106508663D01*
X142940063Y-106280408D01*
X142960659Y-106045000D01*
X142940063Y-105809592D01*
X142878903Y-105581337D01*
X142876837Y-105576906D01*
X142866344Y-105507829D01*
X142894863Y-105444045D01*
X142953339Y-105405804D01*
X142989218Y-105400500D01*
X145332257Y-105400500D01*
X145347877Y-105402224D01*
X145347904Y-105401939D01*
X145355660Y-105402671D01*
X145355667Y-105402673D01*
X145424814Y-105400500D01*
X145454350Y-105400500D01*
X145461228Y-105399630D01*
X145467041Y-105399172D01*
X145513627Y-105397709D01*
X145532869Y-105392117D01*
X145551912Y-105388174D01*
X145571792Y-105385664D01*
X145615122Y-105368507D01*
X145620646Y-105366617D01*
X145624396Y-105365527D01*
X145665390Y-105353618D01*
X145682629Y-105343422D01*
X145700103Y-105334862D01*
X145718727Y-105327488D01*
X145718727Y-105327487D01*
X145718732Y-105327486D01*
X145756449Y-105300082D01*
X145761305Y-105296892D01*
X145801420Y-105273170D01*
X145815589Y-105258999D01*
X145830379Y-105246368D01*
X145846587Y-105234594D01*
X145876299Y-105198676D01*
X145880212Y-105194376D01*
X146332772Y-104741816D01*
X146394093Y-104708333D01*
X146420442Y-104705499D01*
X146997508Y-104705499D01*
X146997516Y-104705498D01*
X146997519Y-104705498D01*
X147053802Y-104699748D01*
X147100297Y-104694999D01*
X147266834Y-104639814D01*
X147416156Y-104547712D01*
X147496645Y-104467222D01*
X147557964Y-104433740D01*
X147627656Y-104438724D01*
X147683590Y-104480595D01*
X147708007Y-104546059D01*
X147705615Y-104580681D01*
X147704326Y-104586742D01*
X147691547Y-104708333D01*
X147684540Y-104775000D01*
X147704326Y-104963256D01*
X147704327Y-104963259D01*
X147762818Y-105143277D01*
X147762821Y-105143284D01*
X147857467Y-105307216D01*
X147882360Y-105334862D01*
X147932650Y-105390715D01*
X147962880Y-105453706D01*
X147964500Y-105473687D01*
X147964500Y-107500483D01*
X147944815Y-107567522D01*
X147892011Y-107613277D01*
X147879510Y-107618186D01*
X147820666Y-107637685D01*
X147820666Y-107637686D01*
X147820663Y-107637687D01*
X147671342Y-107729789D01*
X147547289Y-107853842D01*
X147455187Y-108003163D01*
X147455185Y-108003166D01*
X147455186Y-108003166D01*
X147400001Y-108169703D01*
X147400001Y-108169704D01*
X147400000Y-108169704D01*
X147389500Y-108272483D01*
X147389500Y-108897501D01*
X147389501Y-108897519D01*
X147400000Y-109000296D01*
X147400001Y-109000299D01*
X147416028Y-109048664D01*
X147455186Y-109166834D01*
X147514396Y-109262830D01*
X147547289Y-109316157D01*
X147640951Y-109409819D01*
X147674436Y-109471142D01*
X147669452Y-109540834D01*
X147640951Y-109585181D01*
X147547289Y-109678842D01*
X147518451Y-109725597D01*
X147466503Y-109772321D01*
X147412912Y-109784500D01*
X146592088Y-109784500D01*
X146525049Y-109764815D01*
X146486549Y-109725597D01*
X146457712Y-109678844D01*
X146364048Y-109585181D01*
X146330564Y-109523858D01*
X146335548Y-109454166D01*
X146364049Y-109409819D01*
X146364048Y-109409818D01*
X146457712Y-109316156D01*
X146549814Y-109166834D01*
X146604999Y-109000297D01*
X146615500Y-108897509D01*
X146615499Y-108272492D01*
X146604999Y-108169703D01*
X146549814Y-108003166D01*
X146457712Y-107853844D01*
X146333656Y-107729788D01*
X146184334Y-107637686D01*
X146125493Y-107618188D01*
X146068051Y-107578416D01*
X146041228Y-107513900D01*
X146040500Y-107500483D01*
X146040500Y-107378687D01*
X146060185Y-107311648D01*
X146072350Y-107295715D01*
X146090891Y-107275122D01*
X146147533Y-107212216D01*
X146242179Y-107048284D01*
X146300674Y-106868256D01*
X146320460Y-106680000D01*
X146300674Y-106491744D01*
X146242179Y-106311716D01*
X146147533Y-106147784D01*
X146020871Y-106007112D01*
X146020870Y-106007111D01*
X145867734Y-105895851D01*
X145867729Y-105895848D01*
X145694807Y-105818857D01*
X145694802Y-105818855D01*
X145549001Y-105787865D01*
X145509646Y-105779500D01*
X145320354Y-105779500D01*
X145287897Y-105786398D01*
X145135197Y-105818855D01*
X145135192Y-105818857D01*
X144962270Y-105895848D01*
X144962265Y-105895851D01*
X144809129Y-106007111D01*
X144682466Y-106147785D01*
X144587821Y-106311715D01*
X144587818Y-106311722D01*
X144529327Y-106491740D01*
X144529326Y-106491744D01*
X144509540Y-106680000D01*
X144529326Y-106868256D01*
X144529327Y-106868259D01*
X144587818Y-107048277D01*
X144587821Y-107048284D01*
X144682467Y-107212216D01*
X144698611Y-107230145D01*
X144757650Y-107295715D01*
X144787880Y-107358706D01*
X144789500Y-107378687D01*
X144789500Y-107500483D01*
X144769815Y-107567522D01*
X144717011Y-107613277D01*
X144704510Y-107618186D01*
X144645665Y-107637686D01*
X144645666Y-107637686D01*
X144645663Y-107637687D01*
X144496342Y-107729789D01*
X144372289Y-107853842D01*
X144280187Y-108003163D01*
X144280185Y-108003166D01*
X144280186Y-108003166D01*
X144225001Y-108169703D01*
X144225001Y-108169704D01*
X144225000Y-108169704D01*
X144214500Y-108272483D01*
X144214500Y-108897501D01*
X144214501Y-108897519D01*
X144225000Y-109000296D01*
X144225001Y-109000299D01*
X144241028Y-109048664D01*
X144280186Y-109166834D01*
X144339396Y-109262830D01*
X144372289Y-109316157D01*
X144465951Y-109409819D01*
X144499436Y-109471142D01*
X144494452Y-109540834D01*
X144465951Y-109585181D01*
X144372289Y-109678842D01*
X144280187Y-109828163D01*
X144280185Y-109828166D01*
X144280186Y-109828166D01*
X144225001Y-109994703D01*
X144225001Y-109994704D01*
X144225000Y-109994704D01*
X144214500Y-110097483D01*
X144214500Y-110722501D01*
X144214501Y-110722519D01*
X144225000Y-110825296D01*
X144225001Y-110825299D01*
X144280185Y-110991831D01*
X144280186Y-110991834D01*
X144372288Y-111141156D01*
X144496344Y-111265212D01*
X144645666Y-111357314D01*
X144812203Y-111412499D01*
X144914991Y-111423000D01*
X145915008Y-111422999D01*
X145915016Y-111422998D01*
X145915019Y-111422998D01*
X145971302Y-111417248D01*
X146017797Y-111412499D01*
X146184334Y-111357314D01*
X146333656Y-111265212D01*
X146457712Y-111141156D01*
X146486549Y-111094402D01*
X146538497Y-111047679D01*
X146592088Y-111035500D01*
X147412912Y-111035500D01*
X147479951Y-111055185D01*
X147518449Y-111094401D01*
X147547288Y-111141156D01*
X147671344Y-111265212D01*
X147820663Y-111357312D01*
X147820668Y-111357315D01*
X147829988Y-111360403D01*
X147879502Y-111376810D01*
X147936947Y-111416581D01*
X147963772Y-111481096D01*
X147964500Y-111494516D01*
X147964500Y-112031635D01*
X147944815Y-112098674D01*
X147892011Y-112144429D01*
X147822853Y-112154373D01*
X147788729Y-112144311D01*
X147645266Y-112078394D01*
X147645261Y-112078392D01*
X147447053Y-112032397D01*
X147243638Y-112027244D01*
X147243635Y-112027244D01*
X147043350Y-112063140D01*
X147043345Y-112063142D01*
X146854383Y-112138623D01*
X146854371Y-112138629D01*
X146684482Y-112250596D01*
X146684478Y-112250599D01*
X146113530Y-112821548D01*
X146048949Y-112882938D01*
X146048946Y-112882942D01*
X146013899Y-112933294D01*
X146011062Y-112937056D01*
X145972302Y-112984592D01*
X145972299Y-112984597D01*
X145956392Y-113015047D01*
X145952324Y-113021761D01*
X145932702Y-113049954D01*
X145908509Y-113106330D01*
X145906488Y-113110584D01*
X145878091Y-113164951D01*
X145878090Y-113164952D01*
X145868640Y-113197975D01*
X145866007Y-113205371D01*
X145852459Y-113236943D01*
X145840113Y-113297019D01*
X145838990Y-113301595D01*
X145822113Y-113360577D01*
X145822113Y-113360579D01*
X145819503Y-113394841D01*
X145818414Y-113402608D01*
X145816917Y-113409898D01*
X145811500Y-113436258D01*
X145811500Y-113497597D01*
X145811321Y-113502306D01*
X145806662Y-113563474D01*
X145808210Y-113575623D01*
X145811003Y-113597560D01*
X145811500Y-113605388D01*
X145811500Y-113918475D01*
X145791815Y-113985514D01*
X145786767Y-113992786D01*
X145707804Y-114098267D01*
X145707802Y-114098270D01*
X145657508Y-114233116D01*
X145651101Y-114292715D01*
X145651101Y-114292722D01*
X145651100Y-114292734D01*
X145651100Y-114669560D01*
X145631415Y-114736599D01*
X145578611Y-114782354D01*
X145513847Y-114792849D01*
X145488273Y-114790100D01*
X145488267Y-114790100D01*
X145449759Y-114790100D01*
X145382720Y-114770415D01*
X145378922Y-114767875D01*
X145367879Y-114760189D01*
X145307807Y-114718377D01*
X145268050Y-114690705D01*
X145081056Y-114610459D01*
X144881741Y-114569500D01*
X138639069Y-114569500D01*
X138574920Y-114551617D01*
X138514578Y-114515139D01*
X138514576Y-114515138D01*
X138356113Y-114465759D01*
X138356111Y-114465758D01*
X138356109Y-114465758D01*
X138287243Y-114459500D01*
X138287240Y-114459500D01*
X137302749Y-114459500D01*
X137233897Y-114465756D01*
X137233890Y-114465758D01*
X137075425Y-114515137D01*
X137075421Y-114515139D01*
X136933380Y-114601005D01*
X136933376Y-114601008D01*
X136816008Y-114718376D01*
X136816005Y-114718380D01*
X136730139Y-114860421D01*
X136730138Y-114860423D01*
X136680759Y-115018886D01*
X136680758Y-115018889D01*
X136680758Y-115018891D01*
X136675318Y-115078762D01*
X136674500Y-115087759D01*
X136674500Y-116052250D01*
X136680756Y-116121102D01*
X136680758Y-116121109D01*
X136730137Y-116279573D01*
X136730138Y-116279574D01*
X136730139Y-116279577D01*
X136776617Y-116356463D01*
X136794500Y-116420610D01*
X136794500Y-119530569D01*
X136774815Y-119597608D01*
X136722011Y-119643363D01*
X136652853Y-119653307D01*
X136589297Y-119624282D01*
X136554319Y-119573903D01*
X136548356Y-119557917D01*
X136548350Y-119557906D01*
X136462190Y-119442812D01*
X136462187Y-119442809D01*
X136347093Y-119356649D01*
X136347086Y-119356645D01*
X136212379Y-119306403D01*
X136212372Y-119306401D01*
X136152844Y-119300000D01*
X135505000Y-119300000D01*
X135505000Y-120214498D01*
X135397315Y-120165320D01*
X135290763Y-120150000D01*
X135219237Y-120150000D01*
X135112685Y-120165320D01*
X135005000Y-120214498D01*
X135005000Y-119300000D01*
X134357155Y-119300000D01*
X134297627Y-119306401D01*
X134297620Y-119306403D01*
X134162913Y-119356645D01*
X134162906Y-119356649D01*
X134047812Y-119442809D01*
X134047809Y-119442812D01*
X133961649Y-119557906D01*
X133961645Y-119557913D01*
X133911403Y-119692620D01*
X133911401Y-119692627D01*
X133905000Y-119752155D01*
X133905000Y-120400000D01*
X134821314Y-120400000D01*
X134795507Y-120440156D01*
X134755000Y-120578111D01*
X134755000Y-120721889D01*
X134795507Y-120859844D01*
X134821314Y-120900000D01*
X133905000Y-120900000D01*
X133905000Y-121547844D01*
X133911401Y-121607372D01*
X133911403Y-121607379D01*
X133961645Y-121742086D01*
X133961649Y-121742093D01*
X134047809Y-121857187D01*
X134047812Y-121857190D01*
X134162906Y-121943350D01*
X134162913Y-121943354D01*
X134297620Y-121993596D01*
X134297627Y-121993598D01*
X134357155Y-121999999D01*
X134357172Y-122000000D01*
X135005000Y-122000000D01*
X135005000Y-121085501D01*
X135112685Y-121134680D01*
X135219237Y-121150000D01*
X135290763Y-121150000D01*
X135397315Y-121134680D01*
X135505000Y-121085501D01*
X135505000Y-122000000D01*
X136152828Y-122000000D01*
X136152844Y-121999999D01*
X136212372Y-121993598D01*
X136212379Y-121993596D01*
X136347086Y-121943354D01*
X136347093Y-121943350D01*
X136462187Y-121857190D01*
X136462190Y-121857187D01*
X136548350Y-121742093D01*
X136548354Y-121742086D01*
X136597422Y-121610529D01*
X136639293Y-121554595D01*
X136704757Y-121530178D01*
X136773030Y-121545030D01*
X136801285Y-121566181D01*
X136923599Y-121688495D01*
X137000135Y-121742086D01*
X137117165Y-121824032D01*
X137117167Y-121824033D01*
X137117170Y-121824035D01*
X137331337Y-121923903D01*
X137559592Y-121985063D01*
X137730319Y-122000000D01*
X137794999Y-122005659D01*
X137795000Y-122005659D01*
X137795001Y-122005659D01*
X137859681Y-122000000D01*
X138030408Y-121985063D01*
X138258663Y-121923903D01*
X138472830Y-121824035D01*
X138666401Y-121688495D01*
X138833495Y-121521401D01*
X138969035Y-121327830D01*
X139068903Y-121113663D01*
X139130063Y-120885408D01*
X139150659Y-120650000D01*
X139130063Y-120414592D01*
X139068903Y-120186337D01*
X138969035Y-119972171D01*
X138833495Y-119778599D01*
X138833493Y-119778597D01*
X138833489Y-119778592D01*
X138831811Y-119776914D01*
X138831308Y-119775994D01*
X138830018Y-119774456D01*
X138830327Y-119774196D01*
X138798331Y-119715588D01*
X138795500Y-119689241D01*
X138795500Y-116694500D01*
X138815185Y-116627461D01*
X138867989Y-116581706D01*
X138919500Y-116570500D01*
X144830743Y-116570500D01*
X144982439Y-116555074D01*
X145176579Y-116494162D01*
X145176580Y-116494161D01*
X145176588Y-116494159D01*
X145354502Y-116395409D01*
X145372667Y-116379814D01*
X145436356Y-116351081D01*
X145453439Y-116349899D01*
X145488271Y-116349899D01*
X145488272Y-116349899D01*
X145488274Y-116349898D01*
X145488284Y-116349898D01*
X145503541Y-116348257D01*
X145513843Y-116347150D01*
X145582603Y-116359554D01*
X145633741Y-116407164D01*
X145651100Y-116470439D01*
X145651100Y-116847270D01*
X145651101Y-116847277D01*
X145657508Y-116906884D01*
X145707802Y-117041729D01*
X145707806Y-117041736D01*
X145794052Y-117156945D01*
X145794055Y-117156948D01*
X145909264Y-117243194D01*
X145909271Y-117243198D01*
X146044117Y-117293492D01*
X146044116Y-117293492D01*
X146051044Y-117294236D01*
X146103727Y-117299901D01*
X147520272Y-117299900D01*
X147579883Y-117293492D01*
X147714731Y-117243197D01*
X147829946Y-117156947D01*
X147916196Y-117041732D01*
X147966491Y-116906884D01*
X147970943Y-116865477D01*
X150759662Y-116865477D01*
X150785368Y-117067321D01*
X150785370Y-117067329D01*
X150851183Y-117259870D01*
X150851189Y-117259882D01*
X150954406Y-117435221D01*
X150954411Y-117435228D01*
X151090820Y-117586212D01*
X151254828Y-117706646D01*
X151254832Y-117706648D01*
X151254833Y-117706649D01*
X151439732Y-117791605D01*
X151505456Y-117806857D01*
X151637945Y-117837603D01*
X151841358Y-117842757D01*
X151841358Y-117842756D01*
X151841363Y-117842757D01*
X152020852Y-117810586D01*
X152041648Y-117806859D01*
X152041648Y-117806858D01*
X152041653Y-117806858D01*
X152230617Y-117731377D01*
X152268138Y-117706649D01*
X152400516Y-117619404D01*
X152400516Y-117619403D01*
X152400519Y-117619402D01*
X152463102Y-117556818D01*
X152524423Y-117523335D01*
X152550782Y-117520501D01*
X153593743Y-117520501D01*
X153745439Y-117505075D01*
X153939579Y-117444163D01*
X153939580Y-117444162D01*
X153939588Y-117444160D01*
X154117502Y-117345410D01*
X154135667Y-117329815D01*
X154199356Y-117301082D01*
X154216439Y-117299900D01*
X154251271Y-117299900D01*
X154251272Y-117299900D01*
X154310883Y-117293492D01*
X154445731Y-117243197D01*
X154560946Y-117156947D01*
X154647196Y-117041732D01*
X154697491Y-116906884D01*
X154703900Y-116847274D01*
X154703899Y-116470438D01*
X154723583Y-116403401D01*
X154776387Y-116357646D01*
X154841157Y-116347151D01*
X154851633Y-116348277D01*
X154866727Y-116349900D01*
X154905238Y-116349899D01*
X154972277Y-116369582D01*
X154976064Y-116372115D01*
X155086951Y-116449295D01*
X155273942Y-116529540D01*
X155473259Y-116570500D01*
X162070500Y-116570500D01*
X162137539Y-116590185D01*
X162183294Y-116642989D01*
X162194500Y-116694500D01*
X162194500Y-119689241D01*
X162174815Y-119756280D01*
X162158181Y-119776922D01*
X162156505Y-119778597D01*
X162020965Y-119972169D01*
X162020964Y-119972171D01*
X161921098Y-120186335D01*
X161921094Y-120186344D01*
X161859938Y-120414586D01*
X161859936Y-120414596D01*
X161839341Y-120649999D01*
X161839341Y-120650000D01*
X161859936Y-120885403D01*
X161859938Y-120885413D01*
X161921094Y-121113655D01*
X161921096Y-121113659D01*
X161921097Y-121113663D01*
X162020964Y-121327830D01*
X162020965Y-121327830D01*
X162020967Y-121327834D01*
X162129281Y-121482521D01*
X162156505Y-121521401D01*
X162323599Y-121688495D01*
X162400135Y-121742086D01*
X162517165Y-121824032D01*
X162517167Y-121824033D01*
X162517170Y-121824035D01*
X162731337Y-121923903D01*
X162959592Y-121985063D01*
X163130319Y-122000000D01*
X163194999Y-122005659D01*
X163195000Y-122005659D01*
X163195001Y-122005659D01*
X163259681Y-122000000D01*
X163430408Y-121985063D01*
X163658663Y-121923903D01*
X163872830Y-121824035D01*
X164066401Y-121688495D01*
X164188717Y-121566178D01*
X164250036Y-121532696D01*
X164319728Y-121537680D01*
X164375662Y-121579551D01*
X164392577Y-121610528D01*
X164441646Y-121742088D01*
X164441649Y-121742093D01*
X164527809Y-121857187D01*
X164527812Y-121857190D01*
X164642906Y-121943350D01*
X164642913Y-121943354D01*
X164777620Y-121993596D01*
X164777627Y-121993598D01*
X164837155Y-121999999D01*
X164837172Y-122000000D01*
X165485000Y-122000000D01*
X165485000Y-121085501D01*
X165592685Y-121134680D01*
X165699237Y-121150000D01*
X165770763Y-121150000D01*
X165877315Y-121134680D01*
X165985000Y-121085501D01*
X165985000Y-122000000D01*
X166632828Y-122000000D01*
X166632844Y-121999999D01*
X166692372Y-121993598D01*
X166692379Y-121993596D01*
X166827086Y-121943354D01*
X166827093Y-121943350D01*
X166942187Y-121857190D01*
X166942190Y-121857187D01*
X167028350Y-121742093D01*
X167028354Y-121742086D01*
X167078596Y-121607379D01*
X167078598Y-121607372D01*
X167084999Y-121547844D01*
X167085000Y-121547827D01*
X167085000Y-120900000D01*
X166168686Y-120900000D01*
X166194493Y-120859844D01*
X166235000Y-120721889D01*
X166235000Y-120578111D01*
X166194493Y-120440156D01*
X166168686Y-120400000D01*
X167085000Y-120400000D01*
X167085000Y-119752172D01*
X167084999Y-119752155D01*
X167078598Y-119692627D01*
X167078596Y-119692620D01*
X167028354Y-119557913D01*
X167028350Y-119557906D01*
X166942190Y-119442812D01*
X166942187Y-119442809D01*
X166827093Y-119356649D01*
X166827086Y-119356645D01*
X166692379Y-119306403D01*
X166692372Y-119306401D01*
X166632844Y-119300000D01*
X165985000Y-119300000D01*
X165985000Y-120214498D01*
X165877315Y-120165320D01*
X165770763Y-120150000D01*
X165699237Y-120150000D01*
X165592685Y-120165320D01*
X165485000Y-120214498D01*
X165485000Y-119300000D01*
X164837155Y-119300000D01*
X164777627Y-119306401D01*
X164777620Y-119306403D01*
X164642913Y-119356645D01*
X164642906Y-119356649D01*
X164527812Y-119442809D01*
X164527809Y-119442812D01*
X164441649Y-119557906D01*
X164441643Y-119557917D01*
X164435681Y-119573903D01*
X164393810Y-119629837D01*
X164328345Y-119654253D01*
X164260072Y-119639401D01*
X164210667Y-119589995D01*
X164195500Y-119530569D01*
X164195500Y-116420610D01*
X164213382Y-116356463D01*
X164259861Y-116279577D01*
X164309242Y-116121109D01*
X164315500Y-116052243D01*
X164315500Y-115820000D01*
X165055001Y-115820000D01*
X165055001Y-116052204D01*
X165061253Y-116121018D01*
X165110596Y-116279367D01*
X165196407Y-116421315D01*
X165313684Y-116538592D01*
X165455628Y-116624401D01*
X165613985Y-116673746D01*
X165682805Y-116679999D01*
X165924999Y-116679999D01*
X165925000Y-116679998D01*
X165925000Y-115820000D01*
X166425000Y-115820000D01*
X166425000Y-116679999D01*
X166667203Y-116679999D01*
X166736018Y-116673746D01*
X166894367Y-116624403D01*
X167036315Y-116538592D01*
X167153592Y-116421315D01*
X167239401Y-116279371D01*
X167288746Y-116121014D01*
X167295000Y-116052194D01*
X167295000Y-115820000D01*
X166425000Y-115820000D01*
X165925000Y-115820000D01*
X165055001Y-115820000D01*
X164315500Y-115820000D01*
X164315499Y-115320000D01*
X165055000Y-115320000D01*
X165925000Y-115320000D01*
X165925000Y-114460000D01*
X166425000Y-114460000D01*
X166425000Y-115320000D01*
X167294999Y-115320000D01*
X167294999Y-115087795D01*
X167288746Y-115018981D01*
X167239403Y-114860632D01*
X167153592Y-114718684D01*
X167036315Y-114601407D01*
X166894371Y-114515598D01*
X166736014Y-114466253D01*
X166667194Y-114460000D01*
X166425000Y-114460000D01*
X165925000Y-114460000D01*
X165682795Y-114460000D01*
X165613981Y-114466253D01*
X165455632Y-114515596D01*
X165313684Y-114601407D01*
X165196407Y-114718684D01*
X165110598Y-114860628D01*
X165061253Y-115018985D01*
X165055000Y-115087805D01*
X165055000Y-115320000D01*
X164315499Y-115320000D01*
X164315499Y-115087758D01*
X164315499Y-115087757D01*
X164315499Y-115087749D01*
X164309243Y-115018897D01*
X164309242Y-115018893D01*
X164309242Y-115018891D01*
X164263430Y-114871875D01*
X164259862Y-114860425D01*
X164259860Y-114860421D01*
X164173994Y-114718380D01*
X164173991Y-114718376D01*
X164056623Y-114601008D01*
X164056619Y-114601005D01*
X163914578Y-114515139D01*
X163914576Y-114515138D01*
X163756113Y-114465759D01*
X163756111Y-114465758D01*
X163756109Y-114465758D01*
X163687243Y-114459500D01*
X163687240Y-114459500D01*
X162702749Y-114459500D01*
X162633897Y-114465756D01*
X162633890Y-114465758D01*
X162475425Y-114515137D01*
X162475421Y-114515139D01*
X162415080Y-114551617D01*
X162350931Y-114569500D01*
X155524257Y-114569500D01*
X155372560Y-114584925D01*
X155178420Y-114645837D01*
X155178410Y-114645842D01*
X155000494Y-114744593D01*
X154982327Y-114760189D01*
X154918637Y-114788918D01*
X154901563Y-114790100D01*
X154866731Y-114790100D01*
X154866720Y-114790101D01*
X154841151Y-114792850D01*
X154772392Y-114780443D01*
X154721256Y-114732831D01*
X154703899Y-114669560D01*
X154703899Y-114292728D01*
X154703898Y-114292722D01*
X154703897Y-114292715D01*
X154697491Y-114233116D01*
X154647196Y-114098268D01*
X154647195Y-114098267D01*
X154647193Y-114098263D01*
X154560947Y-113983054D01*
X154560944Y-113983051D01*
X154445735Y-113896805D01*
X154445728Y-113896801D01*
X154310882Y-113846507D01*
X154310883Y-113846507D01*
X154251283Y-113840100D01*
X154251281Y-113840099D01*
X154251273Y-113840099D01*
X154251265Y-113840099D01*
X153699052Y-113840099D01*
X153632013Y-113820414D01*
X153611371Y-113803780D01*
X153061819Y-113254227D01*
X153028334Y-113192904D01*
X153025500Y-113166546D01*
X153025500Y-111494516D01*
X153045185Y-111427477D01*
X153097989Y-111381722D01*
X153110488Y-111376813D01*
X153169334Y-111357314D01*
X153318656Y-111265212D01*
X153442712Y-111141156D01*
X153471549Y-111094402D01*
X153523497Y-111047679D01*
X153577088Y-111035500D01*
X154397912Y-111035500D01*
X154464951Y-111055185D01*
X154503449Y-111094401D01*
X154532288Y-111141156D01*
X154656344Y-111265212D01*
X154805666Y-111357314D01*
X154972203Y-111412499D01*
X155074991Y-111423000D01*
X156075008Y-111422999D01*
X156075016Y-111422998D01*
X156075019Y-111422998D01*
X156131302Y-111417248D01*
X156177797Y-111412499D01*
X156344334Y-111357314D01*
X156493656Y-111265212D01*
X156617712Y-111141156D01*
X156709814Y-110991834D01*
X156764999Y-110825297D01*
X156775500Y-110722509D01*
X156775499Y-110097492D01*
X156764999Y-109994703D01*
X156709814Y-109828166D01*
X156617712Y-109678844D01*
X156524048Y-109585181D01*
X156490564Y-109523858D01*
X156495548Y-109454166D01*
X156524049Y-109409819D01*
X156524048Y-109409818D01*
X156617712Y-109316156D01*
X156709814Y-109166834D01*
X156764999Y-109000297D01*
X156775500Y-108897509D01*
X156775499Y-108272492D01*
X156764999Y-108169703D01*
X156709814Y-108003166D01*
X156617712Y-107853844D01*
X156493656Y-107729788D01*
X156344334Y-107637686D01*
X156285493Y-107618188D01*
X156228051Y-107578416D01*
X156201228Y-107513900D01*
X156200500Y-107500483D01*
X156200500Y-107378687D01*
X156220185Y-107311648D01*
X156232350Y-107295715D01*
X156250891Y-107275122D01*
X156307533Y-107212216D01*
X156402179Y-107048284D01*
X156460674Y-106868256D01*
X156480460Y-106680000D01*
X156460674Y-106491744D01*
X156402179Y-106311716D01*
X156307533Y-106147784D01*
X156180871Y-106007112D01*
X156180870Y-106007111D01*
X156027734Y-105895851D01*
X156027729Y-105895848D01*
X155854807Y-105818857D01*
X155854802Y-105818855D01*
X155709000Y-105787865D01*
X155669646Y-105779500D01*
X155480354Y-105779500D01*
X155447897Y-105786398D01*
X155295197Y-105818855D01*
X155295192Y-105818857D01*
X155122270Y-105895848D01*
X155122265Y-105895851D01*
X154969129Y-106007111D01*
X154842466Y-106147785D01*
X154747821Y-106311715D01*
X154747818Y-106311722D01*
X154689327Y-106491740D01*
X154689326Y-106491744D01*
X154669540Y-106680000D01*
X154689326Y-106868256D01*
X154689327Y-106868259D01*
X154747818Y-107048277D01*
X154747821Y-107048284D01*
X154842467Y-107212216D01*
X154858611Y-107230145D01*
X154917650Y-107295715D01*
X154947880Y-107358706D01*
X154949500Y-107378687D01*
X154949500Y-107500483D01*
X154929815Y-107567522D01*
X154877011Y-107613277D01*
X154864510Y-107618186D01*
X154805665Y-107637686D01*
X154805666Y-107637686D01*
X154805663Y-107637687D01*
X154656342Y-107729789D01*
X154532289Y-107853842D01*
X154440187Y-108003163D01*
X154440185Y-108003166D01*
X154440186Y-108003166D01*
X154385001Y-108169703D01*
X154385001Y-108169704D01*
X154385000Y-108169704D01*
X154374500Y-108272483D01*
X154374500Y-108897501D01*
X154374501Y-108897519D01*
X154385000Y-109000296D01*
X154385001Y-109000299D01*
X154401028Y-109048664D01*
X154440186Y-109166834D01*
X154499396Y-109262830D01*
X154532289Y-109316157D01*
X154625951Y-109409819D01*
X154659436Y-109471142D01*
X154654452Y-109540834D01*
X154625951Y-109585181D01*
X154532289Y-109678842D01*
X154503451Y-109725597D01*
X154451503Y-109772321D01*
X154397912Y-109784500D01*
X153577088Y-109784500D01*
X153510049Y-109764815D01*
X153471549Y-109725597D01*
X153442712Y-109678844D01*
X153349049Y-109585181D01*
X153315564Y-109523858D01*
X153320548Y-109454166D01*
X153349049Y-109409819D01*
X153349049Y-109409818D01*
X153442712Y-109316156D01*
X153534814Y-109166834D01*
X153589999Y-109000297D01*
X153600500Y-108897509D01*
X153600499Y-108272492D01*
X153589999Y-108169703D01*
X153534814Y-108003166D01*
X153442712Y-107853844D01*
X153318656Y-107729788D01*
X153169334Y-107637686D01*
X153110493Y-107618188D01*
X153053051Y-107578416D01*
X153026228Y-107513900D01*
X153025500Y-107500483D01*
X153025500Y-102933687D01*
X153045185Y-102866648D01*
X153057350Y-102850715D01*
X153078549Y-102827171D01*
X153132533Y-102767216D01*
X153227179Y-102603284D01*
X153285674Y-102423256D01*
X153305460Y-102235000D01*
X153285674Y-102046744D01*
X153227179Y-101866716D01*
X153132533Y-101702784D01*
X153005871Y-101562112D01*
X153005870Y-101562111D01*
X152852734Y-101450851D01*
X152852729Y-101450848D01*
X152679807Y-101373857D01*
X152679802Y-101373855D01*
X152534001Y-101342865D01*
X152494646Y-101334500D01*
X152305354Y-101334500D01*
X152272897Y-101341398D01*
X152120197Y-101373855D01*
X152120192Y-101373857D01*
X151947270Y-101450848D01*
X151947265Y-101450851D01*
X151794129Y-101562111D01*
X151667466Y-101702785D01*
X151572821Y-101866715D01*
X151572818Y-101866722D01*
X151527008Y-102007712D01*
X151514326Y-102046744D01*
X151494540Y-102235000D01*
X151514326Y-102423256D01*
X151514327Y-102423259D01*
X151572818Y-102603277D01*
X151572821Y-102603284D01*
X151667467Y-102767216D01*
X151710772Y-102815310D01*
X151742650Y-102850715D01*
X151772880Y-102913706D01*
X151774500Y-102933687D01*
X151774500Y-107500483D01*
X151754815Y-107567522D01*
X151702011Y-107613277D01*
X151689510Y-107618186D01*
X151630665Y-107637685D01*
X151630666Y-107637686D01*
X151630663Y-107637687D01*
X151481342Y-107729789D01*
X151357289Y-107853842D01*
X151265187Y-108003163D01*
X151265185Y-108003166D01*
X151265186Y-108003166D01*
X151210001Y-108169703D01*
X151210001Y-108169704D01*
X151210000Y-108169704D01*
X151199500Y-108272483D01*
X151199500Y-108897501D01*
X151199501Y-108897519D01*
X151210000Y-109000296D01*
X151210001Y-109000299D01*
X151226028Y-109048664D01*
X151265186Y-109166834D01*
X151357288Y-109316156D01*
X151450951Y-109409819D01*
X151484435Y-109471143D01*
X151479451Y-109540834D01*
X151450951Y-109585181D01*
X151357287Y-109678845D01*
X151265187Y-109828163D01*
X151265185Y-109828166D01*
X151265186Y-109828166D01*
X151210001Y-109994703D01*
X151210001Y-109994704D01*
X151210000Y-109994704D01*
X151199500Y-110097483D01*
X151199500Y-110722501D01*
X151199501Y-110722519D01*
X151210000Y-110825296D01*
X151210001Y-110825299D01*
X151265185Y-110991831D01*
X151265186Y-110991834D01*
X151357288Y-111141156D01*
X151481344Y-111265212D01*
X151630663Y-111357312D01*
X151630668Y-111357315D01*
X151639988Y-111360403D01*
X151689502Y-111376810D01*
X151746947Y-111416581D01*
X151773772Y-111481096D01*
X151774500Y-111494516D01*
X151774500Y-113394254D01*
X151772775Y-113409871D01*
X151773061Y-113409898D01*
X151772326Y-113417664D01*
X151774500Y-113486813D01*
X151774500Y-113516342D01*
X151774501Y-113516359D01*
X151775368Y-113523230D01*
X151775826Y-113529049D01*
X151777290Y-113575623D01*
X151777291Y-113575626D01*
X151782880Y-113594866D01*
X151786824Y-113613910D01*
X151789336Y-113633790D01*
X151806490Y-113677118D01*
X151808382Y-113682646D01*
X151821381Y-113727387D01*
X151831580Y-113744633D01*
X151840138Y-113762102D01*
X151847514Y-113780731D01*
X151874898Y-113818422D01*
X151878106Y-113823306D01*
X151901827Y-113863415D01*
X151901833Y-113863423D01*
X151915990Y-113877579D01*
X151928628Y-113892375D01*
X151940405Y-113908585D01*
X151940406Y-113908586D01*
X151976309Y-113938287D01*
X151980620Y-113942209D01*
X152266188Y-114227777D01*
X152345781Y-114307370D01*
X152379266Y-114368693D01*
X152382100Y-114395051D01*
X152382100Y-114947269D01*
X152382101Y-114947275D01*
X152388508Y-115006882D01*
X152438802Y-115141727D01*
X152438806Y-115141734D01*
X152465468Y-115177349D01*
X152525054Y-115256945D01*
X152577538Y-115296235D01*
X152619409Y-115352168D01*
X152624393Y-115421860D01*
X152590908Y-115483183D01*
X152529584Y-115516667D01*
X152503227Y-115519501D01*
X152097716Y-115519501D01*
X152008636Y-115517244D01*
X152008627Y-115517244D01*
X151955635Y-115526742D01*
X151948253Y-115528065D01*
X151943594Y-115528719D01*
X151882563Y-115534926D01*
X151882561Y-115534927D01*
X151849779Y-115545211D01*
X151842155Y-115547082D01*
X151834307Y-115548489D01*
X151808348Y-115553142D01*
X151751380Y-115575896D01*
X151746944Y-115577475D01*
X151688413Y-115595841D01*
X151688409Y-115595843D01*
X151658377Y-115612511D01*
X151651283Y-115615880D01*
X151619381Y-115628624D01*
X151619376Y-115628626D01*
X151568155Y-115662382D01*
X151564127Y-115664823D01*
X151510500Y-115694589D01*
X151484433Y-115716966D01*
X151478164Y-115721693D01*
X151449483Y-115740596D01*
X151449477Y-115740601D01*
X151406109Y-115783968D01*
X151402655Y-115787170D01*
X151356107Y-115827131D01*
X151356100Y-115827139D01*
X151335073Y-115854303D01*
X151329881Y-115860197D01*
X151021658Y-116168422D01*
X150931023Y-116279577D01*
X150925302Y-116286593D01*
X150854929Y-116421315D01*
X150831090Y-116466953D01*
X150775112Y-116662584D01*
X150759662Y-116865474D01*
X150759662Y-116865477D01*
X147970943Y-116865477D01*
X147972900Y-116847274D01*
X147972899Y-116295051D01*
X147992583Y-116228013D01*
X148009213Y-116207376D01*
X148973786Y-115242803D01*
X148986048Y-115232981D01*
X148985865Y-115232760D01*
X148991867Y-115227793D01*
X148991877Y-115227787D01*
X149039241Y-115177349D01*
X149060120Y-115156471D01*
X149064373Y-115150987D01*
X149068150Y-115146564D01*
X149100062Y-115112583D01*
X149109714Y-115095024D01*
X149120389Y-115078773D01*
X149132674Y-115062937D01*
X149151186Y-115020153D01*
X149153742Y-115014936D01*
X149176197Y-114974093D01*
X149181180Y-114954681D01*
X149187477Y-114936292D01*
X149195438Y-114917896D01*
X149202729Y-114871854D01*
X149203908Y-114866163D01*
X149215500Y-114821020D01*
X149215500Y-114800983D01*
X149217027Y-114781583D01*
X149218796Y-114770415D01*
X149220160Y-114761805D01*
X149215775Y-114715416D01*
X149215500Y-114709578D01*
X149215500Y-111494516D01*
X149235185Y-111427477D01*
X149287989Y-111381722D01*
X149300488Y-111376813D01*
X149359334Y-111357314D01*
X149508656Y-111265212D01*
X149632712Y-111141156D01*
X149724814Y-110991834D01*
X149779999Y-110825297D01*
X149790500Y-110722509D01*
X149790499Y-110097492D01*
X149779999Y-109994703D01*
X149724814Y-109828166D01*
X149632712Y-109678844D01*
X149539049Y-109585181D01*
X149505564Y-109523858D01*
X149510548Y-109454166D01*
X149539049Y-109409819D01*
X149539049Y-109409818D01*
X149632712Y-109316156D01*
X149724814Y-109166834D01*
X149779999Y-109000297D01*
X149790500Y-108897509D01*
X149790499Y-108272492D01*
X149779999Y-108169703D01*
X149724814Y-108003166D01*
X149632712Y-107853844D01*
X149508656Y-107729788D01*
X149359334Y-107637686D01*
X149300493Y-107618188D01*
X149243051Y-107578416D01*
X149216228Y-107513900D01*
X149215500Y-107500483D01*
X149215500Y-105473687D01*
X149235185Y-105406648D01*
X149247350Y-105390715D01*
X149268549Y-105367171D01*
X149322533Y-105307216D01*
X149417179Y-105143284D01*
X149475674Y-104963256D01*
X149495460Y-104775000D01*
X149475674Y-104586744D01*
X149417179Y-104406716D01*
X149322533Y-104242784D01*
X149195871Y-104102112D01*
X149186359Y-104095201D01*
X149042734Y-103990851D01*
X149042729Y-103990848D01*
X148869807Y-103913857D01*
X148869802Y-103913855D01*
X148724000Y-103882865D01*
X148684646Y-103874500D01*
X148495354Y-103874500D01*
X148462897Y-103881398D01*
X148310197Y-103913855D01*
X148310192Y-103913857D01*
X148137270Y-103990848D01*
X148137265Y-103990851D01*
X147984129Y-104102111D01*
X147984128Y-104102112D01*
X147904292Y-104190778D01*
X147844805Y-104227426D01*
X147774948Y-104226095D01*
X147716900Y-104187208D01*
X147689091Y-104123111D01*
X147688785Y-104095208D01*
X147698000Y-104005009D01*
X147697999Y-103004992D01*
X147687499Y-102902203D01*
X147632314Y-102735666D01*
X147540212Y-102586344D01*
X147416156Y-102462288D01*
X147416155Y-102462287D01*
X147369402Y-102433449D01*
X147322678Y-102381500D01*
X147310500Y-102327911D01*
X147310500Y-102142087D01*
X147330185Y-102075048D01*
X147369402Y-102036548D01*
X147416156Y-102007712D01*
X147540212Y-101883656D01*
X147632314Y-101734334D01*
X147687499Y-101567797D01*
X147698000Y-101465009D01*
X147697999Y-100464992D01*
X147687499Y-100362203D01*
X147632314Y-100195666D01*
X147540212Y-100046344D01*
X147416156Y-99922288D01*
X147416155Y-99922287D01*
X147369402Y-99893449D01*
X147322678Y-99841500D01*
X147310500Y-99787911D01*
X147310500Y-99602087D01*
X147330185Y-99535048D01*
X147369402Y-99496548D01*
X147416156Y-99467712D01*
X147540212Y-99343656D01*
X147632314Y-99194334D01*
X147651811Y-99135493D01*
X147691584Y-99078051D01*
X147756100Y-99051228D01*
X147769517Y-99050500D01*
X153300483Y-99050500D01*
X153367522Y-99070185D01*
X153413277Y-99122989D01*
X153418186Y-99135489D01*
X153437686Y-99194334D01*
X153529788Y-99343656D01*
X153653844Y-99467712D01*
X153803166Y-99559814D01*
X153969703Y-99614999D01*
X154072491Y-99625500D01*
X154697508Y-99625499D01*
X154697516Y-99625498D01*
X154697519Y-99625498D01*
X154753802Y-99619748D01*
X154800297Y-99614999D01*
X154966834Y-99559814D01*
X155116156Y-99467712D01*
X155209822Y-99374045D01*
X155271141Y-99340563D01*
X155340833Y-99345547D01*
X155385176Y-99374044D01*
X155478844Y-99467712D01*
X155628166Y-99559814D01*
X155794703Y-99614999D01*
X155897491Y-99625500D01*
X156522508Y-99625499D01*
X156522516Y-99625498D01*
X156522519Y-99625498D01*
X156578802Y-99619748D01*
X156625297Y-99614999D01*
X156791834Y-99559814D01*
X156941156Y-99467712D01*
X157065212Y-99343656D01*
X157157314Y-99194334D01*
X157176811Y-99135493D01*
X157216584Y-99078051D01*
X157281100Y-99051228D01*
X157294517Y-99050500D01*
X158109773Y-99050500D01*
X158176812Y-99070185D01*
X158211348Y-99103377D01*
X158346501Y-99296396D01*
X158346506Y-99296402D01*
X158513597Y-99463493D01*
X158513603Y-99463498D01*
X158699158Y-99593425D01*
X158742783Y-99648002D01*
X158749977Y-99717500D01*
X158718454Y-99779855D01*
X158699158Y-99796575D01*
X158513597Y-99926505D01*
X158346505Y-100093597D01*
X158210965Y-100287169D01*
X158210964Y-100287171D01*
X158111098Y-100501335D01*
X158111094Y-100501344D01*
X158049938Y-100729586D01*
X158049936Y-100729596D01*
X158029341Y-100964999D01*
X158029341Y-100965000D01*
X158049936Y-101200403D01*
X158049938Y-101200413D01*
X158111094Y-101428655D01*
X158111096Y-101428659D01*
X158111097Y-101428663D01*
X158186563Y-101590500D01*
X158210965Y-101642830D01*
X158210967Y-101642834D01*
X158275036Y-101734333D01*
X158346501Y-101836396D01*
X158346506Y-101836402D01*
X158513597Y-102003493D01*
X158513603Y-102003498D01*
X158699158Y-102133425D01*
X158742783Y-102188002D01*
X158749977Y-102257500D01*
X158718454Y-102319855D01*
X158699158Y-102336575D01*
X158513597Y-102466505D01*
X158346505Y-102633597D01*
X158210965Y-102827169D01*
X158210964Y-102827171D01*
X158111098Y-103041335D01*
X158111094Y-103041344D01*
X158049938Y-103269586D01*
X158049936Y-103269596D01*
X158029341Y-103504999D01*
X158029341Y-103505000D01*
X158049936Y-103740403D01*
X158049938Y-103740413D01*
X158111094Y-103968655D01*
X158111096Y-103968659D01*
X158111097Y-103968663D01*
X158186244Y-104129815D01*
X158210965Y-104182830D01*
X158210967Y-104182834D01*
X158346501Y-104376395D01*
X158346506Y-104376402D01*
X158513597Y-104543493D01*
X158513603Y-104543498D01*
X158699158Y-104673425D01*
X158742783Y-104728002D01*
X158749977Y-104797500D01*
X158718454Y-104859855D01*
X158699158Y-104876575D01*
X158513597Y-105006505D01*
X158346505Y-105173597D01*
X158210965Y-105367169D01*
X158210964Y-105367171D01*
X158111098Y-105581335D01*
X158111094Y-105581344D01*
X158049938Y-105809586D01*
X158049936Y-105809596D01*
X158029341Y-106044999D01*
X158029341Y-106045000D01*
X158049936Y-106280403D01*
X158049938Y-106280413D01*
X158111094Y-106508655D01*
X158111096Y-106508659D01*
X158111097Y-106508663D01*
X158190993Y-106679999D01*
X158210965Y-106722830D01*
X158210967Y-106722834D01*
X158346501Y-106916395D01*
X158346506Y-106916402D01*
X158513597Y-107083493D01*
X158513603Y-107083498D01*
X158699158Y-107213425D01*
X158742783Y-107268002D01*
X158749977Y-107337500D01*
X158718454Y-107399855D01*
X158699158Y-107416575D01*
X158513597Y-107546505D01*
X158346505Y-107713597D01*
X158210965Y-107907169D01*
X158210964Y-107907171D01*
X158111098Y-108121335D01*
X158111094Y-108121344D01*
X158049938Y-108349586D01*
X158049936Y-108349596D01*
X158029341Y-108584999D01*
X158029341Y-108585000D01*
X158049936Y-108820403D01*
X158049938Y-108820413D01*
X158111094Y-109048655D01*
X158111096Y-109048659D01*
X158111097Y-109048663D01*
X158166200Y-109166831D01*
X158210965Y-109262830D01*
X158210967Y-109262834D01*
X158346501Y-109456395D01*
X158346506Y-109456402D01*
X158513597Y-109623493D01*
X158513603Y-109623498D01*
X158699158Y-109753425D01*
X158742783Y-109808002D01*
X158749977Y-109877500D01*
X158718454Y-109939855D01*
X158699158Y-109956575D01*
X158513597Y-110086505D01*
X158346505Y-110253597D01*
X158210965Y-110447169D01*
X158210964Y-110447171D01*
X158111098Y-110661335D01*
X158111094Y-110661344D01*
X158049938Y-110889586D01*
X158049936Y-110889596D01*
X158029341Y-111124999D01*
X158029341Y-111125000D01*
X158049936Y-111360403D01*
X158049938Y-111360413D01*
X158111094Y-111588655D01*
X158111096Y-111588659D01*
X158111097Y-111588663D01*
X158210964Y-111802830D01*
X158210965Y-111802830D01*
X158210967Y-111802834D01*
X158319281Y-111957521D01*
X158346505Y-111996401D01*
X158513599Y-112163495D01*
X158610384Y-112231265D01*
X158707165Y-112299032D01*
X158707167Y-112299033D01*
X158707170Y-112299035D01*
X158921337Y-112398903D01*
X159149592Y-112460063D01*
X159337918Y-112476539D01*
X159384999Y-112480659D01*
X159385000Y-112480659D01*
X159385001Y-112480659D01*
X159424234Y-112477226D01*
X159620408Y-112460063D01*
X159848663Y-112398903D01*
X160062830Y-112299035D01*
X160256401Y-112163495D01*
X160423495Y-111996401D01*
X160559035Y-111802830D01*
X160658903Y-111588663D01*
X160720063Y-111360408D01*
X160740659Y-111125000D01*
X160720063Y-110889592D01*
X160658903Y-110661337D01*
X160559035Y-110447171D01*
X160423495Y-110253599D01*
X160423494Y-110253597D01*
X160256402Y-110086506D01*
X160256396Y-110086501D01*
X160070842Y-109956575D01*
X160027217Y-109901998D01*
X160020023Y-109832500D01*
X160051546Y-109770145D01*
X160070842Y-109753425D01*
X160177353Y-109678845D01*
X160256401Y-109623495D01*
X160423495Y-109456401D01*
X160559035Y-109262830D01*
X160658903Y-109048663D01*
X160720063Y-108820408D01*
X160740659Y-108585000D01*
X160720063Y-108349592D01*
X160658903Y-108121337D01*
X160559035Y-107907171D01*
X160521696Y-107853844D01*
X160423494Y-107713597D01*
X160256402Y-107546506D01*
X160256396Y-107546501D01*
X160070842Y-107416575D01*
X160027217Y-107361998D01*
X160020023Y-107292500D01*
X160051546Y-107230145D01*
X160070842Y-107213425D01*
X160093026Y-107197891D01*
X160256401Y-107083495D01*
X160423495Y-106916401D01*
X160559035Y-106722830D01*
X160658903Y-106508663D01*
X160720063Y-106280408D01*
X160740659Y-106045000D01*
X160720063Y-105809592D01*
X160658903Y-105581337D01*
X160559035Y-105367171D01*
X160549546Y-105353618D01*
X160423494Y-105173597D01*
X160256402Y-105006506D01*
X160256396Y-105006501D01*
X160070842Y-104876575D01*
X160027217Y-104821998D01*
X160020023Y-104752500D01*
X160051546Y-104690145D01*
X160070842Y-104673425D01*
X160194635Y-104586744D01*
X160256401Y-104543495D01*
X160423495Y-104376401D01*
X160559035Y-104182830D01*
X160658903Y-103968663D01*
X160720063Y-103740408D01*
X160740659Y-103505000D01*
X160720063Y-103269592D01*
X160658903Y-103041337D01*
X160559035Y-102827171D01*
X160558652Y-102826623D01*
X160423494Y-102633597D01*
X160256402Y-102466506D01*
X160256396Y-102466501D01*
X160070842Y-102336575D01*
X160027217Y-102281998D01*
X160020023Y-102212500D01*
X160051546Y-102150145D01*
X160070842Y-102133425D01*
X160194635Y-102046744D01*
X160256401Y-102003495D01*
X160423495Y-101836401D01*
X160559035Y-101642830D01*
X160658903Y-101428663D01*
X160720063Y-101200408D01*
X160740659Y-100965000D01*
X160720063Y-100729592D01*
X160658903Y-100501337D01*
X160559035Y-100287171D01*
X160558652Y-100286623D01*
X160423494Y-100093597D01*
X160256402Y-99926506D01*
X160256396Y-99926501D01*
X160070842Y-99796575D01*
X160027217Y-99741998D01*
X160020023Y-99672500D01*
X160051546Y-99610145D01*
X160070842Y-99593425D01*
X160157309Y-99532880D01*
X160256401Y-99463495D01*
X160423495Y-99296401D01*
X160558651Y-99103377D01*
X160613229Y-99059752D01*
X160660227Y-99050500D01*
X164459773Y-99050500D01*
X164526812Y-99070185D01*
X164561348Y-99103377D01*
X164696501Y-99296396D01*
X164696506Y-99296402D01*
X164863597Y-99463493D01*
X164863603Y-99463498D01*
X165049158Y-99593425D01*
X165092783Y-99648002D01*
X165099977Y-99717500D01*
X165068454Y-99779855D01*
X165049158Y-99796575D01*
X164863597Y-99926505D01*
X164696505Y-100093597D01*
X164560965Y-100287169D01*
X164560964Y-100287171D01*
X164461098Y-100501335D01*
X164461094Y-100501344D01*
X164399938Y-100729586D01*
X164399936Y-100729596D01*
X164379341Y-100964999D01*
X164379341Y-100965000D01*
X164399936Y-101200403D01*
X164399938Y-101200413D01*
X164461094Y-101428655D01*
X164461096Y-101428659D01*
X164461097Y-101428663D01*
X164536563Y-101590500D01*
X164560965Y-101642830D01*
X164560967Y-101642834D01*
X164625036Y-101734333D01*
X164696501Y-101836396D01*
X164696506Y-101836402D01*
X164863597Y-102003493D01*
X164863603Y-102003498D01*
X165049158Y-102133425D01*
X165092783Y-102188002D01*
X165099977Y-102257500D01*
X165068454Y-102319855D01*
X165049158Y-102336575D01*
X164863597Y-102466505D01*
X164696505Y-102633597D01*
X164560965Y-102827169D01*
X164560964Y-102827171D01*
X164461098Y-103041335D01*
X164461094Y-103041344D01*
X164399938Y-103269586D01*
X164399936Y-103269596D01*
X164379341Y-103504999D01*
X164379341Y-103505000D01*
X164399936Y-103740403D01*
X164399938Y-103740413D01*
X164461094Y-103968655D01*
X164461096Y-103968659D01*
X164461097Y-103968663D01*
X164536244Y-104129815D01*
X164560965Y-104182830D01*
X164560967Y-104182834D01*
X164696501Y-104376395D01*
X164696506Y-104376402D01*
X164863597Y-104543493D01*
X164863603Y-104543498D01*
X165049158Y-104673425D01*
X165092783Y-104728002D01*
X165099977Y-104797500D01*
X165068454Y-104859855D01*
X165049158Y-104876575D01*
X164863597Y-105006505D01*
X164696505Y-105173597D01*
X164560965Y-105367169D01*
X164560964Y-105367171D01*
X164461098Y-105581335D01*
X164461094Y-105581344D01*
X164399938Y-105809586D01*
X164399936Y-105809596D01*
X164379341Y-106044999D01*
X164379341Y-106045000D01*
X164399936Y-106280403D01*
X164399938Y-106280413D01*
X164461094Y-106508655D01*
X164461096Y-106508659D01*
X164461097Y-106508663D01*
X164540993Y-106679999D01*
X164560965Y-106722830D01*
X164560967Y-106722834D01*
X164696501Y-106916395D01*
X164696506Y-106916402D01*
X164863597Y-107083493D01*
X164863603Y-107083498D01*
X165049158Y-107213425D01*
X165092783Y-107268002D01*
X165099977Y-107337500D01*
X165068454Y-107399855D01*
X165049158Y-107416575D01*
X164863597Y-107546505D01*
X164696505Y-107713597D01*
X164560965Y-107907169D01*
X164560964Y-107907171D01*
X164461098Y-108121335D01*
X164461094Y-108121344D01*
X164399938Y-108349586D01*
X164399936Y-108349596D01*
X164379341Y-108584999D01*
X164379341Y-108585000D01*
X164399936Y-108820403D01*
X164399938Y-108820413D01*
X164461094Y-109048655D01*
X164461096Y-109048659D01*
X164461097Y-109048663D01*
X164516200Y-109166831D01*
X164560965Y-109262830D01*
X164560967Y-109262834D01*
X164663888Y-109409819D01*
X164696505Y-109456401D01*
X164863599Y-109623495D01*
X164942647Y-109678845D01*
X165057165Y-109759032D01*
X165057167Y-109759033D01*
X165057170Y-109759035D01*
X165271337Y-109858903D01*
X165499592Y-109920063D01*
X165687918Y-109936539D01*
X165734999Y-109940659D01*
X165735000Y-109940659D01*
X165735001Y-109940659D01*
X165774234Y-109937226D01*
X165970408Y-109920063D01*
X166198663Y-109858903D01*
X166412830Y-109759035D01*
X166606401Y-109623495D01*
X166773495Y-109456401D01*
X166909035Y-109262830D01*
X167008903Y-109048663D01*
X167070063Y-108820408D01*
X167090659Y-108585000D01*
X167070063Y-108349592D01*
X167008903Y-108121337D01*
X166909035Y-107907171D01*
X166871696Y-107853844D01*
X166773494Y-107713597D01*
X166606402Y-107546506D01*
X166606396Y-107546501D01*
X166420842Y-107416575D01*
X166377217Y-107361998D01*
X166370023Y-107292500D01*
X166401546Y-107230145D01*
X166420842Y-107213425D01*
X166443026Y-107197891D01*
X166606401Y-107083495D01*
X166773495Y-106916401D01*
X166909035Y-106722830D01*
X167008903Y-106508663D01*
X167070063Y-106280408D01*
X167090659Y-106045000D01*
X167070063Y-105809592D01*
X167008903Y-105581337D01*
X166909035Y-105367171D01*
X166899546Y-105353618D01*
X166773494Y-105173597D01*
X166606402Y-105006506D01*
X166606396Y-105006501D01*
X166420842Y-104876575D01*
X166377217Y-104821998D01*
X166370023Y-104752500D01*
X166401546Y-104690145D01*
X166420842Y-104673425D01*
X166544635Y-104586744D01*
X166606401Y-104543495D01*
X166773495Y-104376401D01*
X166909035Y-104182830D01*
X167008903Y-103968663D01*
X167070063Y-103740408D01*
X167090659Y-103505000D01*
X167070063Y-103269592D01*
X167008903Y-103041337D01*
X166909035Y-102827171D01*
X166908652Y-102826623D01*
X166773494Y-102633597D01*
X166606402Y-102466506D01*
X166606396Y-102466501D01*
X166420842Y-102336575D01*
X166377217Y-102281998D01*
X166370023Y-102212500D01*
X166401546Y-102150145D01*
X166420842Y-102133425D01*
X166544635Y-102046744D01*
X166606401Y-102003495D01*
X166773495Y-101836401D01*
X166909035Y-101642830D01*
X167008903Y-101428663D01*
X167070063Y-101200408D01*
X167090659Y-100965000D01*
X167070063Y-100729592D01*
X167008903Y-100501337D01*
X166909035Y-100287171D01*
X166908652Y-100286623D01*
X166773494Y-100093597D01*
X166606402Y-99926506D01*
X166606396Y-99926501D01*
X166420842Y-99796575D01*
X166377217Y-99741998D01*
X166370023Y-99672500D01*
X166401546Y-99610145D01*
X166420842Y-99593425D01*
X166507309Y-99532880D01*
X166606401Y-99463495D01*
X166773495Y-99296401D01*
X166909035Y-99102830D01*
X167008903Y-98888663D01*
X167070063Y-98660408D01*
X167090659Y-98425000D01*
X167070063Y-98189592D01*
X167008903Y-97961337D01*
X166909035Y-97747171D01*
X166908652Y-97746623D01*
X166773494Y-97553597D01*
X166606402Y-97386506D01*
X166606396Y-97386501D01*
X166420842Y-97256575D01*
X166377217Y-97201998D01*
X166370023Y-97132500D01*
X166401546Y-97070145D01*
X166420842Y-97053425D01*
X166507309Y-96992880D01*
X166606401Y-96923495D01*
X166773495Y-96756401D01*
X166909035Y-96562830D01*
X167008903Y-96348663D01*
X167070063Y-96120408D01*
X167090659Y-95885000D01*
X167070063Y-95649592D01*
X167008903Y-95421337D01*
X166909035Y-95207171D01*
X166908652Y-95206623D01*
X166773494Y-95013597D01*
X166606402Y-94846506D01*
X166606396Y-94846501D01*
X166420842Y-94716575D01*
X166377217Y-94661998D01*
X166370023Y-94592500D01*
X166401546Y-94530145D01*
X166420842Y-94513425D01*
X166443026Y-94497891D01*
X166606401Y-94383495D01*
X166773495Y-94216401D01*
X166909035Y-94022830D01*
X167008903Y-93808663D01*
X167070063Y-93580408D01*
X167090659Y-93345000D01*
X167070063Y-93109592D01*
X167008903Y-92881337D01*
X166909035Y-92667171D01*
X166867054Y-92607216D01*
X166773496Y-92473600D01*
X166743173Y-92443277D01*
X166651567Y-92351671D01*
X166618084Y-92290351D01*
X166623068Y-92220659D01*
X166664939Y-92164725D01*
X166695915Y-92147810D01*
X166827331Y-92098796D01*
X166942546Y-92012546D01*
X167028796Y-91897331D01*
X167079091Y-91762483D01*
X167085500Y-91702873D01*
X167085499Y-89907128D01*
X167079091Y-89847517D01*
X167028796Y-89712669D01*
X167028795Y-89712668D01*
X167028793Y-89712664D01*
X166942547Y-89597455D01*
X166942544Y-89597452D01*
X166827335Y-89511206D01*
X166827328Y-89511202D01*
X166692482Y-89460908D01*
X166692483Y-89460908D01*
X166632883Y-89454501D01*
X166632881Y-89454500D01*
X166632873Y-89454500D01*
X166632865Y-89454500D01*
X166484500Y-89454500D01*
X166417461Y-89434815D01*
X166371706Y-89382011D01*
X166360500Y-89330500D01*
X166360500Y-79457738D01*
X166362224Y-79442124D01*
X166361938Y-79442097D01*
X166362672Y-79434334D01*
X166360500Y-79365203D01*
X166360500Y-79335651D01*
X166360500Y-79335650D01*
X166359629Y-79328759D01*
X166359172Y-79322945D01*
X166357709Y-79276372D01*
X166352122Y-79257144D01*
X166348174Y-79238084D01*
X166345664Y-79218208D01*
X166328507Y-79174875D01*
X166326619Y-79169359D01*
X166313619Y-79124612D01*
X166303418Y-79107363D01*
X166294860Y-79089894D01*
X166287486Y-79071268D01*
X166287483Y-79071264D01*
X166287483Y-79071263D01*
X166260098Y-79033571D01*
X166256890Y-79028687D01*
X166233172Y-78988582D01*
X166233163Y-78988571D01*
X166219005Y-78974413D01*
X166206370Y-78959620D01*
X166194593Y-78943412D01*
X166158693Y-78913713D01*
X166154381Y-78909790D01*
X160725237Y-73480646D01*
X160691752Y-73419323D01*
X160693142Y-73360876D01*
X160720063Y-73260408D01*
X160740659Y-73025000D01*
X160720063Y-72789592D01*
X160658903Y-72561337D01*
X160559035Y-72347171D01*
X160423495Y-72153599D01*
X160423494Y-72153597D01*
X160256402Y-71986506D01*
X160256396Y-71986501D01*
X160070842Y-71856575D01*
X160027217Y-71801998D01*
X160020023Y-71732500D01*
X160051546Y-71670145D01*
X160070842Y-71653425D01*
X160179865Y-71577086D01*
X160256401Y-71523495D01*
X160423495Y-71356401D01*
X160559035Y-71162830D01*
X160658903Y-70948663D01*
X160720063Y-70720408D01*
X160740659Y-70485000D01*
X160720063Y-70249592D01*
X160658903Y-70021337D01*
X160559035Y-69807171D01*
X160423495Y-69613599D01*
X160423494Y-69613597D01*
X160256402Y-69446506D01*
X160256396Y-69446501D01*
X160070842Y-69316575D01*
X160027217Y-69261998D01*
X160020023Y-69192500D01*
X160051546Y-69130145D01*
X160070842Y-69113425D01*
X160093026Y-69097891D01*
X160256401Y-68983495D01*
X160423495Y-68816401D01*
X160559035Y-68622830D01*
X160658903Y-68408663D01*
X160720063Y-68180408D01*
X160740659Y-67945000D01*
X160720063Y-67709592D01*
X160658903Y-67481337D01*
X160559035Y-67267171D01*
X160550954Y-67255629D01*
X160423494Y-67073597D01*
X160256402Y-66906506D01*
X160256401Y-66906505D01*
X160070405Y-66776269D01*
X160026781Y-66721692D01*
X160019588Y-66652193D01*
X160051110Y-66589839D01*
X160070405Y-66573119D01*
X160256082Y-66443105D01*
X160423105Y-66276082D01*
X160558600Y-66082578D01*
X160658429Y-65868492D01*
X160658432Y-65868486D01*
X160715636Y-65655000D01*
X159818686Y-65655000D01*
X159844493Y-65614844D01*
X159885000Y-65476889D01*
X159885000Y-65333111D01*
X159844493Y-65195156D01*
X159818686Y-65155000D01*
X160715636Y-65155000D01*
X160715635Y-65154999D01*
X160658432Y-64941513D01*
X160658429Y-64941507D01*
X160558600Y-64727422D01*
X160558599Y-64727420D01*
X160423113Y-64533926D01*
X160423108Y-64533920D01*
X160301053Y-64411865D01*
X160267568Y-64350542D01*
X160272552Y-64280850D01*
X160314424Y-64224917D01*
X160345400Y-64208002D01*
X160434847Y-64174641D01*
X160477326Y-64158798D01*
X160477326Y-64158797D01*
X160477331Y-64158796D01*
X160592546Y-64072546D01*
X160678796Y-63957331D01*
X160729091Y-63822483D01*
X160735500Y-63762873D01*
X160735499Y-61967128D01*
X160729091Y-61907517D01*
X160678796Y-61772669D01*
X160678795Y-61772668D01*
X160678793Y-61772664D01*
X160592547Y-61657455D01*
X160592544Y-61657452D01*
X160477335Y-61571206D01*
X160477328Y-61571202D01*
X160342482Y-61520908D01*
X160342483Y-61520908D01*
X160282883Y-61514501D01*
X160282881Y-61514500D01*
X160282873Y-61514500D01*
X160282864Y-61514500D01*
X158487129Y-61514500D01*
X158487123Y-61514501D01*
X158427516Y-61520908D01*
X158292671Y-61571202D01*
X158292664Y-61571206D01*
X158177455Y-61657452D01*
X158177452Y-61657455D01*
X158091206Y-61772664D01*
X158091202Y-61772671D01*
X158040908Y-61907517D01*
X158034501Y-61967116D01*
X158034501Y-61967123D01*
X158034500Y-61967135D01*
X158034500Y-63762870D01*
X158034501Y-63762876D01*
X158040908Y-63822483D01*
X158091202Y-63957328D01*
X158091206Y-63957335D01*
X158177452Y-64072544D01*
X158177455Y-64072547D01*
X158292664Y-64158793D01*
X158292671Y-64158797D01*
X158354902Y-64182007D01*
X158424598Y-64208002D01*
X158480531Y-64249873D01*
X158504949Y-64315337D01*
X158490098Y-64383610D01*
X158468947Y-64411865D01*
X158346886Y-64533926D01*
X158211400Y-64727420D01*
X158211399Y-64727422D01*
X158111570Y-64941507D01*
X158111567Y-64941513D01*
X158054364Y-65154999D01*
X158054364Y-65155000D01*
X158951314Y-65155000D01*
X158925507Y-65195156D01*
X158885000Y-65333111D01*
X158885000Y-65476889D01*
X158925507Y-65614844D01*
X158951314Y-65655000D01*
X158054364Y-65655000D01*
X158111567Y-65868486D01*
X158111570Y-65868492D01*
X158211399Y-66082578D01*
X158346894Y-66276082D01*
X158513917Y-66443105D01*
X158699595Y-66573119D01*
X158743219Y-66627696D01*
X158750412Y-66697195D01*
X158718890Y-66759549D01*
X158699595Y-66776269D01*
X158513594Y-66906508D01*
X158346505Y-67073597D01*
X158210965Y-67267169D01*
X158210964Y-67267171D01*
X158111098Y-67481335D01*
X158111094Y-67481344D01*
X158049938Y-67709586D01*
X158049936Y-67709596D01*
X158029341Y-67944999D01*
X158029341Y-67945000D01*
X158049936Y-68180403D01*
X158049938Y-68180413D01*
X158111094Y-68408655D01*
X158111096Y-68408659D01*
X158111097Y-68408663D01*
X158210964Y-68622829D01*
X158210965Y-68622830D01*
X158210967Y-68622834D01*
X158346501Y-68816395D01*
X158346506Y-68816402D01*
X158513597Y-68983493D01*
X158513603Y-68983498D01*
X158699158Y-69113425D01*
X158742783Y-69168002D01*
X158749977Y-69237500D01*
X158718454Y-69299855D01*
X158699158Y-69316575D01*
X158513597Y-69446505D01*
X158346505Y-69613597D01*
X158210965Y-69807169D01*
X158210964Y-69807171D01*
X158111098Y-70021335D01*
X158111094Y-70021344D01*
X158049938Y-70249586D01*
X158049936Y-70249596D01*
X158029341Y-70484999D01*
X158029341Y-70485000D01*
X158049936Y-70720403D01*
X158049938Y-70720413D01*
X158111094Y-70948655D01*
X158111096Y-70948659D01*
X158111097Y-70948663D01*
X158210964Y-71162830D01*
X158210965Y-71162830D01*
X158210967Y-71162834D01*
X158346501Y-71356395D01*
X158346506Y-71356402D01*
X158513597Y-71523493D01*
X158513603Y-71523498D01*
X158699158Y-71653425D01*
X158742783Y-71708002D01*
X158749977Y-71777500D01*
X158718454Y-71839855D01*
X158699158Y-71856575D01*
X158513597Y-71986505D01*
X158346505Y-72153597D01*
X158210965Y-72347169D01*
X158210964Y-72347171D01*
X158111098Y-72561335D01*
X158111094Y-72561344D01*
X158049938Y-72789586D01*
X158049936Y-72789596D01*
X158029341Y-73024999D01*
X158029341Y-73025000D01*
X158049937Y-73260408D01*
X158076855Y-73360873D01*
X158075192Y-73430723D01*
X158044761Y-73480646D01*
X146301208Y-85224199D01*
X146288951Y-85234020D01*
X146289134Y-85234241D01*
X146283123Y-85239213D01*
X146235772Y-85289636D01*
X146214889Y-85310519D01*
X146214877Y-85310532D01*
X146210621Y-85316017D01*
X146206837Y-85320447D01*
X146174937Y-85354418D01*
X146174936Y-85354420D01*
X146165284Y-85371976D01*
X146154610Y-85388226D01*
X146142329Y-85404061D01*
X146142324Y-85404068D01*
X146123815Y-85446838D01*
X146121245Y-85452084D01*
X146098803Y-85492906D01*
X146093822Y-85512307D01*
X146087521Y-85530710D01*
X146079562Y-85549102D01*
X146079561Y-85549105D01*
X146072271Y-85595127D01*
X146071087Y-85600846D01*
X146059501Y-85645972D01*
X146059500Y-85645982D01*
X146059500Y-85666016D01*
X146057973Y-85685415D01*
X146054840Y-85705194D01*
X146054840Y-85705195D01*
X146059225Y-85751583D01*
X146059500Y-85757421D01*
X146059500Y-91186814D01*
X146039815Y-91253853D01*
X145987011Y-91299608D01*
X145917853Y-91309552D01*
X145874572Y-91292005D01*
X145873363Y-91294101D01*
X145867729Y-91290848D01*
X145694807Y-91213857D01*
X145694802Y-91213855D01*
X145549001Y-91182865D01*
X145509646Y-91174500D01*
X145509645Y-91174500D01*
X145450452Y-91174500D01*
X145383413Y-91154815D01*
X145362771Y-91138181D01*
X142945237Y-88720646D01*
X142911752Y-88659323D01*
X142913142Y-88600876D01*
X142940063Y-88500408D01*
X142960659Y-88265000D01*
X142940063Y-88029592D01*
X142878903Y-87801337D01*
X142779035Y-87587171D01*
X142643495Y-87393599D01*
X142643494Y-87393597D01*
X142476402Y-87226506D01*
X142476396Y-87226501D01*
X142290842Y-87096575D01*
X142247217Y-87041998D01*
X142240023Y-86972500D01*
X142271546Y-86910145D01*
X142290842Y-86893425D01*
X142338846Y-86859812D01*
X142476401Y-86763495D01*
X142643495Y-86596401D01*
X142779035Y-86402830D01*
X142878903Y-86188663D01*
X142940063Y-85960408D01*
X142960659Y-85725000D01*
X142940063Y-85489592D01*
X142913142Y-85389125D01*
X142914806Y-85319276D01*
X142945235Y-85269353D01*
X152783788Y-75430801D01*
X152796042Y-75420986D01*
X152795859Y-75420764D01*
X152801866Y-75415792D01*
X152801877Y-75415786D01*
X152832775Y-75382882D01*
X152849227Y-75365364D01*
X152859671Y-75354918D01*
X152870120Y-75344471D01*
X152874379Y-75338978D01*
X152878152Y-75334561D01*
X152910062Y-75300582D01*
X152919713Y-75283024D01*
X152930396Y-75266761D01*
X152942673Y-75250936D01*
X152961185Y-75208153D01*
X152963738Y-75202941D01*
X152986197Y-75162092D01*
X152991180Y-75142680D01*
X152997481Y-75124280D01*
X153005437Y-75105896D01*
X153012729Y-75059852D01*
X153013906Y-75054171D01*
X153025500Y-75009019D01*
X153025500Y-74988982D01*
X153027027Y-74969582D01*
X153030160Y-74949804D01*
X153025775Y-74903415D01*
X153025500Y-74897577D01*
X153025500Y-66569516D01*
X153045185Y-66502477D01*
X153097989Y-66456722D01*
X153110488Y-66451813D01*
X153169334Y-66432314D01*
X153318656Y-66340212D01*
X153442712Y-66216156D01*
X153534814Y-66066834D01*
X153589999Y-65900297D01*
X153600500Y-65797509D01*
X153600499Y-65172492D01*
X153589999Y-65069703D01*
X153534814Y-64903166D01*
X153442712Y-64753844D01*
X153349048Y-64660180D01*
X153315564Y-64598856D01*
X153320548Y-64529165D01*
X153349045Y-64484822D01*
X153442712Y-64391156D01*
X153471549Y-64344402D01*
X153523497Y-64297679D01*
X153577088Y-64285500D01*
X154397912Y-64285500D01*
X154464951Y-64305185D01*
X154503449Y-64344401D01*
X154527634Y-64383610D01*
X154532289Y-64391157D01*
X154625951Y-64484819D01*
X154659436Y-64546142D01*
X154654452Y-64615834D01*
X154625951Y-64660181D01*
X154532289Y-64753842D01*
X154440187Y-64903163D01*
X154440185Y-64903168D01*
X154427538Y-64941335D01*
X154385001Y-65069703D01*
X154385001Y-65069704D01*
X154385000Y-65069704D01*
X154374500Y-65172483D01*
X154374500Y-65797501D01*
X154374501Y-65797519D01*
X154385000Y-65900296D01*
X154385001Y-65900299D01*
X154413677Y-65986836D01*
X154440186Y-66066834D01*
X154473936Y-66121553D01*
X154492376Y-66188944D01*
X154471453Y-66255607D01*
X154456079Y-66274328D01*
X154357229Y-66373180D01*
X154295906Y-66406666D01*
X154269547Y-66409500D01*
X154210354Y-66409500D01*
X154200564Y-66411581D01*
X154025197Y-66448855D01*
X154025192Y-66448857D01*
X153852270Y-66525848D01*
X153852265Y-66525851D01*
X153699129Y-66637111D01*
X153572466Y-66777785D01*
X153477821Y-66941715D01*
X153477818Y-66941722D01*
X153434970Y-67073597D01*
X153419326Y-67121744D01*
X153399540Y-67310000D01*
X153419326Y-67498256D01*
X153419327Y-67498259D01*
X153477818Y-67678277D01*
X153477821Y-67678284D01*
X153572467Y-67842216D01*
X153699129Y-67982888D01*
X153852265Y-68094148D01*
X153852270Y-68094151D01*
X154025192Y-68171142D01*
X154025197Y-68171144D01*
X154210354Y-68210500D01*
X154210355Y-68210500D01*
X154399644Y-68210500D01*
X154399646Y-68210500D01*
X154584803Y-68171144D01*
X154757730Y-68094151D01*
X154910871Y-67982888D01*
X155037533Y-67842216D01*
X155132179Y-67678284D01*
X155190674Y-67498256D01*
X155208321Y-67330344D01*
X155234904Y-67265734D01*
X155243951Y-67255638D01*
X155958790Y-66540799D01*
X155971050Y-66530979D01*
X155970867Y-66530757D01*
X155976074Y-66526450D01*
X155977433Y-66525866D01*
X155980043Y-66523776D01*
X155983478Y-66521597D01*
X155984312Y-66522913D01*
X156040278Y-66498889D01*
X156055108Y-66497999D01*
X156075002Y-66497999D01*
X156075008Y-66497999D01*
X156177797Y-66487499D01*
X156344334Y-66432314D01*
X156493656Y-66340212D01*
X156617712Y-66216156D01*
X156709814Y-66066834D01*
X156764999Y-65900297D01*
X156775500Y-65797509D01*
X156775499Y-65172492D01*
X156764999Y-65069703D01*
X156709814Y-64903166D01*
X156617712Y-64753844D01*
X156524049Y-64660180D01*
X156490564Y-64598858D01*
X156495548Y-64529166D01*
X156524049Y-64484819D01*
X156559703Y-64449165D01*
X156617712Y-64391156D01*
X156709814Y-64241834D01*
X156764999Y-64075297D01*
X156775500Y-63972509D01*
X156775499Y-63347492D01*
X156764999Y-63244703D01*
X156709814Y-63078166D01*
X156617712Y-62928844D01*
X156493656Y-62804788D01*
X156344334Y-62712686D01*
X156177797Y-62657501D01*
X156177795Y-62657500D01*
X156075010Y-62647000D01*
X155074998Y-62647000D01*
X155074980Y-62647001D01*
X154972203Y-62657500D01*
X154972200Y-62657501D01*
X154805668Y-62712685D01*
X154805663Y-62712687D01*
X154656342Y-62804789D01*
X154532289Y-62928842D01*
X154503451Y-62975597D01*
X154451503Y-63022321D01*
X154397912Y-63034500D01*
X153577088Y-63034500D01*
X153510049Y-63014815D01*
X153471549Y-62975597D01*
X153442712Y-62928844D01*
X153318656Y-62804788D01*
X153318652Y-62804785D01*
X153276305Y-62778665D01*
X153229580Y-62726717D01*
X153218359Y-62657755D01*
X153246202Y-62593673D01*
X153304271Y-62554817D01*
X153369432Y-62552337D01*
X153432618Y-62567000D01*
X153542945Y-62592603D01*
X153746358Y-62597757D01*
X153746358Y-62597756D01*
X153746363Y-62597757D01*
X153925853Y-62565586D01*
X153946648Y-62561859D01*
X153946648Y-62561858D01*
X153946653Y-62561858D01*
X154135617Y-62486377D01*
X154305519Y-62374402D01*
X154876487Y-61803433D01*
X154941053Y-61742059D01*
X154976119Y-61691675D01*
X154978912Y-61687972D01*
X155017697Y-61640408D01*
X155033604Y-61609952D01*
X155037666Y-61603248D01*
X155057295Y-61575049D01*
X155081497Y-61518650D01*
X155083500Y-61514431D01*
X155111909Y-61460049D01*
X155121357Y-61427022D01*
X155123988Y-61419633D01*
X155137540Y-61388058D01*
X155149894Y-61327936D01*
X155151006Y-61323404D01*
X155167886Y-61264418D01*
X155170493Y-61230166D01*
X155171585Y-61222386D01*
X155173083Y-61215096D01*
X155178500Y-61188741D01*
X155178500Y-61127388D01*
X155178679Y-61122679D01*
X155180270Y-61101782D01*
X155183336Y-61061524D01*
X155178997Y-61027449D01*
X155178500Y-61019610D01*
X155178500Y-60071523D01*
X155198185Y-60004484D01*
X155203234Y-59997212D01*
X155282193Y-59891736D01*
X155282192Y-59891736D01*
X155282196Y-59891732D01*
X155332491Y-59756884D01*
X155338900Y-59697274D01*
X155338899Y-59320438D01*
X155358583Y-59253401D01*
X155411387Y-59207646D01*
X155476157Y-59197151D01*
X155486633Y-59198277D01*
X155501727Y-59199900D01*
X155540238Y-59199899D01*
X155607277Y-59219582D01*
X155611064Y-59222115D01*
X155721951Y-59299295D01*
X155908942Y-59379540D01*
X156108259Y-59420500D01*
X162350931Y-59420500D01*
X162415080Y-59438383D01*
X162475423Y-59474861D01*
X162633891Y-59524242D01*
X162702757Y-59530500D01*
X163687242Y-59530499D01*
X163687249Y-59530499D01*
X163756102Y-59524243D01*
X163756103Y-59524242D01*
X163756109Y-59524242D01*
X163914577Y-59474861D01*
X164056623Y-59388992D01*
X164173992Y-59271623D01*
X164259861Y-59129577D01*
X164309242Y-58971109D01*
X164315500Y-58902243D01*
X164315500Y-58670000D01*
X165055001Y-58670000D01*
X165055001Y-58902204D01*
X165061253Y-58971018D01*
X165110596Y-59129367D01*
X165196407Y-59271315D01*
X165313684Y-59388592D01*
X165455628Y-59474401D01*
X165613985Y-59523746D01*
X165682805Y-59529999D01*
X165924999Y-59529999D01*
X165925000Y-59529998D01*
X165925000Y-58670000D01*
X166425000Y-58670000D01*
X166425000Y-59529999D01*
X166667203Y-59529999D01*
X166736018Y-59523746D01*
X166894367Y-59474403D01*
X167036315Y-59388592D01*
X167153592Y-59271315D01*
X167239401Y-59129371D01*
X167288746Y-58971014D01*
X167295000Y-58902194D01*
X167295000Y-58670000D01*
X166425000Y-58670000D01*
X165925000Y-58670000D01*
X165055001Y-58670000D01*
X164315500Y-58670000D01*
X164315499Y-58170000D01*
X165055000Y-58170000D01*
X165925000Y-58170000D01*
X165925000Y-57310000D01*
X166425000Y-57310000D01*
X166425000Y-58170000D01*
X167294999Y-58170000D01*
X167294999Y-57937795D01*
X167288746Y-57868981D01*
X167239403Y-57710632D01*
X167153592Y-57568684D01*
X167036315Y-57451407D01*
X166894371Y-57365598D01*
X166736014Y-57316253D01*
X166667194Y-57310000D01*
X166425000Y-57310000D01*
X165925000Y-57310000D01*
X165682795Y-57310000D01*
X165613981Y-57316253D01*
X165455632Y-57365596D01*
X165313684Y-57451407D01*
X165196407Y-57568684D01*
X165110598Y-57710628D01*
X165061253Y-57868985D01*
X165055000Y-57937805D01*
X165055000Y-58170000D01*
X164315499Y-58170000D01*
X164315499Y-57937758D01*
X164315499Y-57937757D01*
X164315499Y-57937749D01*
X164309243Y-57868897D01*
X164309242Y-57868893D01*
X164309242Y-57868891D01*
X164271043Y-57746307D01*
X164259862Y-57710425D01*
X164259859Y-57710419D01*
X164213383Y-57633537D01*
X164195500Y-57569388D01*
X164195500Y-54459430D01*
X164215185Y-54392391D01*
X164267989Y-54346636D01*
X164337147Y-54336692D01*
X164400703Y-54365717D01*
X164435682Y-54416097D01*
X164441645Y-54432086D01*
X164441649Y-54432093D01*
X164527809Y-54547187D01*
X164527812Y-54547190D01*
X164642906Y-54633350D01*
X164642913Y-54633354D01*
X164777620Y-54683596D01*
X164777627Y-54683598D01*
X164837155Y-54689999D01*
X164837172Y-54690000D01*
X165485000Y-54690000D01*
X165485000Y-53775501D01*
X165592685Y-53824680D01*
X165699237Y-53840000D01*
X165770763Y-53840000D01*
X165877315Y-53824680D01*
X165985000Y-53775501D01*
X165985000Y-54690000D01*
X166632828Y-54690000D01*
X166632844Y-54689999D01*
X166692372Y-54683598D01*
X166692379Y-54683596D01*
X166827086Y-54633354D01*
X166827093Y-54633350D01*
X166942187Y-54547190D01*
X166942190Y-54547187D01*
X167028350Y-54432093D01*
X167028354Y-54432086D01*
X167078596Y-54297379D01*
X167078598Y-54297372D01*
X167084999Y-54237844D01*
X167085000Y-54237827D01*
X167085000Y-53590000D01*
X166168686Y-53590000D01*
X166194493Y-53549844D01*
X166235000Y-53411889D01*
X166235000Y-53268111D01*
X166194493Y-53130156D01*
X166168686Y-53090000D01*
X167085000Y-53090000D01*
X167085000Y-52442172D01*
X167084999Y-52442155D01*
X167078598Y-52382627D01*
X167078596Y-52382620D01*
X167028354Y-52247913D01*
X167028350Y-52247906D01*
X166942190Y-52132812D01*
X166942187Y-52132809D01*
X166827093Y-52046649D01*
X166827086Y-52046645D01*
X166692379Y-51996403D01*
X166692372Y-51996401D01*
X166632844Y-51990000D01*
X165985000Y-51990000D01*
X165985000Y-52904498D01*
X165877315Y-52855320D01*
X165770763Y-52840000D01*
X165699237Y-52840000D01*
X165592685Y-52855320D01*
X165485000Y-52904498D01*
X165485000Y-51990000D01*
X164837155Y-51990000D01*
X164777627Y-51996401D01*
X164777620Y-51996403D01*
X164642913Y-52046645D01*
X164642906Y-52046649D01*
X164527812Y-52132809D01*
X164527809Y-52132812D01*
X164441649Y-52247906D01*
X164441645Y-52247913D01*
X164392578Y-52379470D01*
X164350707Y-52435404D01*
X164285242Y-52459821D01*
X164216969Y-52444969D01*
X164188715Y-52423819D01*
X164144366Y-52379470D01*
X164066401Y-52301505D01*
X164066397Y-52301502D01*
X164066396Y-52301501D01*
X163872834Y-52165967D01*
X163872830Y-52165965D01*
X163801727Y-52132809D01*
X163658663Y-52066097D01*
X163658659Y-52066096D01*
X163658655Y-52066094D01*
X163430413Y-52004938D01*
X163430403Y-52004936D01*
X163195001Y-51984341D01*
X163194999Y-51984341D01*
X162959596Y-52004936D01*
X162959586Y-52004938D01*
X162731344Y-52066094D01*
X162731335Y-52066098D01*
X162517171Y-52165964D01*
X162517169Y-52165965D01*
X162323597Y-52301505D01*
X162156505Y-52468597D01*
X162020965Y-52662169D01*
X162020964Y-52662171D01*
X161921098Y-52876335D01*
X161921094Y-52876344D01*
X161859938Y-53104586D01*
X161859936Y-53104596D01*
X161839341Y-53339999D01*
X161839341Y-53340000D01*
X161859936Y-53575403D01*
X161859938Y-53575413D01*
X161921094Y-53803655D01*
X161921096Y-53803659D01*
X161921097Y-53803663D01*
X162020964Y-54017830D01*
X162020965Y-54017830D01*
X162020967Y-54017834D01*
X162156501Y-54211395D01*
X162156506Y-54211402D01*
X162158181Y-54213077D01*
X162158682Y-54213995D01*
X162159982Y-54215544D01*
X162159670Y-54215805D01*
X162191666Y-54274400D01*
X162194500Y-54300758D01*
X162194500Y-57295500D01*
X162174815Y-57362539D01*
X162122011Y-57408294D01*
X162070500Y-57419500D01*
X156159257Y-57419500D01*
X156007560Y-57434925D01*
X155813420Y-57495837D01*
X155813410Y-57495842D01*
X155635494Y-57594593D01*
X155617327Y-57610189D01*
X155553637Y-57638918D01*
X155536563Y-57640100D01*
X155501731Y-57640100D01*
X155501720Y-57640101D01*
X155476151Y-57642850D01*
X155407392Y-57630443D01*
X155356256Y-57582831D01*
X155338899Y-57519560D01*
X155338899Y-57142728D01*
X155338898Y-57142722D01*
X155338897Y-57142715D01*
X155332491Y-57083116D01*
X155282196Y-56948268D01*
X155282195Y-56948267D01*
X155282193Y-56948263D01*
X155195947Y-56833054D01*
X155195944Y-56833051D01*
X155080735Y-56746805D01*
X155080728Y-56746801D01*
X154945882Y-56696507D01*
X154945883Y-56696507D01*
X154886283Y-56690100D01*
X154886281Y-56690099D01*
X154886273Y-56690099D01*
X154886264Y-56690099D01*
X153469729Y-56690099D01*
X153469723Y-56690100D01*
X153410116Y-56696507D01*
X153275271Y-56746801D01*
X153275264Y-56746805D01*
X153160055Y-56833051D01*
X153160052Y-56833054D01*
X153073806Y-56948263D01*
X153073802Y-56948270D01*
X153023508Y-57083116D01*
X153017101Y-57142715D01*
X153017101Y-57142722D01*
X153017100Y-57142734D01*
X153017100Y-57694945D01*
X152997415Y-57761984D01*
X152980781Y-57782626D01*
X152016208Y-58747198D01*
X152003951Y-58757019D01*
X152004134Y-58757240D01*
X151998123Y-58762212D01*
X151950772Y-58812635D01*
X151929889Y-58833518D01*
X151929877Y-58833531D01*
X151925621Y-58839016D01*
X151921837Y-58843446D01*
X151889937Y-58877417D01*
X151889936Y-58877419D01*
X151880284Y-58894975D01*
X151869610Y-58911225D01*
X151857329Y-58927060D01*
X151857324Y-58927067D01*
X151838815Y-58969837D01*
X151836245Y-58975083D01*
X151813803Y-59015905D01*
X151808822Y-59035306D01*
X151802521Y-59053709D01*
X151794562Y-59072101D01*
X151794561Y-59072104D01*
X151787271Y-59118126D01*
X151786087Y-59123845D01*
X151774501Y-59168971D01*
X151774500Y-59168981D01*
X151774500Y-59189015D01*
X151772973Y-59208414D01*
X151769840Y-59228193D01*
X151769840Y-59228194D01*
X151774225Y-59274582D01*
X151774500Y-59280420D01*
X151774500Y-62575483D01*
X151754815Y-62642522D01*
X151702011Y-62688277D01*
X151689510Y-62693186D01*
X151630666Y-62712685D01*
X151630666Y-62712686D01*
X151630663Y-62712687D01*
X151481342Y-62804789D01*
X151357289Y-62928842D01*
X151265187Y-63078163D01*
X151265185Y-63078166D01*
X151265186Y-63078166D01*
X151210001Y-63244703D01*
X151210001Y-63244704D01*
X151210000Y-63244704D01*
X151199500Y-63347483D01*
X151199500Y-63972501D01*
X151199501Y-63972519D01*
X151210000Y-64075296D01*
X151210001Y-64075299D01*
X151265185Y-64241831D01*
X151265187Y-64241836D01*
X151310404Y-64315145D01*
X151357288Y-64391156D01*
X151450953Y-64484821D01*
X151484436Y-64546140D01*
X151479452Y-64615832D01*
X151450952Y-64660180D01*
X151357287Y-64753845D01*
X151265187Y-64903163D01*
X151265185Y-64903168D01*
X151252538Y-64941335D01*
X151210001Y-65069703D01*
X151210001Y-65069704D01*
X151210000Y-65069704D01*
X151199500Y-65172483D01*
X151199500Y-65797501D01*
X151199501Y-65797519D01*
X151210000Y-65900296D01*
X151210001Y-65900299D01*
X151238677Y-65986836D01*
X151265186Y-66066834D01*
X151357288Y-66216156D01*
X151481344Y-66340212D01*
X151614718Y-66422477D01*
X151630668Y-66432315D01*
X151651110Y-66439088D01*
X151689502Y-66451810D01*
X151746947Y-66491581D01*
X151773772Y-66556096D01*
X151774500Y-66569516D01*
X151774500Y-74619546D01*
X151754815Y-74686585D01*
X151738181Y-74707227D01*
X143172340Y-83273068D01*
X143111017Y-83306553D01*
X143041325Y-83301569D01*
X142985392Y-83259697D01*
X142960975Y-83194233D01*
X142960659Y-83185387D01*
X142960659Y-83184999D01*
X142940063Y-82949596D01*
X142940063Y-82949592D01*
X142913142Y-82849125D01*
X142914806Y-82779276D01*
X142945235Y-82729353D01*
X148973786Y-76700802D01*
X148986048Y-76690980D01*
X148985865Y-76690759D01*
X148991867Y-76685792D01*
X148991877Y-76685786D01*
X149039241Y-76635348D01*
X149060120Y-76614470D01*
X149064373Y-76608986D01*
X149068150Y-76604563D01*
X149100062Y-76570582D01*
X149109714Y-76553023D01*
X149120389Y-76536772D01*
X149132674Y-76520936D01*
X149151186Y-76478152D01*
X149153742Y-76472935D01*
X149171383Y-76440848D01*
X149176194Y-76432098D01*
X149176194Y-76432097D01*
X149176197Y-76432092D01*
X149181180Y-76412680D01*
X149187477Y-76394291D01*
X149195438Y-76375895D01*
X149202729Y-76329853D01*
X149203908Y-76324162D01*
X149215500Y-76279019D01*
X149215500Y-76258982D01*
X149217027Y-76239582D01*
X149220160Y-76219804D01*
X149215775Y-76173415D01*
X149215500Y-76167577D01*
X149215500Y-66489516D01*
X149235185Y-66422477D01*
X149287989Y-66376722D01*
X149300488Y-66371813D01*
X149359334Y-66352314D01*
X149508656Y-66260212D01*
X149632712Y-66136156D01*
X149724814Y-65986834D01*
X149779999Y-65820297D01*
X149790500Y-65717509D01*
X149790499Y-65092492D01*
X149779999Y-64989703D01*
X149724814Y-64823166D01*
X149632712Y-64673844D01*
X149539048Y-64580180D01*
X149505563Y-64518857D01*
X149510547Y-64449165D01*
X149539045Y-64404822D01*
X149632712Y-64311156D01*
X149724814Y-64161834D01*
X149779999Y-63995297D01*
X149790500Y-63892509D01*
X149790499Y-63267492D01*
X149779999Y-63164703D01*
X149724814Y-62998166D01*
X149632712Y-62848844D01*
X149508656Y-62724788D01*
X149399564Y-62657500D01*
X149359336Y-62632687D01*
X149359335Y-62632686D01*
X149359334Y-62632686D01*
X149300493Y-62613188D01*
X149243051Y-62573416D01*
X149216228Y-62508900D01*
X149215500Y-62495483D01*
X149215500Y-61230743D01*
X149217224Y-61215123D01*
X149216939Y-61215096D01*
X149217673Y-61207334D01*
X149215500Y-61138173D01*
X149215500Y-61108657D01*
X149215500Y-61108651D01*
X149214631Y-61101780D01*
X149214173Y-61095953D01*
X149212710Y-61049374D01*
X149207119Y-61030131D01*
X149203173Y-61011079D01*
X149200664Y-60991209D01*
X149183504Y-60947868D01*
X149181624Y-60942380D01*
X149168618Y-60897611D01*
X149158422Y-60880371D01*
X149149861Y-60862895D01*
X149142487Y-60844271D01*
X149142486Y-60844269D01*
X149115079Y-60806546D01*
X149111888Y-60801687D01*
X149088172Y-60761584D01*
X149088165Y-60761575D01*
X149074006Y-60747416D01*
X149061368Y-60732620D01*
X149049594Y-60716414D01*
X149013688Y-60686710D01*
X149009376Y-60682787D01*
X148009218Y-59682629D01*
X147975733Y-59621306D01*
X147972899Y-59594948D01*
X147972899Y-59042730D01*
X147972898Y-59042724D01*
X147970015Y-59015905D01*
X147966491Y-58983118D01*
X147963494Y-58975083D01*
X147916197Y-58848272D01*
X147916193Y-58848265D01*
X147829947Y-58733057D01*
X147829948Y-58733057D01*
X147829946Y-58733055D01*
X147777461Y-58693764D01*
X147735591Y-58637832D01*
X147730607Y-58568140D01*
X147764092Y-58506817D01*
X147825416Y-58473333D01*
X147851773Y-58470499D01*
X148257285Y-58470499D01*
X148346359Y-58472756D01*
X148346359Y-58472755D01*
X148346364Y-58472756D01*
X148406754Y-58461931D01*
X148411413Y-58461279D01*
X148453608Y-58456987D01*
X148472439Y-58455073D01*
X148505228Y-58444785D01*
X148512841Y-58442917D01*
X148546654Y-58436857D01*
X148603622Y-58414100D01*
X148608054Y-58412523D01*
X148666589Y-58394158D01*
X148696628Y-58377483D01*
X148703709Y-58374121D01*
X148735618Y-58361376D01*
X148786855Y-58327607D01*
X148790852Y-58325186D01*
X148844503Y-58295408D01*
X148870569Y-58273029D01*
X148876844Y-58268299D01*
X148890115Y-58259553D01*
X148905520Y-58249401D01*
X148948886Y-58206033D01*
X148952344Y-58202829D01*
X148980972Y-58178251D01*
X148998896Y-58162865D01*
X149019918Y-58135704D01*
X149025105Y-58129813D01*
X149333340Y-57821580D01*
X149429698Y-57703407D01*
X149523909Y-57523049D01*
X149579887Y-57327418D01*
X149595337Y-57124524D01*
X149590063Y-57083116D01*
X149569631Y-56922678D01*
X149569630Y-56922676D01*
X149569630Y-56922672D01*
X149503816Y-56730128D01*
X149484024Y-56696507D01*
X149400593Y-56554778D01*
X149400592Y-56554777D01*
X149400590Y-56554773D01*
X149264179Y-56403787D01*
X149218978Y-56370595D01*
X149100171Y-56283353D01*
X149100164Y-56283349D01*
X148915274Y-56198397D01*
X148915262Y-56198393D01*
X148717054Y-56152396D01*
X148513641Y-56147242D01*
X148313351Y-56183140D01*
X148313345Y-56183142D01*
X148124383Y-56258623D01*
X148124371Y-56258629D01*
X147954483Y-56370595D01*
X147923191Y-56401887D01*
X147891897Y-56433181D01*
X147830577Y-56466665D01*
X147804218Y-56469499D01*
X146761257Y-56469499D01*
X146609560Y-56484924D01*
X146415420Y-56545836D01*
X146415410Y-56545841D01*
X146237494Y-56644592D01*
X146219327Y-56660188D01*
X146155637Y-56688917D01*
X146138563Y-56690099D01*
X146103731Y-56690099D01*
X146103722Y-56690100D01*
X146044116Y-56696507D01*
X145909271Y-56746801D01*
X145909264Y-56746805D01*
X145794055Y-56833051D01*
X145794052Y-56833054D01*
X145707806Y-56948263D01*
X145707802Y-56948270D01*
X145657508Y-57083116D01*
X145651101Y-57142715D01*
X145651101Y-57142722D01*
X145651100Y-57142734D01*
X145651100Y-57519560D01*
X145631415Y-57586599D01*
X145578611Y-57632354D01*
X145513847Y-57642849D01*
X145488273Y-57640100D01*
X145488267Y-57640100D01*
X145449759Y-57640100D01*
X145382720Y-57620415D01*
X145378922Y-57617875D01*
X145367879Y-57610189D01*
X145328573Y-57582831D01*
X145268050Y-57540705D01*
X145081056Y-57460459D01*
X144881741Y-57419500D01*
X138919500Y-57419500D01*
X138852461Y-57399815D01*
X138806706Y-57347011D01*
X138795500Y-57295500D01*
X138795500Y-54300758D01*
X138815185Y-54233719D01*
X138831819Y-54213077D01*
X138831818Y-54213077D01*
X138833495Y-54211401D01*
X138969035Y-54017830D01*
X139068903Y-53803663D01*
X139130063Y-53575408D01*
X139150659Y-53340000D01*
X139130063Y-53104592D01*
X139068903Y-52876337D01*
X138969035Y-52662171D01*
X138833495Y-52468599D01*
X138833494Y-52468597D01*
X138666402Y-52301506D01*
X138666395Y-52301501D01*
X138472834Y-52165967D01*
X138472830Y-52165965D01*
X138401727Y-52132809D01*
X138258663Y-52066097D01*
X138258659Y-52066096D01*
X138258655Y-52066094D01*
X138030413Y-52004938D01*
X138030403Y-52004936D01*
X137795001Y-51984341D01*
X137794999Y-51984341D01*
X137559596Y-52004936D01*
X137559586Y-52004938D01*
X137331344Y-52066094D01*
X137331335Y-52066098D01*
X137117171Y-52165964D01*
X137117169Y-52165965D01*
X136923600Y-52301503D01*
X136801284Y-52423819D01*
X136739961Y-52457303D01*
X136670269Y-52452319D01*
X136614336Y-52410447D01*
X136597421Y-52379470D01*
X136548354Y-52247913D01*
X136548350Y-52247906D01*
X136462190Y-52132812D01*
X136462187Y-52132809D01*
X136347093Y-52046649D01*
X136347086Y-52046645D01*
X136212379Y-51996403D01*
X136212372Y-51996401D01*
X136152844Y-51990000D01*
X135505000Y-51990000D01*
X135505000Y-52904498D01*
X135397315Y-52855320D01*
X135290763Y-52840000D01*
X135219237Y-52840000D01*
X135112685Y-52855320D01*
X135005000Y-52904498D01*
X135005000Y-51990000D01*
X134357155Y-51990000D01*
X134297627Y-51996401D01*
X134297620Y-51996403D01*
X134162913Y-52046645D01*
X134162906Y-52046649D01*
X134047812Y-52132809D01*
X134047809Y-52132812D01*
X133961649Y-52247906D01*
X133961645Y-52247913D01*
X133911403Y-52382620D01*
X133911401Y-52382627D01*
X133905000Y-52442155D01*
X133905000Y-53090000D01*
X134821314Y-53090000D01*
X134795507Y-53130156D01*
X134755000Y-53268111D01*
X134755000Y-53411889D01*
X134795507Y-53549844D01*
X134821314Y-53590000D01*
X133905000Y-53590000D01*
X133905000Y-54237844D01*
X133911401Y-54297372D01*
X133911403Y-54297379D01*
X133961645Y-54432086D01*
X133961649Y-54432093D01*
X134047809Y-54547187D01*
X134047812Y-54547190D01*
X134162906Y-54633350D01*
X134162913Y-54633354D01*
X134297620Y-54683596D01*
X134297627Y-54683598D01*
X134357155Y-54689999D01*
X134357172Y-54690000D01*
X135005000Y-54690000D01*
X135005000Y-53775501D01*
X135112685Y-53824680D01*
X135219237Y-53840000D01*
X135290763Y-53840000D01*
X135397315Y-53824680D01*
X135505000Y-53775501D01*
X135505000Y-54690000D01*
X136152828Y-54690000D01*
X136152844Y-54689999D01*
X136212372Y-54683598D01*
X136212379Y-54683596D01*
X136347086Y-54633354D01*
X136347093Y-54633350D01*
X136462187Y-54547190D01*
X136462190Y-54547187D01*
X136548350Y-54432093D01*
X136548354Y-54432086D01*
X136554318Y-54416097D01*
X136596189Y-54360163D01*
X136661653Y-54335746D01*
X136729926Y-54350597D01*
X136779332Y-54400002D01*
X136794500Y-54459430D01*
X136794500Y-57569388D01*
X136776617Y-57633537D01*
X136730140Y-57710419D01*
X136730138Y-57710423D01*
X136680759Y-57868886D01*
X136680758Y-57868889D01*
X136680758Y-57868891D01*
X136680750Y-57868985D01*
X136674500Y-57937759D01*
X136674500Y-58902250D01*
X136680756Y-58971102D01*
X136680758Y-58971109D01*
X136730137Y-59129574D01*
X136730139Y-59129578D01*
X136816005Y-59271619D01*
X136816008Y-59271623D01*
X136933377Y-59388992D01*
X137075423Y-59474861D01*
X137233891Y-59524242D01*
X137302757Y-59530500D01*
X138287242Y-59530499D01*
X138287249Y-59530499D01*
X138356102Y-59524243D01*
X138356103Y-59524242D01*
X138356109Y-59524242D01*
X138514577Y-59474861D01*
X138574919Y-59438383D01*
X138639069Y-59420500D01*
X144830743Y-59420500D01*
X144982439Y-59405074D01*
X145176579Y-59344162D01*
X145176580Y-59344161D01*
X145176588Y-59344159D01*
X145354502Y-59245409D01*
X145372667Y-59229814D01*
X145436356Y-59201081D01*
X145453439Y-59199899D01*
X145488271Y-59199899D01*
X145488272Y-59199899D01*
X145488274Y-59199898D01*
X145488284Y-59199898D01*
X145503541Y-59198257D01*
X145513843Y-59197150D01*
X145582603Y-59209554D01*
X145633741Y-59257164D01*
X145651100Y-59320439D01*
X145651100Y-59697270D01*
X145651101Y-59697277D01*
X145657508Y-59756884D01*
X145707802Y-59891729D01*
X145707806Y-59891736D01*
X145794052Y-60006945D01*
X145794055Y-60006948D01*
X145909264Y-60093194D01*
X145909271Y-60093198D01*
X145954218Y-60109962D01*
X146044117Y-60143492D01*
X146103727Y-60149901D01*
X146655947Y-60149900D01*
X146722986Y-60169584D01*
X146743628Y-60186219D01*
X147928181Y-61370771D01*
X147961666Y-61432094D01*
X147964500Y-61458452D01*
X147964500Y-62495483D01*
X147944815Y-62562522D01*
X147892011Y-62608277D01*
X147879510Y-62613186D01*
X147820669Y-62632685D01*
X147820666Y-62632686D01*
X147820663Y-62632687D01*
X147671342Y-62724789D01*
X147547289Y-62848842D01*
X147518451Y-62895597D01*
X147466503Y-62942321D01*
X147412912Y-62954500D01*
X146592088Y-62954500D01*
X146525049Y-62934815D01*
X146486549Y-62895597D01*
X146457712Y-62848844D01*
X146333656Y-62724788D01*
X146224564Y-62657500D01*
X146184336Y-62632687D01*
X146184331Y-62632685D01*
X146182862Y-62632198D01*
X146017797Y-62577501D01*
X146017795Y-62577500D01*
X145915010Y-62567000D01*
X144914998Y-62567000D01*
X144914980Y-62567001D01*
X144812203Y-62577500D01*
X144812200Y-62577501D01*
X144645668Y-62632685D01*
X144645663Y-62632687D01*
X144496342Y-62724789D01*
X144372289Y-62848842D01*
X144280187Y-62998163D01*
X144280185Y-62998166D01*
X144280186Y-62998166D01*
X144225001Y-63164703D01*
X144225001Y-63164704D01*
X144225000Y-63164704D01*
X144214500Y-63267483D01*
X144214500Y-63892501D01*
X144214501Y-63892519D01*
X144225000Y-63995296D01*
X144225001Y-63995299D01*
X144251510Y-64075296D01*
X144280186Y-64161834D01*
X144363975Y-64297679D01*
X144372289Y-64311157D01*
X144465951Y-64404819D01*
X144499436Y-64466142D01*
X144494452Y-64535834D01*
X144465951Y-64580181D01*
X144372289Y-64673842D01*
X144280187Y-64823163D01*
X144280185Y-64823166D01*
X144280186Y-64823166D01*
X144225001Y-64989703D01*
X144225001Y-64989704D01*
X144225000Y-64989704D01*
X144214500Y-65092483D01*
X144214500Y-65717501D01*
X144214501Y-65717519D01*
X144225000Y-65820296D01*
X144225001Y-65820299D01*
X144251510Y-65900296D01*
X144280186Y-65986834D01*
X144372288Y-66136156D01*
X144496344Y-66260212D01*
X144645666Y-66352314D01*
X144645668Y-66352315D01*
X144666110Y-66359088D01*
X144704502Y-66371810D01*
X144761947Y-66411581D01*
X144788772Y-66476096D01*
X144789500Y-66489516D01*
X144789500Y-66611312D01*
X144769815Y-66678351D01*
X144757650Y-66694284D01*
X144682466Y-66777784D01*
X144587821Y-66941715D01*
X144587818Y-66941722D01*
X144544970Y-67073597D01*
X144529326Y-67121744D01*
X144509540Y-67310000D01*
X144529326Y-67498256D01*
X144529327Y-67498259D01*
X144587818Y-67678277D01*
X144587821Y-67678284D01*
X144682467Y-67842216D01*
X144809129Y-67982888D01*
X144962265Y-68094148D01*
X144962270Y-68094151D01*
X145135192Y-68171142D01*
X145135197Y-68171144D01*
X145320354Y-68210500D01*
X145320355Y-68210500D01*
X145509644Y-68210500D01*
X145509646Y-68210500D01*
X145694803Y-68171144D01*
X145867730Y-68094151D01*
X146020871Y-67982888D01*
X146147533Y-67842216D01*
X146242179Y-67678284D01*
X146300674Y-67498256D01*
X146320460Y-67310000D01*
X146300674Y-67121744D01*
X146242179Y-66941716D01*
X146147533Y-66777784D01*
X146131114Y-66759549D01*
X146072350Y-66694284D01*
X146042120Y-66631292D01*
X146040500Y-66611312D01*
X146040500Y-66489516D01*
X146060185Y-66422477D01*
X146112989Y-66376722D01*
X146125488Y-66371813D01*
X146184334Y-66352314D01*
X146333656Y-66260212D01*
X146457712Y-66136156D01*
X146549814Y-65986834D01*
X146604999Y-65820297D01*
X146615500Y-65717509D01*
X146615499Y-65092492D01*
X146604999Y-64989703D01*
X146549814Y-64823166D01*
X146457712Y-64673844D01*
X146364049Y-64580180D01*
X146330564Y-64518858D01*
X146335548Y-64449166D01*
X146364049Y-64404819D01*
X146402363Y-64366505D01*
X146457712Y-64311156D01*
X146486549Y-64264402D01*
X146538497Y-64217679D01*
X146592088Y-64205500D01*
X147412912Y-64205500D01*
X147479951Y-64225185D01*
X147518449Y-64264401D01*
X147543605Y-64305185D01*
X147547289Y-64311157D01*
X147640951Y-64404819D01*
X147674436Y-64466142D01*
X147669452Y-64535834D01*
X147640951Y-64580181D01*
X147547289Y-64673842D01*
X147455187Y-64823163D01*
X147455185Y-64823166D01*
X147455186Y-64823166D01*
X147400001Y-64989703D01*
X147400001Y-64989704D01*
X147400000Y-64989704D01*
X147389500Y-65092483D01*
X147389500Y-65717501D01*
X147389501Y-65717519D01*
X147400000Y-65820296D01*
X147400001Y-65820299D01*
X147426510Y-65900296D01*
X147455186Y-65986834D01*
X147547288Y-66136156D01*
X147671344Y-66260212D01*
X147820666Y-66352314D01*
X147820668Y-66352315D01*
X147841110Y-66359088D01*
X147879502Y-66371810D01*
X147936947Y-66411581D01*
X147963772Y-66476096D01*
X147964500Y-66489516D01*
X147964500Y-75889546D01*
X147944815Y-75956585D01*
X147928181Y-75977227D01*
X143172340Y-80733068D01*
X143111017Y-80766553D01*
X143041325Y-80761569D01*
X142985392Y-80719697D01*
X142960975Y-80654233D01*
X142960659Y-80645387D01*
X142960659Y-80644999D01*
X142940063Y-80409596D01*
X142940063Y-80409592D01*
X142878903Y-80181337D01*
X142779035Y-79967171D01*
X142643495Y-79773599D01*
X142643494Y-79773597D01*
X142476402Y-79606506D01*
X142476396Y-79606501D01*
X142290842Y-79476575D01*
X142247217Y-79421998D01*
X142240023Y-79352500D01*
X142271546Y-79290145D01*
X142290842Y-79273425D01*
X142369700Y-79218208D01*
X142476401Y-79143495D01*
X142643495Y-78976401D01*
X142779035Y-78782830D01*
X142878903Y-78568663D01*
X142940063Y-78340408D01*
X142960659Y-78105000D01*
X142940063Y-77869592D01*
X142878903Y-77641337D01*
X142779035Y-77427171D01*
X142643495Y-77233599D01*
X142643494Y-77233597D01*
X142476402Y-77066506D01*
X142476396Y-77066501D01*
X142290842Y-76936575D01*
X142247217Y-76881998D01*
X142240023Y-76812500D01*
X142271546Y-76750145D01*
X142290842Y-76733425D01*
X142351255Y-76691123D01*
X142476401Y-76603495D01*
X142643495Y-76436401D01*
X142779035Y-76242830D01*
X142878903Y-76028663D01*
X142940063Y-75800408D01*
X142960659Y-75565000D01*
X142960610Y-75564445D01*
X142954760Y-75497572D01*
X142940063Y-75329592D01*
X142878903Y-75101337D01*
X142779035Y-74887171D01*
X142653038Y-74707227D01*
X142643494Y-74693597D01*
X142476402Y-74526506D01*
X142476396Y-74526501D01*
X142290842Y-74396575D01*
X142247217Y-74341998D01*
X142240023Y-74272500D01*
X142271546Y-74210145D01*
X142290842Y-74193425D01*
X142313026Y-74177891D01*
X142476401Y-74063495D01*
X142643495Y-73896401D01*
X142779035Y-73702830D01*
X142878903Y-73488663D01*
X142940063Y-73260408D01*
X142960659Y-73025000D01*
X142940063Y-72789592D01*
X142878903Y-72561337D01*
X142779035Y-72347171D01*
X142643495Y-72153599D01*
X142643494Y-72153597D01*
X142476402Y-71986506D01*
X142476396Y-71986501D01*
X142290842Y-71856575D01*
X142247217Y-71801998D01*
X142240023Y-71732500D01*
X142271546Y-71670145D01*
X142290842Y-71653425D01*
X142399865Y-71577086D01*
X142476401Y-71523495D01*
X142643495Y-71356401D01*
X142779035Y-71162830D01*
X142878903Y-70948663D01*
X142940063Y-70720408D01*
X142960659Y-70485000D01*
X142940063Y-70249592D01*
X142878903Y-70021337D01*
X142779035Y-69807171D01*
X142643495Y-69613599D01*
X142643494Y-69613597D01*
X142476402Y-69446506D01*
X142476396Y-69446501D01*
X142290842Y-69316575D01*
X142247217Y-69261998D01*
X142240023Y-69192500D01*
X142271546Y-69130145D01*
X142290842Y-69113425D01*
X142313026Y-69097891D01*
X142476401Y-68983495D01*
X142643495Y-68816401D01*
X142779035Y-68622830D01*
X142878903Y-68408663D01*
X142940063Y-68180408D01*
X142960659Y-67945000D01*
X142940063Y-67709592D01*
X142878903Y-67481337D01*
X142779035Y-67267171D01*
X142770954Y-67255629D01*
X142643494Y-67073597D01*
X142476402Y-66906506D01*
X142476396Y-66906501D01*
X142290842Y-66776575D01*
X142247217Y-66721998D01*
X142240023Y-66652500D01*
X142271546Y-66590145D01*
X142290842Y-66573425D01*
X142358763Y-66525866D01*
X142476401Y-66443495D01*
X142643495Y-66276401D01*
X142779035Y-66082830D01*
X142878903Y-65868663D01*
X142940063Y-65640408D01*
X142960659Y-65405000D01*
X142940063Y-65169592D01*
X142878903Y-64941337D01*
X142779035Y-64727171D01*
X142741695Y-64673844D01*
X142643496Y-64533600D01*
X142594713Y-64484817D01*
X142521567Y-64411671D01*
X142488084Y-64350351D01*
X142493068Y-64280659D01*
X142534939Y-64224725D01*
X142565915Y-64207810D01*
X142697331Y-64158796D01*
X142812546Y-64072546D01*
X142898796Y-63957331D01*
X142949091Y-63822483D01*
X142955500Y-63762873D01*
X142955499Y-61967128D01*
X142949091Y-61907517D01*
X142898796Y-61772669D01*
X142898795Y-61772668D01*
X142898793Y-61772664D01*
X142812547Y-61657455D01*
X142812544Y-61657452D01*
X142697335Y-61571206D01*
X142697328Y-61571202D01*
X142562482Y-61520908D01*
X142562483Y-61520908D01*
X142502883Y-61514501D01*
X142502881Y-61514500D01*
X142502873Y-61514500D01*
X142502864Y-61514500D01*
X140707129Y-61514500D01*
X140707123Y-61514501D01*
X140647516Y-61520908D01*
X140512671Y-61571202D01*
X140512664Y-61571206D01*
X140397455Y-61657452D01*
X140397452Y-61657455D01*
X140311206Y-61772664D01*
X140311202Y-61772671D01*
X140260908Y-61907517D01*
X140254501Y-61967116D01*
X140254501Y-61967123D01*
X140254500Y-61967135D01*
X140254500Y-63762870D01*
X140254501Y-63762876D01*
X140260908Y-63822483D01*
X140311202Y-63957328D01*
X140311206Y-63957335D01*
X140397452Y-64072544D01*
X140397455Y-64072547D01*
X140512664Y-64158793D01*
X140512671Y-64158797D01*
X140644081Y-64207810D01*
X140700015Y-64249681D01*
X140724432Y-64315145D01*
X140709580Y-64383418D01*
X140688430Y-64411673D01*
X140566503Y-64533600D01*
X140430965Y-64727169D01*
X140430964Y-64727171D01*
X140331098Y-64941335D01*
X140331094Y-64941344D01*
X140269938Y-65169586D01*
X140269936Y-65169596D01*
X140249341Y-65404999D01*
X140249341Y-65405000D01*
X140269936Y-65640403D01*
X140269938Y-65640413D01*
X140331094Y-65868655D01*
X140331096Y-65868659D01*
X140331097Y-65868663D01*
X140386200Y-65986831D01*
X140430965Y-66082830D01*
X140430967Y-66082834D01*
X140505267Y-66188944D01*
X140565053Y-66274328D01*
X140566501Y-66276395D01*
X140566506Y-66276402D01*
X140733597Y-66443493D01*
X140733603Y-66443498D01*
X140919158Y-66573425D01*
X140962783Y-66628002D01*
X140969977Y-66697500D01*
X140938454Y-66759855D01*
X140919158Y-66776575D01*
X140733597Y-66906505D01*
X140566505Y-67073597D01*
X140430965Y-67267169D01*
X140430964Y-67267171D01*
X140331098Y-67481335D01*
X140331094Y-67481344D01*
X140269938Y-67709586D01*
X140269936Y-67709596D01*
X140249341Y-67944999D01*
X140249341Y-67945000D01*
X140269936Y-68180403D01*
X140269938Y-68180413D01*
X140331094Y-68408655D01*
X140331096Y-68408659D01*
X140331097Y-68408663D01*
X140430964Y-68622829D01*
X140430965Y-68622830D01*
X140430967Y-68622834D01*
X140566501Y-68816395D01*
X140566506Y-68816402D01*
X140733597Y-68983493D01*
X140733603Y-68983498D01*
X140919158Y-69113425D01*
X140962783Y-69168002D01*
X140969977Y-69237500D01*
X140938454Y-69299855D01*
X140919158Y-69316575D01*
X140733597Y-69446505D01*
X140566505Y-69613597D01*
X140430965Y-69807169D01*
X140430964Y-69807171D01*
X140331098Y-70021335D01*
X140331094Y-70021344D01*
X140269938Y-70249586D01*
X140269936Y-70249596D01*
X140249341Y-70484999D01*
X140249341Y-70485000D01*
X140269936Y-70720403D01*
X140269938Y-70720413D01*
X140331094Y-70948655D01*
X140331096Y-70948659D01*
X140331097Y-70948663D01*
X140430964Y-71162830D01*
X140430965Y-71162830D01*
X140430967Y-71162834D01*
X140566501Y-71356395D01*
X140566506Y-71356402D01*
X140733597Y-71523493D01*
X140733603Y-71523498D01*
X140919158Y-71653425D01*
X140962783Y-71708002D01*
X140969977Y-71777500D01*
X140938454Y-71839855D01*
X140919158Y-71856575D01*
X140733597Y-71986505D01*
X140566505Y-72153597D01*
X140430965Y-72347169D01*
X140430964Y-72347171D01*
X140331098Y-72561335D01*
X140331094Y-72561344D01*
X140269938Y-72789586D01*
X140269936Y-72789596D01*
X140249341Y-73024999D01*
X140249341Y-73025000D01*
X140269936Y-73260403D01*
X140269938Y-73260413D01*
X140331094Y-73488655D01*
X140331096Y-73488659D01*
X140331097Y-73488663D01*
X140430965Y-73702830D01*
X140430967Y-73702834D01*
X140566501Y-73896395D01*
X140566506Y-73896402D01*
X140733597Y-74063493D01*
X140733603Y-74063498D01*
X140919158Y-74193425D01*
X140962783Y-74248002D01*
X140969977Y-74317500D01*
X140938454Y-74379855D01*
X140919158Y-74396575D01*
X140733597Y-74526505D01*
X140566505Y-74693597D01*
X140430965Y-74887169D01*
X140430964Y-74887171D01*
X140331098Y-75101335D01*
X140331094Y-75101344D01*
X140269938Y-75329586D01*
X140269936Y-75329596D01*
X140249341Y-75564999D01*
X140249341Y-75565000D01*
X140269936Y-75800403D01*
X140269938Y-75800413D01*
X140331094Y-76028655D01*
X140331096Y-76028659D01*
X140331097Y-76028663D01*
X140395874Y-76167577D01*
X140430965Y-76242830D01*
X140430967Y-76242834D01*
X140566501Y-76436395D01*
X140566506Y-76436402D01*
X140733597Y-76603493D01*
X140733603Y-76603498D01*
X140919158Y-76733425D01*
X140962783Y-76788002D01*
X140969977Y-76857500D01*
X140938454Y-76919855D01*
X140919158Y-76936575D01*
X140733597Y-77066505D01*
X140566505Y-77233597D01*
X140430965Y-77427169D01*
X140430964Y-77427171D01*
X140331098Y-77641335D01*
X140331094Y-77641344D01*
X140269938Y-77869586D01*
X140269936Y-77869596D01*
X140249341Y-78104999D01*
X140249341Y-78105000D01*
X140269936Y-78340403D01*
X140269938Y-78340413D01*
X140331094Y-78568655D01*
X140331096Y-78568659D01*
X140331097Y-78568663D01*
X140430965Y-78782830D01*
X140430967Y-78782834D01*
X140566501Y-78976395D01*
X140566506Y-78976402D01*
X140733597Y-79143493D01*
X140733603Y-79143498D01*
X140919158Y-79273425D01*
X140962783Y-79328002D01*
X140969977Y-79397500D01*
X140938454Y-79459855D01*
X140919158Y-79476575D01*
X140733597Y-79606505D01*
X140566505Y-79773597D01*
X140430965Y-79967169D01*
X140430964Y-79967171D01*
X140331098Y-80181335D01*
X140331094Y-80181344D01*
X140269938Y-80409586D01*
X140269936Y-80409596D01*
X140249341Y-80644999D01*
X140249341Y-80645000D01*
X140269936Y-80880403D01*
X140269938Y-80880413D01*
X140331094Y-81108655D01*
X140331096Y-81108659D01*
X140331097Y-81108663D01*
X140430964Y-81322830D01*
X140430965Y-81322830D01*
X140430967Y-81322834D01*
X140566501Y-81516395D01*
X140566506Y-81516402D01*
X140733597Y-81683493D01*
X140733603Y-81683498D01*
X140919158Y-81813425D01*
X140962783Y-81868002D01*
X140969977Y-81937500D01*
X140938454Y-81999855D01*
X140919158Y-82016575D01*
X140733597Y-82146505D01*
X140566505Y-82313597D01*
X140430965Y-82507169D01*
X140430964Y-82507171D01*
X140331098Y-82721335D01*
X140331094Y-82721344D01*
X140269938Y-82949586D01*
X140269936Y-82949596D01*
X140249341Y-83184999D01*
X140249341Y-83185000D01*
X140269936Y-83420403D01*
X140269938Y-83420413D01*
X140331094Y-83648655D01*
X140331096Y-83648659D01*
X140331097Y-83648663D01*
X140430965Y-83862830D01*
X140430967Y-83862834D01*
X140566501Y-84056395D01*
X140566506Y-84056402D01*
X140733597Y-84223493D01*
X140733603Y-84223498D01*
X140919158Y-84353425D01*
X140962783Y-84408002D01*
X140969977Y-84477500D01*
X140938454Y-84539855D01*
X140919158Y-84556575D01*
X140733597Y-84686505D01*
X140566505Y-84853597D01*
X140430965Y-85047169D01*
X140430964Y-85047171D01*
X140331098Y-85261335D01*
X140331094Y-85261344D01*
X140269938Y-85489586D01*
X140269936Y-85489596D01*
X140249341Y-85724999D01*
X140249341Y-85725000D01*
X140269936Y-85960403D01*
X140269938Y-85960413D01*
X140331094Y-86188655D01*
X140331096Y-86188659D01*
X140331097Y-86188663D01*
X140401931Y-86340567D01*
X140430965Y-86402830D01*
X140430967Y-86402834D01*
X140495036Y-86494333D01*
X140566501Y-86596396D01*
X140566506Y-86596402D01*
X140733597Y-86763493D01*
X140733603Y-86763498D01*
X140919158Y-86893425D01*
X140962783Y-86948002D01*
X140969977Y-87017500D01*
X140938454Y-87079855D01*
X140919158Y-87096575D01*
X140733597Y-87226505D01*
X140566505Y-87393597D01*
X140430965Y-87587169D01*
X140430964Y-87587171D01*
X140331098Y-87801335D01*
X140331094Y-87801344D01*
X140269938Y-88029586D01*
X140269936Y-88029596D01*
X140249341Y-88264999D01*
X140249341Y-88265000D01*
X140269936Y-88500403D01*
X140269938Y-88500413D01*
X140331094Y-88728655D01*
X140331096Y-88728659D01*
X140331097Y-88728663D01*
X140430965Y-88942829D01*
X140430965Y-88942830D01*
X140430967Y-88942834D01*
X140566501Y-89136395D01*
X140566506Y-89136402D01*
X140733597Y-89303493D01*
X140733603Y-89303498D01*
X140919158Y-89433425D01*
X140962783Y-89488002D01*
X140969977Y-89557500D01*
X140938454Y-89619855D01*
X140919158Y-89636575D01*
X140733597Y-89766505D01*
X140566505Y-89933597D01*
X140430965Y-90127169D01*
X140430964Y-90127171D01*
X140331098Y-90341335D01*
X140331094Y-90341344D01*
X140269938Y-90569586D01*
X140269936Y-90569596D01*
X140249341Y-90804999D01*
X140249341Y-90805000D01*
X140269936Y-91040403D01*
X140269938Y-91040413D01*
X140331094Y-91268655D01*
X140331096Y-91268659D01*
X140331097Y-91268663D01*
X140413331Y-91445013D01*
X140430965Y-91482830D01*
X140430967Y-91482834D01*
X140566501Y-91676395D01*
X140566506Y-91676402D01*
X140733597Y-91843493D01*
X140733603Y-91843498D01*
X140919158Y-91973425D01*
X140962783Y-92028002D01*
X140969977Y-92097500D01*
X140938454Y-92159855D01*
X140919158Y-92176575D01*
X140733597Y-92306505D01*
X140566505Y-92473597D01*
X140430965Y-92667169D01*
X140430964Y-92667171D01*
X140331098Y-92881335D01*
X140331094Y-92881344D01*
X140269938Y-93109586D01*
X140269936Y-93109596D01*
X140249341Y-93344999D01*
X140249341Y-93345000D01*
X140269936Y-93580403D01*
X140269938Y-93580413D01*
X140331094Y-93808655D01*
X140331096Y-93808659D01*
X140331097Y-93808663D01*
X140402187Y-93961115D01*
X140430965Y-94022830D01*
X140430967Y-94022834D01*
X140566501Y-94216395D01*
X140566506Y-94216402D01*
X140733597Y-94383493D01*
X140733603Y-94383498D01*
X140919158Y-94513425D01*
X140962783Y-94568002D01*
X140969977Y-94637500D01*
X140938454Y-94699855D01*
X140919158Y-94716575D01*
X140733597Y-94846505D01*
X140566505Y-95013597D01*
X140431348Y-95206623D01*
X140376771Y-95250248D01*
X140329773Y-95259500D01*
X136530227Y-95259500D01*
X136463188Y-95239815D01*
X136428652Y-95206623D01*
X136293496Y-95013600D01*
X136244348Y-94964452D01*
X136171567Y-94891671D01*
X136138084Y-94830351D01*
X136143068Y-94760659D01*
X136184939Y-94704725D01*
X136215915Y-94687810D01*
X136347331Y-94638796D01*
X136462546Y-94552546D01*
X136548796Y-94437331D01*
X136599091Y-94302483D01*
X136605500Y-94242873D01*
X136605499Y-92447128D01*
X136599091Y-92387517D01*
X136585722Y-92351674D01*
X136548797Y-92252671D01*
X136548793Y-92252664D01*
X136462547Y-92137455D01*
X136462544Y-92137452D01*
X136347335Y-92051206D01*
X136347328Y-92051202D01*
X136212482Y-92000908D01*
X136212483Y-92000908D01*
X136152883Y-91994501D01*
X136152881Y-91994500D01*
X136152873Y-91994500D01*
X136152864Y-91994500D01*
X134357129Y-91994500D01*
X134357123Y-91994501D01*
X134297516Y-92000908D01*
X134162671Y-92051202D01*
X134162664Y-92051206D01*
X134047455Y-92137452D01*
X134047452Y-92137455D01*
X133961206Y-92252664D01*
X133961202Y-92252671D01*
X133910908Y-92387517D01*
X133904914Y-92443277D01*
X133904501Y-92447123D01*
X133904500Y-92447135D01*
X133904500Y-94242870D01*
X133904501Y-94242876D01*
X133910908Y-94302483D01*
X133961202Y-94437328D01*
X133961206Y-94437335D01*
X134047452Y-94552544D01*
X134047455Y-94552547D01*
X134162664Y-94638793D01*
X134162671Y-94638797D01*
X134294081Y-94687810D01*
X134350015Y-94729681D01*
X134374432Y-94795145D01*
X134359580Y-94863418D01*
X134338430Y-94891673D01*
X134216503Y-95013600D01*
X134080965Y-95207169D01*
X134080964Y-95207171D01*
X133981098Y-95421335D01*
X133981094Y-95421344D01*
X133919938Y-95649586D01*
X133919936Y-95649596D01*
X133899341Y-95884999D01*
X133899341Y-95885000D01*
X133919936Y-96120403D01*
X133919938Y-96120413D01*
X133981094Y-96348655D01*
X133981096Y-96348659D01*
X133981097Y-96348663D01*
X134056563Y-96510500D01*
X134080965Y-96562830D01*
X134080967Y-96562834D01*
X134145036Y-96654333D01*
X134216501Y-96756396D01*
X134216506Y-96756402D01*
X134383597Y-96923493D01*
X134383603Y-96923498D01*
X134569158Y-97053425D01*
X134612783Y-97108002D01*
X134619977Y-97177500D01*
X134588454Y-97239855D01*
X134569158Y-97256575D01*
X134383597Y-97386505D01*
X134216505Y-97553597D01*
X134080965Y-97747169D01*
X134080964Y-97747171D01*
X133981098Y-97961335D01*
X133981094Y-97961344D01*
X133919938Y-98189586D01*
X133919936Y-98189596D01*
X133899341Y-98424999D01*
X133899341Y-98425000D01*
X133919936Y-98660403D01*
X133919938Y-98660413D01*
X133981094Y-98888655D01*
X133981096Y-98888659D01*
X133981097Y-98888663D01*
X134056563Y-99050500D01*
X134080965Y-99102830D01*
X134080967Y-99102834D01*
X134095080Y-99122989D01*
X134216501Y-99296396D01*
X134216506Y-99296402D01*
X134383597Y-99463493D01*
X134383603Y-99463498D01*
X134569158Y-99593425D01*
X134612783Y-99648002D01*
X134619977Y-99717500D01*
X134588454Y-99779855D01*
X134569158Y-99796575D01*
X134383597Y-99926505D01*
X134216505Y-100093597D01*
X134080965Y-100287169D01*
X134080964Y-100287171D01*
X133981098Y-100501335D01*
X133981094Y-100501344D01*
X133919938Y-100729586D01*
X133919936Y-100729596D01*
X133899341Y-100964999D01*
X133899341Y-100965000D01*
X133919936Y-101200403D01*
X133919938Y-101200413D01*
X133981094Y-101428655D01*
X133981096Y-101428659D01*
X133981097Y-101428663D01*
X134056563Y-101590500D01*
X134080965Y-101642830D01*
X134080967Y-101642834D01*
X134145036Y-101734333D01*
X134216501Y-101836396D01*
X134216506Y-101836402D01*
X134383597Y-102003493D01*
X134383603Y-102003498D01*
X134569158Y-102133425D01*
X134612783Y-102188002D01*
X134619977Y-102257500D01*
X134588454Y-102319855D01*
X134569158Y-102336575D01*
X134383597Y-102466505D01*
X134216505Y-102633597D01*
X134080965Y-102827169D01*
X134080964Y-102827171D01*
X133981098Y-103041335D01*
X133981094Y-103041344D01*
X133919938Y-103269586D01*
X133919936Y-103269596D01*
X133899341Y-103504999D01*
X133899341Y-103505000D01*
X133919936Y-103740403D01*
X133919938Y-103740413D01*
X133981094Y-103968655D01*
X133981096Y-103968659D01*
X133981097Y-103968663D01*
X134056244Y-104129815D01*
X134080965Y-104182830D01*
X134080967Y-104182834D01*
X134216501Y-104376395D01*
X134216506Y-104376402D01*
X134383597Y-104543493D01*
X134383603Y-104543498D01*
X134569158Y-104673425D01*
X134612783Y-104728002D01*
X134619977Y-104797500D01*
X134588454Y-104859855D01*
X134569158Y-104876575D01*
X134383597Y-105006505D01*
X134216505Y-105173597D01*
X134080965Y-105367169D01*
X134080964Y-105367171D01*
X133981098Y-105581335D01*
X133981094Y-105581344D01*
X133919938Y-105809586D01*
X133919936Y-105809596D01*
X133899341Y-106044999D01*
X133899341Y-106045000D01*
X132715500Y-106045000D01*
X132715500Y-73025000D01*
X133899341Y-73025000D01*
X133919936Y-73260403D01*
X133919938Y-73260413D01*
X133981094Y-73488655D01*
X133981096Y-73488659D01*
X133981097Y-73488663D01*
X134080964Y-73702829D01*
X134080965Y-73702830D01*
X134080967Y-73702834D01*
X134189281Y-73857521D01*
X134216505Y-73896401D01*
X134383599Y-74063495D01*
X134480384Y-74131264D01*
X134577165Y-74199032D01*
X134577167Y-74199033D01*
X134577170Y-74199035D01*
X134791337Y-74298903D01*
X135019592Y-74360063D01*
X135207918Y-74376539D01*
X135254999Y-74380659D01*
X135255000Y-74380659D01*
X135255001Y-74380659D01*
X135294234Y-74377226D01*
X135490408Y-74360063D01*
X135718663Y-74298903D01*
X135932830Y-74199035D01*
X136126401Y-74063495D01*
X136293495Y-73896401D01*
X136429035Y-73702830D01*
X136528903Y-73488663D01*
X136590063Y-73260408D01*
X136610659Y-73025000D01*
X136590063Y-72789592D01*
X136528903Y-72561337D01*
X136429035Y-72347171D01*
X136293495Y-72153599D01*
X136171179Y-72031283D01*
X136137696Y-71969963D01*
X136142680Y-71900271D01*
X136184551Y-71844337D01*
X136215529Y-71827422D01*
X136347086Y-71778354D01*
X136347093Y-71778350D01*
X136462187Y-71692190D01*
X136462190Y-71692187D01*
X136548350Y-71577093D01*
X136548354Y-71577086D01*
X136598596Y-71442379D01*
X136598598Y-71442372D01*
X136604999Y-71382844D01*
X136605000Y-71382827D01*
X136605000Y-70735000D01*
X135688686Y-70735000D01*
X135714493Y-70694844D01*
X135755000Y-70556889D01*
X135755000Y-70413111D01*
X135714493Y-70275156D01*
X135688686Y-70235000D01*
X136605000Y-70235000D01*
X136605000Y-69587172D01*
X136604999Y-69587155D01*
X136598598Y-69527627D01*
X136598596Y-69527620D01*
X136548354Y-69392913D01*
X136548350Y-69392906D01*
X136462190Y-69277812D01*
X136462187Y-69277809D01*
X136347093Y-69191649D01*
X136347086Y-69191645D01*
X136212379Y-69141403D01*
X136212372Y-69141401D01*
X136152844Y-69135000D01*
X135505000Y-69135000D01*
X135505000Y-70049498D01*
X135397315Y-70000320D01*
X135290763Y-69985000D01*
X135219237Y-69985000D01*
X135112685Y-70000320D01*
X135005000Y-70049498D01*
X135005000Y-69135000D01*
X134357155Y-69135000D01*
X134297627Y-69141401D01*
X134297620Y-69141403D01*
X134162913Y-69191645D01*
X134162906Y-69191649D01*
X134047812Y-69277809D01*
X134047809Y-69277812D01*
X133961649Y-69392906D01*
X133961645Y-69392913D01*
X133911403Y-69527620D01*
X133911401Y-69527627D01*
X133905000Y-69587155D01*
X133905000Y-70235000D01*
X134821314Y-70235000D01*
X134795507Y-70275156D01*
X134755000Y-70413111D01*
X134755000Y-70556889D01*
X134795507Y-70694844D01*
X134821314Y-70735000D01*
X133905000Y-70735000D01*
X133905000Y-71382844D01*
X133911401Y-71442372D01*
X133911403Y-71442379D01*
X133961645Y-71577086D01*
X133961649Y-71577093D01*
X134047809Y-71692187D01*
X134047812Y-71692190D01*
X134162906Y-71778350D01*
X134162913Y-71778354D01*
X134294470Y-71827421D01*
X134350403Y-71869292D01*
X134374821Y-71934756D01*
X134359970Y-72003029D01*
X134338819Y-72031284D01*
X134216503Y-72153600D01*
X134080965Y-72347169D01*
X134080964Y-72347171D01*
X133981098Y-72561335D01*
X133981094Y-72561344D01*
X133919938Y-72789586D01*
X133919936Y-72789596D01*
X133899341Y-73024999D01*
X133899341Y-73025000D01*
X132715500Y-73025000D01*
X132715500Y-58670000D01*
X133695001Y-58670000D01*
X133695001Y-58902204D01*
X133701253Y-58971018D01*
X133750596Y-59129367D01*
X133836407Y-59271315D01*
X133953684Y-59388592D01*
X134095628Y-59474401D01*
X134253985Y-59523746D01*
X134322805Y-59529999D01*
X134564999Y-59529999D01*
X134565000Y-59529998D01*
X134565000Y-58670000D01*
X135065000Y-58670000D01*
X135065000Y-59529999D01*
X135307203Y-59529999D01*
X135376018Y-59523746D01*
X135534367Y-59474403D01*
X135676315Y-59388592D01*
X135793592Y-59271315D01*
X135879401Y-59129371D01*
X135928746Y-58971014D01*
X135935000Y-58902194D01*
X135935000Y-58670000D01*
X135065000Y-58670000D01*
X134565000Y-58670000D01*
X133695001Y-58670000D01*
X132715500Y-58670000D01*
X132715500Y-57937805D01*
X133694999Y-57937805D01*
X133695000Y-58170000D01*
X134565000Y-58170000D01*
X134565000Y-57310000D01*
X135065000Y-57310000D01*
X135065000Y-58170000D01*
X135934999Y-58170000D01*
X135934999Y-57937795D01*
X135928746Y-57868981D01*
X135879403Y-57710632D01*
X135793592Y-57568684D01*
X135676315Y-57451407D01*
X135534371Y-57365598D01*
X135376014Y-57316253D01*
X135307194Y-57310000D01*
X135065000Y-57310000D01*
X134565000Y-57310000D01*
X134322795Y-57310000D01*
X134253981Y-57316253D01*
X134095632Y-57365596D01*
X133953684Y-57451407D01*
X133836407Y-57568684D01*
X133750598Y-57710628D01*
X133701253Y-57868985D01*
X133694999Y-57937805D01*
X132715500Y-57937805D01*
X132715500Y-51559500D01*
X132735185Y-51492461D01*
X132787989Y-51446706D01*
X132839500Y-51435500D01*
X168150500Y-51435500D01*
X168217539Y-51455185D01*
G37*
%TD.AperFunction*%
%TD*%
M02*
